<?xml version="1.0" encoding="UTF-8"?>
<svg id="Calque_1" xmlns="http://www.w3.org/2000/svg" version="1.1" xmlns:xlink="http://www.w3.org/1999/xlink" viewBox="0 0 23 13">
  <!-- Generator: Adobe Illustrator 29.3.1, SVG Export Plug-In . SVG Version: 2.1.0 Build 151)  -->
  <defs>
    <style>
      .st0 {
        clip-path: url(#clippath-4);
      }

      .st1, .st2 {
        fill: url(#Dégradé_sans_nom_11);
      }

      .st3, .st4, .st5, .st2, .st6, .st7, .st8, .st9, .st10, .st11, .st12, .st13, .st14, .st15 {
        stroke-miterlimit: 10;
      }

      .st3, .st4, .st16, .st6, .st11, .st14 {
        stroke: #000;
      }

      .st3, .st5, .st2, .st7, .st8, .st9, .st10, .st11, .st12, .st14, .st15 {
        stroke-width: .8px;
      }

      .st3, .st16, .st9, .st12, .st15 {
        fill: none;
      }

      .st4, .st11 {
        fill: #474242;
      }

      .st5, .st9, .st13 {
        stroke: #fff;
      }

      .st16 {
        stroke-width: 3px;
      }

      .st2, .st12 {
        stroke: #4e3062;
      }

      .st17 {
        fill: #1c1b1a;
      }

      .st18, .st6, .st14 {
        fill: #fff;
      }

      .st19 {
        fill: #f4bb11;
      }

      .st7 {
        fill: #908686;
      }

      .st7, .st10 {
        stroke: #1c1b1a;
      }

      .st20, .st8 {
        fill: #fff7bb;
      }

      .st8 {
        stroke: #fff7bb;
      }

      .st21 {
        clip-path: url(#clippath-1);
      }

      .st10 {
        fill: #333131;
      }

      .st22 {
        clip-path: url(#clippath-3);
      }

      .st23 {
        fill: url(#Dégradé_sans_nom_16);
      }

      .st24 {
        fill: url(#Dégradé_sans_nom_161);
      }

      .st15 {
        stroke: #20221d;
      }

      .st25 {
        clip-path: url(#clippath-2);
      }

      .st26 {
        fill: #2e2c2c;
      }

      .st27 {
        clip-path: url(#clippath);
      }

      .st28 {
        fill: #fff6bb;
      }
    </style>
    <clipPath id="clippath">
      <circle class="st5" cx="4884" cy="-826.5" r="1.9"/>
    </clipPath>
    <radialGradient id="Dégradé_sans_nom_11" data-name="Dégradé sans nom 11" cx="1928.6" cy="-992.2" fx="1928.6" fy="-992.2" r="1.2" gradientUnits="userSpaceOnUse">
      <stop offset="0" stop-color="#eae7e4"/>
      <stop offset="0" stop-color="#f5f4f2"/>
      <stop offset="0" stop-color="#fff"/>
      <stop offset="0" stop-color="#f3f0f6"/>
      <stop offset=".2" stop-color="#d6c9df"/>
      <stop offset=".4" stop-color="#a68abb"/>
      <stop offset=".5" stop-color="#784d97"/>
      <stop offset=".6" stop-color="#714d8d"/>
      <stop offset=".8" stop-color="#5e4d73"/>
      <stop offset="1" stop-color="#464e50"/>
    </radialGradient>
    <clipPath id="clippath-1">
      <circle class="st2" cx="1928.6" cy="-992.2" r="1.2"/>
    </clipPath>
    <linearGradient id="Dégradé_sans_nom_16" data-name="Dégradé sans nom 16" x1="1928.8" y1="-992" x2="1929.4" y2="-991.5" gradientUnits="userSpaceOnUse">
      <stop offset=".2" stop-color="#fff"/>
      <stop offset="1" stop-color="#1c1b1a"/>
    </linearGradient>
    <linearGradient id="Dégradé_sans_nom_161" data-name="Dégradé sans nom 16" x1="1928.1" y1="-992.5" x2="1928.4" y2="-992.5" xlink:href="#Dégradé_sans_nom_16"/>
    <clipPath id="clippath-2">
      <circle class="st5" cx="1928.6" cy="-526.2" r="1.2"/>
    </clipPath>
    <clipPath id="clippath-3">
      <circle class="st14" cx="1920.6" cy="447.8" r="1.2"/>
    </clipPath>
    <clipPath id="clippath-4">
      <circle class="st5" cx="-470.4" cy="-390.2" r="1.2"/>
    </clipPath>
  </defs>
  <path class="st3" d="M3299.2-755s1.3,14.8,1.7,20.2c.3,5.4,1.3,8.8,4.7,13,3.3,4.2,7.7,6.9,10.7,9.4s5,6-5.3,7.2c-4.8.6-14.5.3-19.3.3h-80c-4.8,0-14.5.3-19.3-.3-10.3-1.3-8.3-4.8-5.3-7.2s7.3-5.1,10.7-9.4,4.3-7.5,4.7-13c.3-5.4,1.7-20.2,1.7-20.2h95.3Z"/>
  <rect class="st3" x="3028.8" y="-1061.7" width="445.7" height="306.7" rx="-224.1" ry="-224.1"/>
  <path class="st3" d="M3259.3-780c-2.4-3.6-4-3.4-6.1-2.1s-1.2-1.7-5.3-.9-8,8.7-1.2,14.4c1.3,1.1,3.5-1.2,4.9-.5,6.4,3.4,8.3-3.9,8.3-3.9-7.1-3.2-.6-6.9-.6-6.9Z"/>
  <path class="st3" d="M3252.3-783.2c.4,0,1,.1,2.4-1.5s.8-2.5-.2-2.5c-1.7,0-3.3,3.8-2.2,4Z"/>
  <rect class="st3" x="3044.3" y="-1045.2" width="413.6" height="233.3" rx="-289.3" ry="-289.3"/>
  <path d="M2670.4-1060.3c1.1,0,2.2.8,2.5,1.9.2.6.7,1,1.4,1h183.7c9.8,0,17.8,8,17.8,17.8v288.9c0,.9-.8,1.7-1.7,1.7h-448.7v-300c0-4.6,3.7-8.3,8.3-8.3h193.9c.6,0,1.2-.4,1.4-1,.3-1.1,1.4-1.9,2.5-1.9h39M2670.4-1061h-39c-1.5,0-2.8,1-3.2,2.4,0,.3-.4.5-.6.5h-193.9c-5,0-9.1,4.1-9.1,9.1v300.8h449.4c1.4,0,2.5-1.1,2.5-2.5v-288.9c0-10.2-8.3-18.5-18.5-18.5h-183.7c-.3,0-.6-.2-.6-.5-.4-1.4-1.7-2.4-3.2-2.4h0Z"/>
  <path d="M2908.7-748.4c.7,0,1.3.6,1.3,1.3v.2c0,10.6-8.6,19.1-19.1,19.1h-479.8c-10.6,0-19.3-8.6-19.3-19.3s.6-1.4,1.4-1.4h515.6M2908.7-749.1h-515.6c-1.2,0-2.1,1-2.1,2.1,0,11,9,20,20,20h479.8c11,0,19.9-8.9,19.9-19.9v-.2c0-1.1-.9-2-2-2h0Z"/>
  <path d="M2650.9-1053.7c3.2,0,5.8,2.6,5.8,5.8s-2.6,5.8-5.8,5.8-5.8-2.6-5.8-5.8,2.6-5.8,5.8-5.8M2650.9-1054.5c-3.6,0-6.6,2.9-6.6,6.6s2.9,6.6,6.6,6.6,6.6-2.9,6.6-6.6-2.9-6.6-6.6-6.6h0Z"/>
  <path d="M2650.9-1050.5c1.4,0,2.5,1.1,2.5,2.5s-1.1,2.5-2.5,2.5-2.5-1.1-2.5-2.5,1.1-2.5,2.5-2.5M2650.9-1051.2c-1.8,0-3.3,1.5-3.3,3.3s1.5,3.3,3.3,3.3,3.3-1.5,3.3-3.3-1.5-3.3-3.3-3.3h0Z"/>
  <path class="st3" d="M2864.8-781c0,1.8-1.4,3.3-3.1,3.3h-421.7c-1.7,0-3.1-1.5-3.1-3.3v-250.1c0-1.8,1.4-3.3,3.1-3.3h421.7c1.7,0,3.1,1.5,3.1,3.3v250.1Z"/>
  <g>
    <path d="M5393.9-791.9c-3.3,0-6.1-2.7-6.1-6.1s2.7-6.1,6.1-6.1,6.1,2.7,6.1,6.1-2.7,6.1-6.1,6.1Z"/>
    <path class="st18" d="M5393.9-803.5c3.1,0,5.6,2.5,5.6,5.6s-2.5,5.6-5.6,5.6-5.6-2.5-5.6-5.6,2.5-5.6,5.6-5.6M5393.9-804.5c-3.6,0-6.6,2.9-6.6,6.6s2.9,6.6,6.6,6.6,6.6-2.9,6.6-6.6-2.9-6.6-6.6-6.6h0Z"/>
  </g>
  <g>
    <path d="M5393.9-795.2c-1.5,0-2.8-1.2-2.8-2.8s1.2-2.8,2.8-2.8,2.8,1.2,2.8,2.8-1.2,2.8-2.8,2.8Z"/>
    <path class="st18" d="M5393.9-800.2c1.3,0,2.3,1,2.3,2.3s-1,2.3-2.3,2.3-2.3-1-2.3-2.3,1-2.3,2.3-2.3M5393.9-801.2c-1.8,0-3.3,1.5-3.3,3.3s1.5,3.3,3.3,3.3,3.3-1.5,3.3-3.3-1.5-3.3-3.3-3.3h0Z"/>
  </g>
  <path class="st13" d="M4916.7-847.4h15.7c1.1,0,2,.9,2,2h-19.8c0-1.1.9-2,2-2Z"/>
  <circle class="st13" cx="4883.9" cy="-826.5" r="3.4"/>
  <g>
    <circle cx="4884" cy="-826.5" r="1.9"/>
    <g class="st27">
      <circle class="st13" cx="4882.9" cy="-827.7" r=".5"/>
      <circle class="st13" cx="4882.7" cy="-828" r=".6"/>
      <polygon class="st13" points="4883.5 -828.2 4883.4 -828.5 4882.1 -827.3 4882.4 -827.2 4883.5 -828.2"/>
    </g>
    <circle class="st9" cx="4884" cy="-826.5" r="1.9"/>
  </g>
  <circle class="st13" cx="4875.4" cy="-813.6" r=".5"/>
  <circle class="st13" cx="4875.4" cy="-812.2" r=".5"/>
  <circle class="st13" cx="4875.4" cy="-810.8" r=".5"/>
  <circle class="st13" cx="4876.6" cy="-811.5" r=".5"/>
  <path class="st13" d="M4877.1-814.3c0,.3-.2.5-.5.5s-.5-.2-.5-.5"/>
  <circle class="st13" cx="4876.6" cy="-812.9" r=".5"/>
  <circle class="st13" cx="4876.6" cy="-812.9" r=".5"/>
  <circle class="st13" cx="4877.7" cy="-813.6" r=".5"/>
  <path class="st13" d="M4876.1-810.1c0-.3.2-.5.5-.5s.5.2.5.5"/>
  <circle class="st13" cx="4877.7" cy="-813.6" r=".5"/>
  <circle class="st13" cx="4877.7" cy="-812.2" r=".5"/>
  <circle class="st13" cx="4877.7" cy="-810.8" r=".5"/>
  <circle class="st13" cx="4874.3" cy="-811.5" r=".5"/>
  <path class="st13" d="M4874.8-814.3c0,.3-.2.5-.5.5s-.5-.2-.5-.5"/>
  <circle class="st13" cx="4874.3" cy="-812.9" r=".5"/>
  <path class="st13" d="M4873.8-810.1c0-.3.2-.5.5-.5s.5.2.5.5"/>
  <circle class="st13" cx="4875.4" cy="-813.6" r=".5"/>
  <circle class="st13" cx="4875.4" cy="-812.2" r=".5"/>
  <circle class="st13" cx="4875.4" cy="-810.8" r=".5"/>
  <circle class="st13" cx="4873.2" cy="-813.6" r=".5"/>
  <circle class="st13" cx="4873.2" cy="-812.2" r=".5"/>
  <circle class="st13" cx="4873.2" cy="-810.8" r=".5"/>
  <circle class="st13" cx="4878.8" cy="-811.5" r=".5"/>
  <path class="st13" d="M4879.3-814.3c0,.3-.2.5-.5.5s-.5-.2-.5-.5"/>
  <circle class="st13" cx="4878.8" cy="-812.9" r=".5"/>
  <path class="st13" d="M4878.4-810.1c0-.3.2-.5.5-.5s.5.2.5.5"/>
  <circle class="st13" cx="4880" cy="-813.6" r=".5"/>
  <circle class="st13" cx="4880" cy="-812.2" r=".5"/>
  <circle class="st13" cx="4880" cy="-810.8" r=".5"/>
  <circle class="st13" cx="4881.1" cy="-811.5" r=".5"/>
  <path class="st13" d="M4881.6-814.3c0,.3-.2.5-.5.5s-.5-.2-.5-.5"/>
  <circle class="st13" cx="4881.1" cy="-812.9" r=".5"/>
  <path class="st13" d="M4880.6-810.1c0-.3.2-.5.5-.5s.5.2.5.5"/>
  <circle class="st13" cx="4882.2" cy="-813.6" r=".5"/>
  <circle class="st13" cx="4882.2" cy="-812.2" r=".5"/>
  <circle class="st13" cx="4882.2" cy="-810.8" r=".5"/>
  <circle class="st13" cx="4883.4" cy="-811.5" r=".5"/>
  <path class="st13" d="M4883.8-814.3c0,.3-.2.5-.5.5s-.5-.2-.5-.5"/>
  <circle class="st13" cx="4883.4" cy="-812.9" r=".5"/>
  <path class="st13" d="M4882.9-810.1c0-.3.2-.5.5-.5s.5.2.5.5"/>
  <circle class="st13" cx="4884.5" cy="-813.6" r=".5"/>
  <circle class="st13" cx="4884.5" cy="-812.2" r=".5"/>
  <circle class="st13" cx="4884.5" cy="-810.8" r=".5"/>
  <circle class="st13" cx="4885.6" cy="-811.5" r=".5"/>
  <path class="st13" d="M4886.1-814.3c0,.3-.2.5-.5.5s-.5-.2-.5-.5"/>
  <circle class="st13" cx="4885.6" cy="-812.9" r=".5"/>
  <path class="st13" d="M4885.1-810.1c0-.3.2-.5.5-.5s.5.2.5.5"/>
  <circle class="st13" cx="4886.7" cy="-813.6" r=".5"/>
  <circle class="st13" cx="4886.7" cy="-812.2" r=".5"/>
  <circle class="st13" cx="4886.7" cy="-810.8" r=".5"/>
  <circle class="st13" cx="4887.9" cy="-811.5" r=".5"/>
  <path class="st13" d="M4888.3-814.3c0,.3-.2.5-.5.5s-.5-.2-.5-.5"/>
  <circle class="st13" cx="4887.9" cy="-813" r=".5"/>
  <path class="st13" d="M4887.4-810.1c0-.3.2-.5.5-.5s.5.2.5.5"/>
  <circle class="st13" cx="4889" cy="-813.7" r=".5"/>
  <circle class="st13" cx="4889" cy="-812.3" r=".5"/>
  <circle class="st13" cx="4889" cy="-810.9" r=".5"/>
  <circle class="st13" cx="4890.1" cy="-811.5" r=".5"/>
  <path class="st13" d="M4890.6-814.3c0,.3-.2.5-.5.5s-.5-.2-.5-.5"/>
  <circle class="st13" cx="4890.1" cy="-813" r=".5"/>
  <path class="st13" d="M4889.6-810.1c0-.3.2-.5.5-.5s.5.2.5.5"/>
  <circle class="st13" cx="4891.3" cy="-813.7" r=".5"/>
  <circle class="st13" cx="4891.3" cy="-812.3" r=".5"/>
  <circle class="st13" cx="4891.3" cy="-810.9" r=".5"/>
  <circle class="st13" cx="4892.4" cy="-811.6" r=".5"/>
  <path class="st13" d="M4892.9-814.4c0,.3-.2.5-.5.5s-.5-.2-.5-.5"/>
  <circle class="st13" cx="4892.4" cy="-813" r=".5"/>
  <path class="st13" d="M4891.9-810.2c0-.3.2-.5.5-.5s.5.2.5.5"/>
  <circle class="st13" cx="4893.5" cy="-813.7" r=".5"/>
  <circle class="st13" cx="4893.5" cy="-812.3" r=".5"/>
  <circle class="st13" cx="4893.5" cy="-810.9" r=".5"/>
  <circle class="st13" cx="4894.6" cy="-811.6" r=".5"/>
  <path class="st13" d="M4895.1-814.4c0,.3-.2.5-.5.5s-.5-.2-.5-.5"/>
  <circle class="st13" cx="4894.6" cy="-813" r=".5"/>
  <path class="st13" d="M4894.2-810.2c0-.3.2-.5.5-.5s.5.2.5.5"/>
  <circle class="st13" cx="4895.8" cy="-813.7" r=".5"/>
  <circle class="st13" cx="4895.8" cy="-812.3" r=".5"/>
  <circle class="st13" cx="4895.8" cy="-810.9" r=".5"/>
  <circle class="st13" cx="4896.9" cy="-811.6" r=".5"/>
  <path class="st13" d="M4897.3-814.3c0,.3-.2.5-.5.5s-.5-.2-.5-.5"/>
  <circle class="st13" cx="4896.9" cy="-813" r=".5"/>
  <path class="st13" d="M4896.4-810.2c0-.2.2-.4.5-.4s.5.2.5.4"/>
  <path class="st13" d="M4898-813.2c-.3,0-.5-.2-.5-.5"/>
  <circle class="st13" cx="4898" cy="-812.3" r=".5"/>
  <path class="st13" d="M4897.6-810.9c0-.3.2-.5.5-.5"/>
  <circle class="st13" cx="4883.9" cy="-826.5" r=".5"/>
  <circle class="st13" cx="4884.6" cy="-826" r=".6"/>
  <circle class="st13" cx="4883.4" cy="-827.1" r=".3"/>
  <path class="st3" d="M1950.3-1006h10.4c.7,0,1.3.6,1.3,1.3h-13.1c0-.7.6-1.3,1.3-1.3Z"/>
  <path class="st3" d="M1867.6-969.4h0c0,0,0,0,0,0v11.9c0,0,0,0,0,0h0c-.4,0-.7-.3-.7-.7v-10.6c0-.4.3-.8.8-.8Z"/>
  <path class="st3" d="M1867.6-945.4h0c0,0,0,0,0,0v9.2c0,0,0,0,0,0h0c-.4,0-.7-.3-.7-.7v-7.8c0-.4.3-.8.8-.8Z"/>
  <path class="st3" d="M1867.6-924.5h0c0,0,0,0,0,0v9.2c0,0,0,0,0,0h0c-.4,0-.7-.3-.7-.7v-7.8c0-.4.3-.8.8-.8Z"/>
  <rect class="st3" x="1867.7" y="-1004.6" width="121.3" height="253.7" rx="-248.6" ry="-248.6"/>
  <rect class="st3" x="1869.5" y="-1002.6" width="117.6" height="249.9" rx="-251.4" ry="-251.4"/>
  <circle class="st10" cx="1928.6" cy="-992.1" r="2.2"/>
  <g>
    <circle class="st1" cx="1928.6" cy="-992.2" r="1.2"/>
    <g class="st21">
      <circle class="st20" cx="1927.9" cy="-993" r=".4"/>
      <circle class="st8" cx="1927.8" cy="-993.1" r=".4"/>
      <polygon class="st28" points="1928.3 -993.2 1928.2 -993.5 1927.4 -992.7 1927.6 -992.6 1928.3 -993.2"/>
    </g>
    <circle class="st12" cx="1928.6" cy="-992.2" r="1.2"/>
  </g>
  <rect class="st10" x="1917.8" y="-985.3" width="22.1" height="5.1" rx="-487.5" ry="-487.5"/>
  <rect class="st7" x="1919.5" y="-984" width="18.6" height="2.7" rx="-489.3" ry="-489.3"/>
  <circle class="st17" cx="1923" cy="-983.6" r=".3"/>
  <circle class="st17" cx="1923" cy="-982.7" r=".3"/>
  <circle class="st17" cx="1923" cy="-981.7" r=".3"/>
  <circle class="st17" cx="1923.7" cy="-982.2" r=".3"/>
  <path class="st17" d="M1924-984c0,.2-.1.3-.3.3s-.3-.1-.3-.3"/>
  <circle class="st17" cx="1923.7" cy="-983.1" r=".3"/>
  <circle class="st17" cx="1923.7" cy="-983.1" r=".3"/>
  <circle class="st17" cx="1924.5" cy="-983.6" r=".3"/>
  <path class="st17" d="M1923.4-981.3c0-.2.1-.3.3-.3s.3.1.3.3"/>
  <circle class="st17" cx="1924.5" cy="-983.6" r=".3"/>
  <circle class="st17" cx="1924.5" cy="-982.7" r=".3"/>
  <circle class="st17" cx="1924.5" cy="-981.7" r=".3"/>
  <circle class="st17" cx="1922.2" cy="-982.2" r=".3"/>
  <path class="st17" d="M1922.5-984c0,.2-.1.3-.3.3s-.3-.1-.3-.3"/>
  <circle class="st17" cx="1922.2" cy="-983.1" r=".3"/>
  <path class="st17" d="M1921.9-981.3c0-.2.1-.3.3-.3s.3.1.3.3"/>
  <circle class="st17" cx="1923" cy="-983.6" r=".3"/>
  <circle class="st17" cx="1923" cy="-982.7" r=".3"/>
  <circle class="st17" cx="1923" cy="-981.7" r=".3"/>
  <circle class="st17" cx="1920.7" cy="-982.2" r=".3"/>
  <path class="st17" d="M1921-984c0,.2-.1.3-.3.3s-.3-.1-.3-.3"/>
  <circle class="st17" cx="1920.7" cy="-983.1" r=".3"/>
  <path class="st17" d="M1920.4-981.3c0-.2.1-.3.3-.3s.3.1.3.3"/>
  <circle class="st17" cx="1921.5" cy="-983.6" r=".3"/>
  <circle class="st17" cx="1921.5" cy="-982.7" r=".3"/>
  <circle class="st17" cx="1921.5" cy="-981.7" r=".3"/>
  <path class="st17" d="M1920.2-983.9c.1.1.2.3,0,.4s-.3.2-.4,0"/>
  <circle class="st17" cx="1920" cy="-982.7" r=".3"/>
  <path class="st17" d="M1919.7-981.9c0-.2.3-.2.4-.1s.2.3.1.4"/>
  <circle class="st17" cx="1925.2" cy="-982.2" r=".3"/>
  <path class="st17" d="M1925.5-984c0,.2-.1.3-.3.3s-.3-.1-.3-.3"/>
  <circle class="st17" cx="1925.2" cy="-983.1" r=".3"/>
  <path class="st17" d="M1924.9-981.3c0-.2.1-.3.3-.3s.3.1.3.3"/>
  <circle class="st17" cx="1926" cy="-983.6" r=".3"/>
  <circle class="st17" cx="1926" cy="-982.7" r=".3"/>
  <circle class="st17" cx="1926" cy="-981.7" r=".3"/>
  <circle class="st17" cx="1926.7" cy="-982.2" r=".3"/>
  <path class="st17" d="M1927-984c0,.2-.1.3-.3.3s-.3-.1-.3-.3"/>
  <circle class="st17" cx="1926.7" cy="-983.1" r=".3"/>
  <path class="st17" d="M1926.4-981.3c0-.2.1-.3.3-.3s.3.1.3.3"/>
  <circle class="st17" cx="1927.5" cy="-983.6" r=".3"/>
  <circle class="st17" cx="1927.5" cy="-982.7" r=".3"/>
  <circle class="st17" cx="1927.5" cy="-981.7" r=".3"/>
  <circle class="st17" cx="1928.2" cy="-982.2" r=".3"/>
  <path class="st17" d="M1928.5-984.1c0,.2-.1.3-.3.3s-.3-.1-.3-.3"/>
  <circle class="st17" cx="1928.2" cy="-983.1" r=".3"/>
  <path class="st17" d="M1927.9-981.3c0-.2.1-.3.3-.3s.3.1.3.3"/>
  <circle class="st17" cx="1929" cy="-983.6" r=".3"/>
  <circle class="st17" cx="1929" cy="-982.7" r=".3"/>
  <circle class="st17" cx="1929" cy="-981.8" r=".3"/>
  <circle class="st17" cx="1929.7" cy="-982.2" r=".3"/>
  <path class="st17" d="M1930-984.1c0,.2-.1.3-.3.3s-.3-.1-.3-.3"/>
  <circle class="st17" cx="1929.7" cy="-983.2" r=".3"/>
  <path class="st17" d="M1929.4-981.3c0-.2.1-.3.3-.3s.3.1.3.3"/>
  <circle class="st17" cx="1930.5" cy="-983.6" r=".3"/>
  <circle class="st17" cx="1930.5" cy="-982.7" r=".3"/>
  <circle class="st17" cx="1930.5" cy="-981.8" r=".3"/>
  <circle class="st17" cx="1931.2" cy="-982.2" r=".3"/>
  <path class="st17" d="M1931.5-984.1c0,.2-.1.3-.3.3s-.3-.1-.3-.3"/>
  <circle class="st17" cx="1931.2" cy="-983.2" r=".3"/>
  <path class="st17" d="M1930.9-981.3c0-.2.1-.3.3-.3s.3.1.3.3"/>
  <circle class="st17" cx="1932" cy="-983.6" r=".3"/>
  <circle class="st17" cx="1932" cy="-982.7" r=".3"/>
  <circle class="st17" cx="1932" cy="-981.8" r=".3"/>
  <circle class="st17" cx="1932.7" cy="-982.2" r=".3"/>
  <path class="st17" d="M1933-984.1c0,.2-.1.3-.3.3s-.3-.1-.3-.3"/>
  <circle class="st17" cx="1932.7" cy="-983.2" r=".3"/>
  <path class="st17" d="M1932.4-981.3c0-.2.1-.3.3-.3s.3.1.3.3"/>
  <circle class="st17" cx="1933.5" cy="-983.6" r=".3"/>
  <circle class="st17" cx="1933.5" cy="-982.7" r=".3"/>
  <circle class="st17" cx="1933.5" cy="-981.8" r=".3"/>
  <circle class="st17" cx="1934.2" cy="-982.2" r=".3"/>
  <path class="st17" d="M1934.5-984.1c0,.2-.1.3-.3.3s-.3-.1-.3-.3"/>
  <circle class="st17" cx="1934.2" cy="-983.2" r=".3"/>
  <path class="st17" d="M1933.9-981.3c0-.2.1-.3.3-.3s.3.1.3.3"/>
  <circle class="st17" cx="1935" cy="-983.6" r=".3"/>
  <circle class="st17" cx="1935" cy="-982.7" r=".3"/>
  <circle class="st17" cx="1935" cy="-981.8" r=".3"/>
  <circle class="st17" cx="1935.7" cy="-982.2" r=".3"/>
  <path class="st17" d="M1936-984.1c0,.2-.1.3-.3.3s-.3-.1-.3-.3"/>
  <circle class="st17" cx="1935.7" cy="-983.2" r=".3"/>
  <path class="st17" d="M1935.4-981.3c0-.2.1-.3.3-.3s.3.1.3.3"/>
  <circle class="st17" cx="1936.5" cy="-983.6" r=".3"/>
  <circle class="st17" cx="1936.5" cy="-982.7" r=".3"/>
  <circle class="st17" cx="1936.5" cy="-981.8" r=".3"/>
  <circle class="st17" cx="1937.2" cy="-982.2" r=".3"/>
  <path class="st17" d="M1937.5-984.1c0,.2-.1.3-.3.3s-.3-.1-.3-.3"/>
  <circle class="st17" cx="1937.2" cy="-983.2" r=".3"/>
  <path class="st17" d="M1936.9-981.3c0-.2.1-.3.3-.3s.3.1.3.3"/>
  <path class="st17" d="M1938-983.3c-.2,0-.3-.1-.3-.3"/>
  <circle class="st17" cx="1938" cy="-982.7" r=".3"/>
  <path class="st17" d="M1937.6-981.8c0-.2.1-.3.3-.3"/>
  <circle class="st26" cx="1928.6" cy="-992.2" r=".4"/>
  <circle class="st23" cx="1929" cy="-991.8" r=".4"/>
  <circle class="st24" cx="1928.3" cy="-992.5" r=".2"/>
  <circle class="st3" cx="1928.3" cy="-769.6" r="11.1"/>
  <path class="st3" d="M1879.5-969.4h98.6c2.2,0,4,1.8,4,4v176.2c0,1.9-1.6,3.5-3.5,3.5h-99.5c-1.9,0-3.5-1.6-3.5-3.5v-176.2c0-2.2,1.8-4,4-4Z"/>
  <path class="st3" d="M2411-727h479.8c5.6,0,10.1-2.8,13.7-6.5h-507.2c3.6,3.6,8,6.5,13.6,6.5Z"/>
  <path class="st3" d="M2609.5-748.5h82c0,3.9-3.1,7-7,7h-68c-3.9,0-7-3.1-7-7h0Z"/>
  <g>
    <path class="st3" d="M2112.2-769.5c-1.2,0-2.2-.8-2.2-1.8v-248.8c0-1,1-1.8,2.2-1.8h170c1.2,0,2.2.8,2.2,1.8v248.8c0,1-1,1.8-2.2,1.8h-170Z"/>
    <ellipse class="st3" cx="2197.6" cy="-754.1" rx="11.6" ry="10.5"/>
    <circle class="st3" cx="2197.6" cy="-1034.5" r="2"/>
    <rect class="st3" x="2099.2" y="-1048" width="196.7" height="309.5" rx="-214.5" ry="-214.5"/>
  </g>
  <path class="st3" d="M1926.6-773.5h2.9c1.1,0,2.1.9,2.1,2.1v2.9c0,1.1-.9,2.1-2.1,2.1h-2.9c-1.1,0-2.1-.9-2.1-2.1v-2.9c0-1.1.9-2.1,2.1-2.1Z"/>
  <line class="st3" x1="3029" y1="-796.5" x2="3475" y2="-796.5"/>
  <g>
    <g>
      <path d="M2424.9-282.7v-300.4c0-4.8,3.9-8.7,8.7-8.7h193.9c.5,0,.9-.3,1-.7.4-1.2,1.5-2.1,2.8-2.1h39c1.3,0,2.5.9,2.8,2.1.1.4.5.7,1,.7h183.7c10,0,18.1,8.1,18.1,18.1v288.9c0,1.1-.9,2.1-2.1,2.1h-449.1Z"/>
      <path class="st18" d="M2670.4-594.2c1.1,0,2.2.8,2.5,1.9.2.6.7,1,1.4,1h183.7c9.8,0,17.8,8,17.8,17.8v288.9c0,.9-.8,1.7-1.7,1.7h-448.7v-300c0-4.6,3.7-8.3,8.3-8.3h193.9c.6,0,1.2-.4,1.4-1,.3-1.1,1.4-1.9,2.5-1.9h39M2670.4-595h-39c-1.5,0-2.8,1-3.2,2.4,0,.3-.4.5-.6.5h-193.9c-5,0-9.1,4.1-9.1,9.1v300.8h449.4c1.4,0,2.5-1.1,2.5-2.5v-288.9c0-10.2-8.3-18.5-18.5-18.5h-183.7c-.3,0-.6-.2-.6-.5-.4-1.4-1.7-2.4-3.2-2.4h0Z"/>
    </g>
    <g>
      <path d="M2411-267.4c-10.8,0-19.6-8.8-19.6-19.6s.8-1.8,1.8-1.8h515.6c.9,0,1.6.7,1.6,1.6v.2c0,10.8-8.8,19.5-19.5,19.5h-479.8Z"/>
      <path class="st18" d="M2908.7-288.4c.7,0,1.3.6,1.3,1.3v.2c0,10.6-8.6,19.1-19.1,19.1h-479.8c-10.6,0-19.3-8.6-19.3-19.3s.6-1.4,1.4-1.4h515.6M2908.7-289.1h-515.6c-1.2,0-2.1,1-2.1,2.1,0,11,9,20,20,20h479.8c11,0,19.9-8.9,19.9-19.9v-.2c0-1.1-.9-2-2-2h0Z"/>
    </g>
    <g>
      <path d="M2650.9-575.8c-3.4,0-6.2-2.8-6.2-6.2s2.8-6.2,6.2-6.2,6.2,2.8,6.2,6.2-2.8,6.2-6.2,6.2Z"/>
      <path class="st18" d="M2650.9-587.7c3.2,0,5.8,2.6,5.8,5.8s-2.6,5.8-5.8,5.8-5.8-2.6-5.8-5.8,2.6-5.8,5.8-5.8M2650.9-588.5c-3.6,0-6.6,2.9-6.6,6.6s2.9,6.6,6.6,6.6,6.6-2.9,6.6-6.6-2.9-6.6-6.6-6.6h0Z"/>
    </g>
    <g>
      <path d="M2650.9-579c-1.6,0-2.9-1.3-2.9-2.9s1.3-2.9,2.9-2.9,2.9,1.3,2.9,2.9-1.3,2.9-2.9,2.9Z"/>
      <path class="st18" d="M2650.9-584.5c1.4,0,2.5,1.1,2.5,2.5s-1.1,2.5-2.5,2.5-2.5-1.1-2.5-2.5,1.1-2.5,2.5-2.5M2650.9-585.2c-1.8,0-3.3,1.5-3.3,3.3s1.5,3.3,3.3,3.3,3.3-1.5,3.3-3.3-1.5-3.3-3.3-3.3h0Z"/>
    </g>
    <path class="st11" d="M2864.8-315c0,1.8-1.4,3.3-3.1,3.3h-421.7c-1.7,0-3.1-1.5-3.1-3.3v-250.1c0-1.8,1.4-3.3,3.1-3.3h421.7c1.7,0,3.1,1.5,3.1,3.3v250.1Z"/>
    <path class="st5" d="M2411-267h479.8c5.6,0,10.1-2.8,13.7-6.5h-507.2c3.6,3.6,8,6.5,13.6,6.5Z"/>
    <path class="st5" d="M2609.5-288.5h82c0,3.9-3.1,7-7,7h-68c-3.9,0-7-3.1-7-7h0Z"/>
  </g>
  <g>
    <path class="st5" d="M1950.3-540h10.4c.7,0,1.3.6,1.3,1.3h-13.1c0-.7.6-1.3,1.3-1.3Z"/>
    <path class="st5" d="M1867.6-503.4h0c0,0,0,0,0,0v11.9c0,0,0,0,0,0h0c-.4,0-.7-.3-.7-.7v-10.6c0-.4.3-.8.8-.8Z"/>
    <path class="st5" d="M1867.6-479.4h0c0,0,0,0,0,0v9.2c0,0,0,0,0,0h0c-.4,0-.7-.3-.7-.7v-7.8c0-.4.3-.8.8-.8Z"/>
    <path class="st5" d="M1867.6-458.5h0c0,0,0,0,0,0v9.2c0,0,0,0,0,0h0c-.4,0-.7-.3-.7-.7v-7.8c0-.4.3-.8.8-.8Z"/>
    <rect class="st5" x="1867.7" y="-538.6" width="121.3" height="253.7" rx="-15.6" ry="-15.6"/>
    <rect class="st5" x="1869.5" y="-536.6" width="117.6" height="249.9" rx="-18.4" ry="-18.4"/>
    <circle class="st5" cx="1928.6" cy="-526.1" r="2.2"/>
    <g>
      <circle cx="1928.6" cy="-526.2" r="1.2"/>
      <g class="st25">
        <circle class="st13" cx="1927.9" cy="-527" r=".4"/>
        <circle class="st5" cx="1927.8" cy="-527.1" r=".4"/>
        <polygon class="st13" points="1928.3 -527.2 1928.2 -527.5 1927.4 -526.7 1927.6 -526.6 1928.3 -527.2"/>
      </g>
      <circle class="st9" cx="1928.6" cy="-526.2" r="1.2"/>
    </g>
    <rect class="st5" x="1917.8" y="-519.3" width="22.1" height="5.1" rx="-254.5" ry="-254.5"/>
    <rect class="st5" x="1919.5" y="-518" width="18.6" height="2.7" rx="-256.3" ry="-256.3"/>
    <circle class="st13" cx="1923" cy="-517.6" r=".3"/>
    <circle class="st13" cx="1923" cy="-516.7" r=".3"/>
    <circle class="st13" cx="1923" cy="-515.7" r=".3"/>
    <circle class="st13" cx="1923.7" cy="-516.2" r=".3"/>
    <path class="st13" d="M1924-518c0,.2-.1.3-.3.3s-.3-.1-.3-.3"/>
    <circle class="st13" cx="1923.7" cy="-517.1" r=".3"/>
    <circle class="st13" cx="1923.7" cy="-517.1" r=".3"/>
    <circle class="st13" cx="1924.5" cy="-517.6" r=".3"/>
    <path class="st13" d="M1923.4-515.3c0-.2.1-.3.3-.3s.3.1.3.3"/>
    <circle class="st13" cx="1924.5" cy="-517.6" r=".3"/>
    <circle class="st13" cx="1924.5" cy="-516.7" r=".3"/>
    <circle class="st13" cx="1924.5" cy="-515.7" r=".3"/>
    <circle class="st13" cx="1922.2" cy="-516.2" r=".3"/>
    <path class="st13" d="M1922.5-518c0,.2-.1.3-.3.3s-.3-.1-.3-.3"/>
    <circle class="st13" cx="1922.2" cy="-517.1" r=".3"/>
    <path class="st13" d="M1921.9-515.3c0-.2.1-.3.3-.3s.3.1.3.3"/>
    <circle class="st13" cx="1923" cy="-517.6" r=".3"/>
    <circle class="st13" cx="1923" cy="-516.7" r=".3"/>
    <circle class="st13" cx="1923" cy="-515.7" r=".3"/>
    <circle class="st13" cx="1920.7" cy="-516.2" r=".3"/>
    <path class="st13" d="M1921-518c0,.2-.1.3-.3.3s-.3-.1-.3-.3"/>
    <circle class="st13" cx="1920.7" cy="-517.1" r=".3"/>
    <path class="st13" d="M1920.4-515.3c0-.2.1-.3.3-.3s.3.1.3.3"/>
    <circle class="st13" cx="1921.5" cy="-517.6" r=".3"/>
    <circle class="st13" cx="1921.5" cy="-516.7" r=".3"/>
    <circle class="st13" cx="1921.5" cy="-515.7" r=".3"/>
    <path class="st13" d="M1920.2-517.9c.1.1.2.3,0,.4s-.3.2-.4,0"/>
    <circle class="st13" cx="1920" cy="-516.7" r=".3"/>
    <path class="st13" d="M1919.7-515.9c0-.2.3-.2.4-.1s.2.3.1.4"/>
    <circle class="st13" cx="1925.2" cy="-516.2" r=".3"/>
    <path class="st13" d="M1925.5-518c0,.2-.1.3-.3.3s-.3-.1-.3-.3"/>
    <circle class="st13" cx="1925.2" cy="-517.1" r=".3"/>
    <path class="st13" d="M1924.9-515.3c0-.2.1-.3.3-.3s.3.1.3.3"/>
    <circle class="st13" cx="1926" cy="-517.6" r=".3"/>
    <circle class="st13" cx="1926" cy="-516.7" r=".3"/>
    <circle class="st13" cx="1926" cy="-515.7" r=".3"/>
    <circle class="st13" cx="1926.7" cy="-516.2" r=".3"/>
    <path class="st13" d="M1927-518c0,.2-.1.3-.3.3s-.3-.1-.3-.3"/>
    <circle class="st13" cx="1926.7" cy="-517.1" r=".3"/>
    <path class="st13" d="M1926.4-515.3c0-.2.1-.3.3-.3s.3.1.3.3"/>
    <circle class="st13" cx="1927.5" cy="-517.6" r=".3"/>
    <circle class="st13" cx="1927.5" cy="-516.7" r=".3"/>
    <circle class="st13" cx="1927.5" cy="-515.7" r=".3"/>
    <circle class="st13" cx="1928.2" cy="-516.2" r=".3"/>
    <path class="st13" d="M1928.5-518.1c0,.2-.1.3-.3.3s-.3-.1-.3-.3"/>
    <circle class="st13" cx="1928.2" cy="-517.1" r=".3"/>
    <path class="st13" d="M1927.9-515.3c0-.2.1-.3.3-.3s.3.1.3.3"/>
    <circle class="st13" cx="1929" cy="-517.6" r=".3"/>
    <circle class="st13" cx="1929" cy="-516.7" r=".3"/>
    <circle class="st13" cx="1929" cy="-515.8" r=".3"/>
    <circle class="st13" cx="1929.7" cy="-516.2" r=".3"/>
    <path class="st13" d="M1930-518.1c0,.2-.1.3-.3.3s-.3-.1-.3-.3"/>
    <circle class="st13" cx="1929.7" cy="-517.2" r=".3"/>
    <path class="st13" d="M1929.4-515.3c0-.2.1-.3.3-.3s.3.1.3.3"/>
    <circle class="st13" cx="1930.5" cy="-517.6" r=".3"/>
    <circle class="st13" cx="1930.5" cy="-516.7" r=".3"/>
    <circle class="st13" cx="1930.5" cy="-515.8" r=".3"/>
    <circle class="st13" cx="1931.2" cy="-516.2" r=".3"/>
    <path class="st13" d="M1931.5-518.1c0,.2-.1.3-.3.3s-.3-.1-.3-.3"/>
    <circle class="st13" cx="1931.2" cy="-517.2" r=".3"/>
    <path class="st13" d="M1930.9-515.3c0-.2.1-.3.3-.3s.3.1.3.3"/>
    <circle class="st13" cx="1932" cy="-517.6" r=".3"/>
    <circle class="st13" cx="1932" cy="-516.7" r=".3"/>
    <circle class="st13" cx="1932" cy="-515.8" r=".3"/>
    <circle class="st13" cx="1932.7" cy="-516.2" r=".3"/>
    <path class="st13" d="M1933-518.1c0,.2-.1.3-.3.3s-.3-.1-.3-.3"/>
    <circle class="st13" cx="1932.7" cy="-517.2" r=".3"/>
    <path class="st13" d="M1932.4-515.3c0-.2.1-.3.3-.3s.3.1.3.3"/>
    <circle class="st13" cx="1933.5" cy="-517.6" r=".3"/>
    <circle class="st13" cx="1933.5" cy="-516.7" r=".3"/>
    <circle class="st13" cx="1933.5" cy="-515.8" r=".3"/>
    <circle class="st13" cx="1934.2" cy="-516.2" r=".3"/>
    <path class="st13" d="M1934.5-518.1c0,.2-.1.3-.3.3s-.3-.1-.3-.3"/>
    <circle class="st13" cx="1934.2" cy="-517.2" r=".3"/>
    <path class="st13" d="M1933.9-515.3c0-.2.1-.3.3-.3s.3.1.3.3"/>
    <circle class="st13" cx="1935" cy="-517.6" r=".3"/>
    <circle class="st13" cx="1935" cy="-516.7" r=".3"/>
    <circle class="st13" cx="1935" cy="-515.8" r=".3"/>
    <circle class="st13" cx="1935.7" cy="-516.2" r=".3"/>
    <path class="st13" d="M1936-518.1c0,.2-.1.3-.3.3s-.3-.1-.3-.3"/>
    <circle class="st13" cx="1935.7" cy="-517.2" r=".3"/>
    <path class="st13" d="M1935.4-515.3c0-.2.1-.3.3-.3s.3.1.3.3"/>
    <circle class="st13" cx="1936.5" cy="-517.6" r=".3"/>
    <circle class="st13" cx="1936.5" cy="-516.7" r=".3"/>
    <circle class="st13" cx="1936.5" cy="-515.8" r=".3"/>
    <circle class="st13" cx="1937.2" cy="-516.2" r=".3"/>
    <path class="st13" d="M1937.5-518.1c0,.2-.1.3-.3.3s-.3-.1-.3-.3"/>
    <circle class="st13" cx="1937.2" cy="-517.2" r=".3"/>
    <path class="st13" d="M1936.9-515.3c0-.2.1-.3.3-.3s.3.1.3.3"/>
    <path class="st13" d="M1938-517.3c-.2,0-.3-.1-.3-.3"/>
    <circle class="st13" cx="1938" cy="-516.7" r=".3"/>
    <path class="st13" d="M1937.6-515.8c0-.2.1-.3.3-.3"/>
    <circle class="st13" cx="1928.6" cy="-526.2" r=".4"/>
    <circle class="st13" cx="1929" cy="-525.8" r=".4"/>
    <circle class="st13" cx="1928.3" cy="-526.5" r=".2"/>
    <circle class="st5" cx="1928.3" cy="-303.6" r="11.1"/>
    <path class="st11" d="M1879.5-503.4h98.6c2.2,0,4,1.8,4,4v176.2c0,1.9-1.6,3.5-3.5,3.5h-99.5c-1.9,0-3.5-1.6-3.5-3.5v-176.2c0-2.2,1.8-4,4-4Z"/>
    <path class="st5" d="M1926.6-307.5h2.9c1.1,0,2.1.9,2.1,2.1v2.9c0,1.1-.9,2.1-2.1,2.1h-2.9c-1.1,0-2.1-.9-2.1-2.1v-2.9c0-1.1.9-2.1,2.1-2.1Z"/>
  </g>
  <g>
    <path class="st5" d="M3299.2-289s1.3,14.8,1.7,20.2c.3,5.4,1.3,8.8,4.7,13,3.3,4.2,7.7,6.9,10.7,9.4s5,6-5.3,7.2c-4.8.6-14.5.3-19.3.3h-80c-4.8,0-14.5.3-19.3-.3-10.3-1.3-8.3-4.8-5.3-7.2s7.3-5.1,10.7-9.4,4.3-7.5,4.7-13c.3-5.4,1.7-20.2,1.7-20.2h95.3Z"/>
    <rect class="st5" x="3028.8" y="-595.7" width="445.7" height="306.7" rx="8.9" ry="8.9"/>
    <path class="st5" d="M3259.3-314c-2.4-3.6-4-3.4-6.1-2.1s-1.2-1.7-5.3-.9-8,8.7-1.2,14.4c1.3,1.1,3.5-1.2,4.9-.5,6.4,3.4,8.3-3.9,8.3-3.9-7.1-3.2-.6-6.9-.6-6.9Z"/>
    <path class="st5" d="M3252.3-317.2c.4,0,1,.1,2.4-1.5s.8-2.5-.2-2.5c-1.7,0-3.3,3.8-2.2,4Z"/>
    <rect class="st11" x="3044.3" y="-579.2" width="413.6" height="233.3" rx="-56.3" ry="-56.3"/>
    <line class="st5" x1="3029" y1="-330.5" x2="3475" y2="-330.5"/>
  </g>
  <g>
    <rect class="st13" x="2099.2" y="-582" width="196.7" height="309.5" rx="18.5" ry="18.5"/>
    <path class="st4" d="M2112.2-303.5c-1.2,0-2.2-.8-2.2-1.8v-248.8c0-1,1-1.8,2.2-1.8h170c1.2,0,2.2.8,2.2,1.8v248.8c0,1-1,1.8-2.2,1.8h-170Z"/>
    <ellipse class="st13" cx="2197.6" cy="-288.1" rx="11.6" ry="10.5"/>
    <circle class="st13" cx="2197.6" cy="-568.5" r="2"/>
  </g>
  <g>
    <path class="st18" d="M2416.9,691.3v-300.4c0-4.8,3.9-8.7,8.7-8.7h193.9c.5,0,.9-.3,1-.7.4-1.2,1.5-2.1,2.8-2.1h39c1.3,0,2.5.9,2.8,2.1.1.4.5.7,1,.7h183.7c10,0,18.1,8.1,18.1,18.1v288.9c0,1.1-.9,2.1-2.1,2.1h-449.1Z"/>
    <path d="M2662.4,379.8c1.1,0,2.2.8,2.5,1.9.2.6.7,1,1.4,1h183.7c9.8,0,17.8,8,17.8,17.8v288.9c0,.9-.8,1.7-1.7,1.7h-448.7v-300c0-4.6,3.7-8.3,8.3-8.3h193.9c.6,0,1.2-.4,1.4-1,.3-1.1,1.4-1.9,2.5-1.9h39M2662.4,379h-39c-1.5,0-2.8,1-3.2,2.4,0,.3-.4.5-.6.5h-193.9c-5,0-9.1,4.1-9.1,9.1v300.8h449.4c1.4,0,2.5-1.1,2.5-2.5v-288.9c0-10.2-8.3-18.5-18.5-18.5h-183.7c-.3,0-.6-.2-.6-.5-.4-1.4-1.7-2.4-3.2-2.4h0Z"/>
  </g>
  <g>
    <path class="st18" d="M2403,706.6c-10.8,0-19.6-8.8-19.6-19.6s.8-1.8,1.8-1.8h515.6c.9,0,1.6.7,1.6,1.6v.2c0,10.8-8.8,19.5-19.5,19.5h-479.8Z"/>
    <path d="M2900.7,685.6c.7,0,1.3.6,1.3,1.3v.2c0,10.6-8.6,19.1-19.1,19.1h-479.8c-10.6,0-19.3-8.6-19.3-19.3s.6-1.4,1.4-1.4h515.6M2900.7,684.9h-515.6c-1.2,0-2.1,1-2.1,2.1,0,11,9,20,20,20h479.8c11,0,19.9-8.9,19.9-19.9v-.2c0-1.1-.9-2-2-2h0Z"/>
  </g>
  <g>
    <path class="st18" d="M2642.9,398.2c-3.4,0-6.2-2.8-6.2-6.2s2.8-6.2,6.2-6.2,6.2,2.8,6.2,6.2-2.8,6.2-6.2,6.2Z"/>
    <path d="M2642.9,386.3c3.2,0,5.8,2.6,5.8,5.8s-2.6,5.8-5.8,5.8-5.8-2.6-5.8-5.8,2.6-5.8,5.8-5.8M2642.9,385.5c-3.6,0-6.6,2.9-6.6,6.6s2.9,6.6,6.6,6.6,6.6-2.9,6.6-6.6-2.9-6.6-6.6-6.6h0Z"/>
  </g>
  <g>
    <path class="st18" d="M2642.9,395c-1.6,0-2.9-1.3-2.9-2.9s1.3-2.9,2.9-2.9,2.9,1.3,2.9,2.9-1.3,2.9-2.9,2.9Z"/>
    <path d="M2642.9,389.5c1.4,0,2.5,1.1,2.5,2.5s-1.1,2.5-2.5,2.5-2.5-1.1-2.5-2.5,1.1-2.5,2.5-2.5M2642.9,388.8c-1.8,0-3.3,1.5-3.3,3.3s1.5,3.3,3.3,3.3,3.3-1.5,3.3-3.3-1.5-3.3-3.3-3.3h0Z"/>
  </g>
  <path class="st11" d="M2856.8,659c0,1.8-1.4,3.3-3.1,3.3h-421.7c-1.7,0-3.1-1.5-3.1-3.3v-250.1c0-1.8,1.4-3.3,3.1-3.3h421.7c1.7,0,3.1,1.5,3.1,3.3v250.1Z"/>
  <path class="st14" d="M2403,707h479.8c5.6,0,10.1-2.8,13.7-6.5h-507.2c3.6,3.6,8,6.5,13.6,6.5Z"/>
  <path class="st14" d="M2601.5,685.5h82c0,3.9-3.1,7-7,7h-68c-3.9,0-7-3.1-7-7h0Z"/>
  <path class="st14" d="M1942.3,434h10.4c.7,0,1.3.6,1.3,1.3h-13.1c0-.7.6-1.3,1.3-1.3Z"/>
  <path class="st14" d="M1859.6,470.6h0c0,0,0,0,0,0v11.9c0,0,0,0,0,0h0c-.4,0-.7-.3-.7-.7v-10.6c0-.4.3-.8.8-.8Z"/>
  <path class="st14" d="M1859.6,494.6h0c0,0,0,0,0,0v9.2c0,0,0,0,0,0h0c-.4,0-.7-.3-.7-.7v-7.8c0-.4.3-.8.8-.8Z"/>
  <path class="st14" d="M1859.6,515.5h0c0,0,0,0,0,0v9.2c0,0,0,0,0,0h0c-.4,0-.7-.3-.7-.7v-7.8c0-.4.3-.8.8-.8Z"/>
  <rect class="st14" x="1859.7" y="435.4" width="121.3" height="253.7" rx="21.8" ry="21.8"/>
  <rect class="st14" x="1861.5" y="437.4" width="117.6" height="249.9" rx="21.4" ry="21.4"/>
  <circle class="st14" cx="1920.6" cy="447.9" r="2.2"/>
  <g>
    <circle class="st18" cx="1920.6" cy="447.8" r="1.2"/>
    <g class="st22">
      <circle class="st6" cx="1919.9" cy="447" r=".4"/>
      <circle class="st14" cx="1919.8" cy="446.9" r=".4"/>
      <polygon class="st6" points="1920.3 446.8 1920.2 446.5 1919.4 447.3 1919.6 447.4 1920.3 446.8"/>
    </g>
    <circle class="st3" cx="1920.6" cy="447.8" r="1.2"/>
  </g>
  <rect class="st14" x="1909.8" y="454.7" width="22.1" height="5.1" rx="2.6" ry="2.6"/>
  <rect class="st14" x="1911.5" y="456" width="18.6" height="2.7" rx="1.3" ry="1.3"/>
  <circle class="st6" cx="1915" cy="456.4" r=".3"/>
  <circle class="st6" cx="1915" cy="457.3" r=".3"/>
  <circle class="st6" cx="1915" cy="458.3" r=".3"/>
  <circle class="st6" cx="1915.7" cy="457.8" r=".3"/>
  <path class="st6" d="M1916,456c0,.2-.1.3-.3.3s-.3-.1-.3-.3"/>
  <circle class="st6" cx="1915.7" cy="456.9" r=".3"/>
  <circle class="st6" cx="1915.7" cy="456.9" r=".3"/>
  <circle class="st6" cx="1916.5" cy="456.4" r=".3"/>
  <path class="st6" d="M1915.4,458.7c0-.2.1-.3.3-.3s.3.1.3.3"/>
  <circle class="st6" cx="1916.5" cy="456.4" r=".3"/>
  <circle class="st6" cx="1916.5" cy="457.3" r=".3"/>
  <circle class="st6" cx="1916.5" cy="458.3" r=".3"/>
  <circle class="st6" cx="1914.2" cy="457.8" r=".3"/>
  <path class="st6" d="M1914.5,456c0,.2-.1.3-.3.3s-.3-.1-.3-.3"/>
  <circle class="st6" cx="1914.2" cy="456.9" r=".3"/>
  <path class="st6" d="M1913.9,458.7c0-.2.1-.3.3-.3s.3.1.3.3"/>
  <circle class="st6" cx="1915" cy="456.4" r=".3"/>
  <circle class="st6" cx="1915" cy="457.3" r=".3"/>
  <circle class="st6" cx="1915" cy="458.3" r=".3"/>
  <circle class="st6" cx="1912.7" cy="457.8" r=".3"/>
  <path class="st6" d="M1913,456c0,.2-.1.3-.3.3s-.3-.1-.3-.3"/>
  <circle class="st6" cx="1912.7" cy="456.9" r=".3"/>
  <path class="st6" d="M1912.4,458.7c0-.2.1-.3.3-.3s.3.1.3.3"/>
  <circle class="st6" cx="1913.5" cy="456.4" r=".3"/>
  <circle class="st6" cx="1913.5" cy="457.3" r=".3"/>
  <circle class="st6" cx="1913.5" cy="458.3" r=".3"/>
  <path class="st6" d="M1912.2,456.1c.1.1.2.3,0,.4s-.3.2-.4,0"/>
  <circle class="st6" cx="1912" cy="457.3" r=".3"/>
  <path class="st6" d="M1911.7,458.1c0-.2.3-.2.4-.1s.2.3.1.4"/>
  <circle class="st6" cx="1917.2" cy="457.8" r=".3"/>
  <path class="st6" d="M1917.5,456c0,.2-.1.3-.3.3s-.3-.1-.3-.3"/>
  <circle class="st6" cx="1917.2" cy="456.9" r=".3"/>
  <path class="st6" d="M1916.9,458.7c0-.2.1-.3.3-.3s.3.1.3.3"/>
  <circle class="st6" cx="1918" cy="456.4" r=".3"/>
  <circle class="st6" cx="1918" cy="457.3" r=".3"/>
  <circle class="st6" cx="1918" cy="458.3" r=".3"/>
  <circle class="st6" cx="1918.7" cy="457.8" r=".3"/>
  <path class="st6" d="M1919,456c0,.2-.1.3-.3.3s-.3-.1-.3-.3"/>
  <circle class="st6" cx="1918.7" cy="456.9" r=".3"/>
  <path class="st6" d="M1918.4,458.7c0-.2.1-.3.3-.3s.3.1.3.3"/>
  <circle class="st6" cx="1919.5" cy="456.4" r=".3"/>
  <circle class="st6" cx="1919.5" cy="457.3" r=".3"/>
  <circle class="st6" cx="1919.5" cy="458.3" r=".3"/>
  <circle class="st6" cx="1920.2" cy="457.8" r=".3"/>
  <path class="st6" d="M1920.5,455.9c0,.2-.1.3-.3.3s-.3-.1-.3-.3"/>
  <circle class="st6" cx="1920.2" cy="456.9" r=".3"/>
  <path class="st6" d="M1919.9,458.7c0-.2.1-.3.3-.3s.3.1.3.3"/>
  <circle class="st6" cx="1921" cy="456.4" r=".3"/>
  <circle class="st6" cx="1921" cy="457.3" r=".3"/>
  <circle class="st6" cx="1921" cy="458.2" r=".3"/>
  <circle class="st6" cx="1921.7" cy="457.8" r=".3"/>
  <path class="st6" d="M1922,455.9c0,.2-.1.3-.3.3s-.3-.1-.3-.3"/>
  <circle class="st6" cx="1921.7" cy="456.8" r=".3"/>
  <path class="st6" d="M1921.4,458.7c0-.2.1-.3.3-.3s.3.1.3.3"/>
  <circle class="st6" cx="1922.5" cy="456.4" r=".3"/>
  <circle class="st6" cx="1922.5" cy="457.3" r=".3"/>
  <circle class="st6" cx="1922.5" cy="458.2" r=".3"/>
  <circle class="st6" cx="1923.2" cy="457.8" r=".3"/>
  <path class="st6" d="M1923.5,455.9c0,.2-.1.3-.3.3s-.3-.1-.3-.3"/>
  <circle class="st6" cx="1923.2" cy="456.8" r=".3"/>
  <path class="st6" d="M1922.9,458.7c0-.2.1-.3.3-.3s.3.1.3.3"/>
  <circle class="st6" cx="1924" cy="456.4" r=".3"/>
  <circle class="st6" cx="1924" cy="457.3" r=".3"/>
  <circle class="st6" cx="1924" cy="458.2" r=".3"/>
  <circle class="st6" cx="1924.7" cy="457.8" r=".3"/>
  <path class="st6" d="M1925,455.9c0,.2-.1.3-.3.3s-.3-.1-.3-.3"/>
  <circle class="st6" cx="1924.7" cy="456.8" r=".3"/>
  <path class="st6" d="M1924.4,458.7c0-.2.1-.3.3-.3s.3.1.3.3"/>
  <circle class="st6" cx="1925.5" cy="456.4" r=".3"/>
  <circle class="st6" cx="1925.5" cy="457.3" r=".3"/>
  <circle class="st6" cx="1925.5" cy="458.2" r=".3"/>
  <circle class="st6" cx="1926.2" cy="457.8" r=".3"/>
  <path class="st6" d="M1926.5,455.9c0,.2-.1.3-.3.3s-.3-.1-.3-.3"/>
  <circle class="st6" cx="1926.2" cy="456.8" r=".3"/>
  <path class="st6" d="M1925.9,458.7c0-.2.1-.3.3-.3s.3.1.3.3"/>
  <circle class="st6" cx="1927" cy="456.4" r=".3"/>
  <circle class="st6" cx="1927" cy="457.3" r=".3"/>
  <circle class="st6" cx="1927" cy="458.2" r=".3"/>
  <circle class="st6" cx="1927.7" cy="457.8" r=".3"/>
  <path class="st6" d="M1928,455.9c0,.2-.1.3-.3.3s-.3-.1-.3-.3"/>
  <circle class="st6" cx="1927.7" cy="456.8" r=".3"/>
  <path class="st6" d="M1927.4,458.7c0-.2.1-.3.3-.3s.3.1.3.3"/>
  <circle class="st6" cx="1928.5" cy="456.4" r=".3"/>
  <circle class="st6" cx="1928.5" cy="457.3" r=".3"/>
  <circle class="st6" cx="1928.5" cy="458.2" r=".3"/>
  <circle class="st6" cx="1929.2" cy="457.8" r=".3"/>
  <path class="st6" d="M1929.5,455.9c0,.2-.1.3-.3.3s-.3-.1-.3-.3"/>
  <circle class="st6" cx="1929.2" cy="456.8" r=".3"/>
  <path class="st6" d="M1928.9,458.7c0-.2.1-.3.3-.3s.3.1.3.3"/>
  <path class="st6" d="M1930,456.7c-.2,0-.3-.1-.3-.3"/>
  <circle class="st6" cx="1930" cy="457.3" r=".3"/>
  <path class="st6" d="M1929.6,458.2c0-.2.1-.3.3-.3"/>
  <circle class="st6" cx="1920.6" cy="447.8" r=".4"/>
  <circle class="st6" cx="1921" cy="448.2" r=".4"/>
  <circle class="st6" cx="1920.3" cy="447.5" r=".2"/>
  <circle class="st14" cx="1920.3" cy="670.4" r="11.1"/>
  <path class="st11" d="M1871.5,470.6h98.6c2.2,0,4,1.8,4,4v176.2c0,1.9-1.6,3.5-3.5,3.5h-99.5c-1.9,0-3.5-1.6-3.5-3.5v-176.2c0-2.2,1.8-4,4-4Z"/>
  <path class="st14" d="M1918.6,666.5h2.9c1.1,0,2.1.9,2.1,2.1v2.9c0,1.1-.9,2.1-2.1,2.1h-2.9c-1.1,0-2.1-.9-2.1-2.1v-2.9c0-1.1.9-2.1,2.1-2.1Z"/>
  <path class="st14" d="M3291.2,685s1.3,14.8,1.7,20.2c.3,5.4,1.3,8.8,4.7,13,3.3,4.2,7.7,6.9,10.7,9.4s5,6-5.3,7.2c-4.8.6-14.5.3-19.3.3h-80c-4.8,0-14.5.3-19.3-.3-10.3-1.3-8.3-4.8-5.3-7.2s7.3-5.1,10.7-9.4,4.3-7.5,4.7-13c.3-5.4,1.7-20.2,1.7-20.2h95.3Z"/>
  <rect class="st14" x="3020.8" y="378.3" width="445.7" height="306.7" rx="9" ry="9"/>
  <path class="st14" d="M3251.3,660c-2.4-3.6-4-3.4-6.1-2.1s-1.2-1.7-5.3-.9-8,8.7-1.2,14.4c1.3,1.1,3.5-1.2,4.9-.5,6.4,3.4,8.3-3.9,8.3-3.9-7.1-3.2-.6-6.9-.6-6.9Z"/>
  <path class="st14" d="M3244.3,656.8c.4,0,1,.1,2.4-1.5s.8-2.5-.2-2.5c-1.7,0-3.3,3.8-2.2,4Z"/>
  <rect class="st11" x="3036.3" y="394.8" width="413.6" height="233.3" rx="3" ry="3"/>
  <line class="st14" x1="3021" y1="643.5" x2="3467" y2="643.5"/>
  <rect class="st6" x="2091.2" y="392" width="196.7" height="309.5" rx="22.2" ry="22.2"/>
  <path class="st11" d="M2104.2,670.5c-1.2,0-2.2-.8-2.2-1.8v-248.8c0-1,1-1.8,2.2-1.8h170c1.2,0,2.2.8,2.2,1.8v248.8c0,1-1,1.8-2.2,1.8h-170Z"/>
  <ellipse class="st6" cx="2189.6" cy="685.9" rx="11.6" ry="10.5"/>
  <circle class="st6" cx="2189.6" cy="405.5" r="2"/>
  <polygon class="st15" points="-475.6 -380.6 -538.1 -380.6 -569.3 -326.5 -538.1 -272.4 -475.6 -272.4 -444.4 -326.5 -475.6 -380.6"/>
  <polygon class="st15" points="-475.6 -488.6 -538.1 -488.6 -569.3 -434.5 -538.1 -380.4 -475.6 -380.4 -444.4 -434.5 -475.6 -488.6"/>
  <polygon class="st15" points="-569.3 -434.9 -631.8 -434.9 -663 -380.8 -631.8 -326.7 -569.3 -326.7 -538.1 -380.8 -569.3 -434.9"/>
  <polygon class="st15" points="-288.6 -380.6 -351.1 -380.6 -382.3 -326.5 -351.1 -272.4 -288.6 -272.4 -257.4 -326.5 -288.6 -380.6"/>
  <polygon class="st15" points="-382.3 -326.9 -444.8 -326.9 -476 -272.8 -444.8 -218.7 -382.3 -218.7 -351.1 -272.8 -382.3 -326.9"/>
  <polygon class="st15" points="-288.6 -488.6 -351.1 -488.6 -382.3 -434.5 -351.1 -380.4 -288.6 -380.4 -257.4 -434.5 -288.6 -488.6"/>
  <polygon class="st15" points="-382.3 -434.9 -444.8 -434.9 -476 -380.8 -444.8 -326.7 -382.3 -326.7 -351.1 -380.8 -382.3 -434.9"/>
  <polygon class="st15" points="-101.6 -380.6 -164.1 -380.6 -195.3 -326.5 -164.1 -272.4 -101.6 -272.4 -70.4 -326.5 -101.6 -380.6"/>
  <polygon class="st15" points="-195.3 -326.9 -257.8 -326.9 -289 -272.8 -257.8 -218.7 -195.3 -218.7 -164.1 -272.8 -195.3 -326.9"/>
  <polygon class="st15" points="-101.6 -488.6 -164.1 -488.6 -195.3 -434.5 -164.1 -380.4 -101.6 -380.4 -70.4 -434.5 -101.6 -488.6"/>
  <polygon class="st15" points="-195.3 -434.9 -257.8 -434.9 -289 -380.8 -257.8 -326.7 -195.3 -326.7 -164.1 -380.8 -195.3 -434.9"/>
  <polygon class="st15" points="85.4 -380.6 22.9 -380.6 -8.3 -326.5 22.9 -272.4 85.4 -272.4 116.6 -326.5 85.4 -380.6"/>
  <polygon class="st15" points="-8.3 -326.9 -70.8 -326.9 -102 -272.8 -70.8 -218.7 -8.3 -218.7 22.9 -272.8 -8.3 -326.9"/>
  <polygon class="st15" points="85.4 -488.6 22.9 -488.6 -8.3 -434.5 22.9 -380.4 85.4 -380.4 116.6 -434.5 85.4 -488.6"/>
  <polygon class="st15" points="-8.3 -434.9 -70.8 -434.9 -102 -380.8 -70.8 -326.7 -8.3 -326.7 22.9 -380.8 -8.3 -434.9"/>
  <polygon class="st15" points="272.4 -380.6 209.9 -380.6 178.7 -326.5 209.9 -272.4 272.4 -272.4 303.6 -326.5 272.4 -380.6"/>
  <polygon class="st15" points="178.7 -326.9 116.2 -326.9 85 -272.8 116.2 -218.7 178.7 -218.7 209.9 -272.8 178.7 -326.9"/>
  <polygon class="st15" points="272.4 -488.6 209.9 -488.6 178.7 -434.5 209.9 -380.4 272.4 -380.4 303.6 -434.5 272.4 -488.6"/>
  <polygon class="st15" points="178.7 -434.9 116.2 -434.9 85 -380.8 116.2 -326.7 178.7 -326.7 209.9 -380.8 178.7 -434.9"/>
  <polygon class="st15" points="459.4 -380.6 396.9 -380.6 365.7 -326.5 396.9 -272.4 459.4 -272.4 490.6 -326.5 459.4 -380.6"/>
  <polygon class="st15" points="365.7 -326.9 303.2 -326.9 272 -272.8 303.2 -218.7 365.7 -218.7 396.9 -272.8 365.7 -326.9"/>
  <polygon class="st15" points="459.4 -488.6 396.9 -488.6 365.7 -434.5 396.9 -380.4 459.4 -380.4 490.6 -434.5 459.4 -488.6"/>
  <polygon class="st15" points="365.7 -434.9 303.2 -434.9 272 -380.8 303.2 -326.7 365.7 -326.7 396.9 -380.8 365.7 -434.9"/>
  <polygon class="st15" points="646.4 -380.6 583.9 -380.6 552.7 -326.5 583.9 -272.4 646.4 -272.4 677.6 -326.5 646.4 -380.6"/>
  <polygon class="st15" points="552.7 -326.9 490.2 -326.9 459 -272.8 490.2 -218.7 552.7 -218.7 583.9 -272.8 552.7 -326.9"/>
  <polygon class="st15" points="646.4 -488.6 583.9 -488.6 552.7 -434.5 583.9 -380.4 646.4 -380.4 677.6 -434.5 646.4 -488.6"/>
  <polygon class="st15" points="552.7 -434.9 490.2 -434.9 459 -380.8 490.2 -326.7 552.7 -326.7 583.9 -380.8 552.7 -434.9"/>
  <polygon class="st15" points="833.4 -380.6 770.9 -380.6 739.7 -326.5 770.9 -272.4 833.4 -272.4 864.6 -326.5 833.4 -380.6"/>
  <polygon class="st15" points="739.7 -326.9 677.2 -326.9 646 -272.8 677.2 -218.7 739.7 -218.7 770.9 -272.8 739.7 -326.9"/>
  <polygon class="st15" points="833.4 -488.6 770.9 -488.6 739.7 -434.5 770.9 -380.4 833.4 -380.4 864.6 -434.5 833.4 -488.6"/>
  <polygon class="st15" points="739.7 -434.9 677.2 -434.9 646 -380.8 677.2 -326.7 739.7 -326.7 770.9 -380.8 739.7 -434.9"/>
  <polygon class="st15" points="1020.4 -380.6 957.9 -380.6 926.7 -326.5 957.9 -272.4 1020.4 -272.4 1051.6 -326.5 1020.4 -380.6"/>
  <polygon class="st15" points="926.7 -326.9 864.2 -326.9 833 -272.8 864.2 -218.7 926.7 -218.7 957.9 -272.8 926.7 -326.9"/>
  <polygon class="st15" points="1020.4 -488.6 957.9 -488.6 926.7 -434.5 957.9 -380.4 1020.4 -380.4 1051.6 -434.5 1020.4 -488.6"/>
  <polygon class="st15" points="926.7 -434.9 864.2 -434.9 833 -380.8 864.2 -326.7 926.7 -326.7 957.9 -380.8 926.7 -434.9"/>
  <polygon class="st15" points="1208.4 -380.6 1145.9 -380.6 1114.7 -326.5 1145.9 -272.4 1208.4 -272.4 1239.6 -326.5 1208.4 -380.6"/>
  <polygon class="st15" points="1114.7 -326.9 1052.2 -326.9 1021 -272.8 1052.2 -218.7 1114.7 -218.7 1145.9 -272.8 1114.7 -326.9"/>
  <polygon class="st15" points="1208.4 -488.6 1145.9 -488.6 1114.7 -434.5 1145.9 -380.4 1208.4 -380.4 1239.6 -434.5 1208.4 -488.6"/>
  <polygon class="st15" points="1114.7 -434.9 1052.2 -434.9 1021 -380.8 1052.2 -326.7 1114.7 -326.7 1145.9 -380.8 1114.7 -434.9"/>
  <polygon class="st15" points="-475.6 -596.6 -538.1 -596.6 -569.3 -542.5 -538.1 -488.4 -475.6 -488.4 -444.4 -542.5 -475.6 -596.6"/>
  <polygon class="st15" points="-569.3 -542.9 -631.8 -542.9 -663 -488.8 -631.8 -434.7 -569.3 -434.7 -538.1 -488.8 -569.3 -542.9"/>
  <polygon class="st15" points="-475.6 -704.6 -538.1 -704.6 -569.3 -650.5 -538.1 -596.4 -475.6 -596.4 -444.4 -650.5 -475.6 -704.6"/>
  <polygon class="st15" points="-569.3 -650.9 -631.8 -650.9 -663 -596.8 -631.8 -542.7 -569.3 -542.7 -538.1 -596.8 -569.3 -650.9"/>
  <polygon class="st15" points="-288.6 -596.6 -351.1 -596.6 -382.3 -542.5 -351.1 -488.4 -288.6 -488.4 -257.4 -542.5 -288.6 -596.6"/>
  <polygon class="st15" points="-382.3 -542.9 -444.8 -542.9 -476 -488.8 -444.8 -434.7 -382.3 -434.7 -351.1 -488.8 -382.3 -542.9"/>
  <polygon class="st15" points="-288.6 -704.6 -351.1 -704.6 -382.3 -650.5 -351.1 -596.4 -288.6 -596.4 -257.4 -650.5 -288.6 -704.6"/>
  <polygon class="st15" points="-382.3 -650.9 -444.8 -650.9 -476 -596.8 -444.8 -542.7 -382.3 -542.7 -351.1 -596.8 -382.3 -650.9"/>
  <polygon class="st15" points="-101.6 -596.6 -164.1 -596.6 -195.3 -542.5 -164.1 -488.4 -101.6 -488.4 -70.4 -542.5 -101.6 -596.6"/>
  <polygon class="st15" points="-195.3 -542.9 -257.8 -542.9 -289 -488.8 -257.8 -434.7 -195.3 -434.7 -164.1 -488.8 -195.3 -542.9"/>
  <polygon class="st15" points="-101.6 -704.6 -164.1 -704.6 -195.3 -650.5 -164.1 -596.4 -101.6 -596.4 -70.4 -650.5 -101.6 -704.6"/>
  <polygon class="st15" points="-195.3 -650.9 -257.8 -650.9 -289 -596.8 -257.8 -542.7 -195.3 -542.7 -164.1 -596.8 -195.3 -650.9"/>
  <polygon class="st15" points="85.4 -596.6 22.9 -596.6 -8.3 -542.5 22.9 -488.4 85.4 -488.4 116.6 -542.5 85.4 -596.6"/>
  <polygon class="st15" points="-8.3 -542.9 -70.8 -542.9 -102 -488.8 -70.8 -434.7 -8.3 -434.7 22.9 -488.8 -8.3 -542.9"/>
  <polygon class="st15" points="85.4 -704.6 22.9 -704.6 -8.3 -650.5 22.9 -596.4 85.4 -596.4 116.6 -650.5 85.4 -704.6"/>
  <polygon class="st15" points="-8.3 -650.9 -70.8 -650.9 -102 -596.8 -70.8 -542.7 -8.3 -542.7 22.9 -596.8 -8.3 -650.9"/>
  <polygon class="st15" points="272.4 -596.6 209.9 -596.6 178.7 -542.5 209.9 -488.4 272.4 -488.4 303.6 -542.5 272.4 -596.6"/>
  <polygon class="st15" points="178.7 -542.9 116.2 -542.9 85 -488.8 116.2 -434.7 178.7 -434.7 209.9 -488.8 178.7 -542.9"/>
  <polygon class="st15" points="272.4 -704.6 209.9 -704.6 178.7 -650.5 209.9 -596.4 272.4 -596.4 303.6 -650.5 272.4 -704.6"/>
  <polygon class="st15" points="178.7 -650.9 116.2 -650.9 85 -596.8 116.2 -542.7 178.7 -542.7 209.9 -596.8 178.7 -650.9"/>
  <polygon class="st15" points="459.4 -596.6 396.9 -596.6 365.7 -542.5 396.9 -488.4 459.4 -488.4 490.6 -542.5 459.4 -596.6"/>
  <polygon class="st15" points="365.7 -542.9 303.2 -542.9 272 -488.8 303.2 -434.7 365.7 -434.7 396.9 -488.8 365.7 -542.9"/>
  <polygon class="st15" points="459.4 -704.6 396.9 -704.6 365.7 -650.5 396.9 -596.4 459.4 -596.4 490.6 -650.5 459.4 -704.6"/>
  <polygon class="st15" points="365.7 -650.9 303.2 -650.9 272 -596.8 303.2 -542.7 365.7 -542.7 396.9 -596.8 365.7 -650.9"/>
  <polygon class="st15" points="646.4 -596.6 583.9 -596.6 552.7 -542.5 583.9 -488.4 646.4 -488.4 677.6 -542.5 646.4 -596.6"/>
  <polygon class="st15" points="552.7 -542.9 490.2 -542.9 459 -488.8 490.2 -434.7 552.7 -434.7 583.9 -488.8 552.7 -542.9"/>
  <polygon class="st15" points="646.4 -704.6 583.9 -704.6 552.7 -650.5 583.9 -596.4 646.4 -596.4 677.6 -650.5 646.4 -704.6"/>
  <polygon class="st15" points="552.7 -650.9 490.2 -650.9 459 -596.8 490.2 -542.7 552.7 -542.7 583.9 -596.8 552.7 -650.9"/>
  <polygon class="st15" points="833.4 -596.6 770.9 -596.6 739.7 -542.5 770.9 -488.4 833.4 -488.4 864.6 -542.5 833.4 -596.6"/>
  <polygon class="st15" points="739.7 -542.9 677.2 -542.9 646 -488.8 677.2 -434.7 739.7 -434.7 770.9 -488.8 739.7 -542.9"/>
  <polygon class="st15" points="833.4 -704.6 770.9 -704.6 739.7 -650.5 770.9 -596.4 833.4 -596.4 864.6 -650.5 833.4 -704.6"/>
  <polygon class="st15" points="739.7 -650.9 677.2 -650.9 646 -596.8 677.2 -542.7 739.7 -542.7 770.9 -596.8 739.7 -650.9"/>
  <polygon class="st15" points="1020.4 -596.6 957.9 -596.6 926.7 -542.5 957.9 -488.4 1020.4 -488.4 1051.6 -542.5 1020.4 -596.6"/>
  <polygon class="st15" points="926.7 -542.9 864.2 -542.9 833 -488.8 864.2 -434.7 926.7 -434.7 957.9 -488.8 926.7 -542.9"/>
  <polygon class="st15" points="1020.4 -704.6 957.9 -704.6 926.7 -650.5 957.9 -596.4 1020.4 -596.4 1051.6 -650.5 1020.4 -704.6"/>
  <polygon class="st15" points="926.7 -650.9 864.2 -650.9 833 -596.8 864.2 -542.7 926.7 -542.7 957.9 -596.8 926.7 -650.9"/>
  <polygon class="st15" points="1208.4 -596.6 1145.9 -596.6 1114.7 -542.5 1145.9 -488.4 1208.4 -488.4 1239.6 -542.5 1208.4 -596.6"/>
  <polygon class="st15" points="1114.7 -542.9 1052.2 -542.9 1021 -488.8 1052.2 -434.7 1114.7 -434.7 1145.9 -488.8 1114.7 -542.9"/>
  <polygon class="st15" points="1208.4 -704.6 1145.9 -704.6 1114.7 -650.5 1145.9 -596.4 1208.4 -596.4 1239.6 -650.5 1208.4 -704.6"/>
  <polygon class="st15" points="1114.7 -650.9 1052.2 -650.9 1021 -596.8 1052.2 -542.7 1114.7 -542.7 1145.9 -596.8 1114.7 -650.9"/>
  <polygon class="st15" points="-475.6 -812.6 -538.1 -812.6 -569.3 -758.5 -538.1 -704.4 -475.6 -704.4 -444.4 -758.5 -475.6 -812.6"/>
  <polygon class="st15" points="-569.3 -758.9 -631.8 -758.9 -663 -704.8 -631.8 -650.7 -569.3 -650.7 -538.1 -704.8 -569.3 -758.9"/>
  <polygon class="st15" points="-475.6 -920.6 -538.1 -920.6 -569.3 -866.5 -538.1 -812.4 -475.6 -812.4 -444.4 -866.5 -475.6 -920.6"/>
  <polygon class="st15" points="-569.3 -866.9 -631.8 -866.9 -663 -812.8 -631.8 -758.7 -569.3 -758.7 -538.1 -812.8 -569.3 -866.9"/>
  <polyline class="st15" points="-663.3 -812.7 -632.1 -866.8 -663.3 -920.9"/>
  <path class="st15" d="M-757-866.8"/>
  <polygon class="st15" points="-288.6 -812.6 -351.1 -812.6 -382.3 -758.5 -351.1 -704.4 -288.6 -704.4 -257.4 -758.5 -288.6 -812.6"/>
  <polygon class="st15" points="-382.3 -758.9 -444.8 -758.9 -476 -704.8 -444.8 -650.7 -382.3 -650.7 -351.1 -704.8 -382.3 -758.9"/>
  <polygon class="st15" points="-288.6 -920.6 -351.1 -920.6 -382.3 -866.5 -351.1 -812.4 -288.6 -812.4 -257.4 -866.5 -288.6 -920.6"/>
  <polygon class="st15" points="-382.3 -866.9 -444.8 -866.9 -476 -812.8 -444.8 -758.7 -382.3 -758.7 -351.1 -812.8 -382.3 -866.9"/>
  <polygon class="st15" points="-101.6 -812.6 -164.1 -812.6 -195.3 -758.5 -164.1 -704.4 -101.6 -704.4 -70.4 -758.5 -101.6 -812.6"/>
  <polygon class="st15" points="-195.3 -758.9 -257.8 -758.9 -289 -704.8 -257.8 -650.7 -195.3 -650.7 -164.1 -704.8 -195.3 -758.9"/>
  <polygon class="st15" points="-101.6 -920.6 -164.1 -920.6 -195.3 -866.5 -164.1 -812.4 -101.6 -812.4 -70.4 -866.5 -101.6 -920.6"/>
  <polygon class="st15" points="-195.3 -866.9 -257.8 -866.9 -289 -812.8 -257.8 -758.7 -195.3 -758.7 -164.1 -812.8 -195.3 -866.9"/>
  <polygon class="st15" points="85.4 -812.6 22.9 -812.6 -8.3 -758.5 22.9 -704.4 85.4 -704.4 116.6 -758.5 85.4 -812.6"/>
  <polygon class="st15" points="-8.3 -758.9 -70.8 -758.9 -102 -704.8 -70.8 -650.7 -8.3 -650.7 22.9 -704.8 -8.3 -758.9"/>
  <polygon class="st15" points="85.4 -920.6 22.9 -920.6 -8.3 -866.5 22.9 -812.4 85.4 -812.4 116.6 -866.5 85.4 -920.6"/>
  <polygon class="st15" points="-8.3 -866.9 -70.8 -866.9 -102 -812.8 -70.8 -758.7 -8.3 -758.7 22.9 -812.8 -8.3 -866.9"/>
  <polygon class="st15" points="272.4 -812.6 209.9 -812.6 178.7 -758.5 209.9 -704.4 272.4 -704.4 303.6 -758.5 272.4 -812.6"/>
  <polygon class="st15" points="178.7 -758.9 116.2 -758.9 85 -704.8 116.2 -650.7 178.7 -650.7 209.9 -704.8 178.7 -758.9"/>
  <polygon class="st15" points="272.4 -920.6 209.9 -920.6 178.7 -866.5 209.9 -812.4 272.4 -812.4 303.6 -866.5 272.4 -920.6"/>
  <polygon class="st15" points="178.7 -866.9 116.2 -866.9 85 -812.8 116.2 -758.7 178.7 -758.7 209.9 -812.8 178.7 -866.9"/>
  <polygon class="st15" points="459.4 -812.6 396.9 -812.6 365.7 -758.5 396.9 -704.4 459.4 -704.4 490.6 -758.5 459.4 -812.6"/>
  <polygon class="st15" points="365.7 -758.9 303.2 -758.9 272 -704.8 303.2 -650.7 365.7 -650.7 396.9 -704.8 365.7 -758.9"/>
  <polygon class="st15" points="459.4 -920.6 396.9 -920.6 365.7 -866.5 396.9 -812.4 459.4 -812.4 490.6 -866.5 459.4 -920.6"/>
  <polygon class="st15" points="365.7 -866.9 303.2 -866.9 272 -812.8 303.2 -758.7 365.7 -758.7 396.9 -812.8 365.7 -866.9"/>
  <polygon class="st15" points="646.4 -812.6 583.9 -812.6 552.7 -758.5 583.9 -704.4 646.4 -704.4 677.6 -758.5 646.4 -812.6"/>
  <polygon class="st15" points="552.7 -758.9 490.2 -758.9 459 -704.8 490.2 -650.7 552.7 -650.7 583.9 -704.8 552.7 -758.9"/>
  <polygon class="st15" points="646.4 -920.6 583.9 -920.6 552.7 -866.5 583.9 -812.4 646.4 -812.4 677.6 -866.5 646.4 -920.6"/>
  <polygon class="st15" points="552.7 -866.9 490.2 -866.9 459 -812.8 490.2 -758.7 552.7 -758.7 583.9 -812.8 552.7 -866.9"/>
  <polygon class="st15" points="833.4 -812.6 770.9 -812.6 739.7 -758.5 770.9 -704.4 833.4 -704.4 864.6 -758.5 833.4 -812.6"/>
  <polygon class="st15" points="739.7 -758.9 677.2 -758.9 646 -704.8 677.2 -650.7 739.7 -650.7 770.9 -704.8 739.7 -758.9"/>
  <polygon class="st15" points="833.4 -920.6 770.9 -920.6 739.7 -866.5 770.9 -812.4 833.4 -812.4 864.6 -866.5 833.4 -920.6"/>
  <polygon class="st15" points="739.7 -866.9 677.2 -866.9 646 -812.8 677.2 -758.7 739.7 -758.7 770.9 -812.8 739.7 -866.9"/>
  <polygon class="st15" points="1020.4 -812.6 957.9 -812.6 926.7 -758.5 957.9 -704.4 1020.4 -704.4 1051.6 -758.5 1020.4 -812.6"/>
  <polygon class="st15" points="926.7 -758.9 864.2 -758.9 833 -704.8 864.2 -650.7 926.7 -650.7 957.9 -704.8 926.7 -758.9"/>
  <polygon class="st15" points="1020.4 -920.6 957.9 -920.6 926.7 -866.5 957.9 -812.4 1020.4 -812.4 1051.6 -866.5 1020.4 -920.6"/>
  <polygon class="st15" points="926.7 -866.9 864.2 -866.9 833 -812.8 864.2 -758.7 926.7 -758.7 957.9 -812.8 926.7 -866.9"/>
  <polygon class="st15" points="1208.4 -812.6 1145.9 -812.6 1114.7 -758.5 1145.9 -704.4 1208.4 -704.4 1239.6 -758.5 1208.4 -812.6"/>
  <polygon class="st15" points="1114.7 -758.9 1052.2 -758.9 1021 -704.8 1052.2 -650.7 1114.7 -650.7 1145.9 -704.8 1114.7 -758.9"/>
  <polygon class="st15" points="1208.4 -920.6 1145.9 -920.6 1114.7 -866.5 1145.9 -812.4 1208.4 -812.4 1239.6 -866.5 1208.4 -920.6"/>
  <polygon class="st15" points="1114.7 -866.9 1052.2 -866.9 1021 -812.8 1052.2 -758.7 1114.7 -758.7 1145.9 -812.8 1114.7 -866.9"/>
  <rect class="st19" x="-663" y="-332.5" width="1902" height="164"/>
  <g>
    <g>
      <path d="M622.9-164.7v-300.4c0-4.8,3.9-8.7,8.7-8.7h193.9c.5,0,.9-.3,1-.7.4-1.2,1.5-2.1,2.8-2.1h39c1.3,0,2.5.9,2.8,2.1.1.4.5.7,1,.7h183.7c10,0,18.1,8.1,18.1,18.1V-166.8c0,1.1-.9,2.1-2.1,2.1h-449.1Z"/>
      <path class="st18" d="M868.4-476.2c1.1,0,2.2.8,2.5,1.9.2.6.7,1,1.4,1h183.7c9.8,0,17.8,8,17.8,17.8V-166.8c0,.9-.8,1.7-1.7,1.7h-448.7v-300c0-4.6,3.7-8.3,8.3-8.3h193.9c.6,0,1.2-.4,1.4-1,.3-1.1,1.4-1.9,2.5-1.9h39M868.4-477h-39c-1.5,0-2.8,1-3.2,2.4,0,.3-.4.5-.6.5h-193.9c-5,0-9.1,4.1-9.1,9.1V-164.3h449.4c1.4,0,2.5-1.1,2.5-2.5v-288.9c0-10.2-8.3-18.5-18.5-18.5h-183.7c-.3,0-.6-.2-.6-.5-.4-1.4-1.7-2.4-3.2-2.4h0Z"/>
    </g>
    <g>
      <path d="M609-149.4c-10.8,0-19.6-8.8-19.6-19.6s.8-1.8,1.8-1.8h515.6c.9,0,1.6.7,1.6,1.6v.2c0,10.8-8.8,19.5-19.5,19.5h-479.8Z"/>
      <path class="st18" d="M1106.7-170.4c.7,0,1.3.6,1.3,1.3v.2c0,10.6-8.6,19.1-19.1,19.1h-479.8c-10.6,0-19.3-8.6-19.3-19.3s.6-1.4,1.4-1.4h515.6M1106.7-171.1h-515.6c-1.2,0-2.1,1-2.1,2.1,0,11,9,20,20,20h479.8c11,0,19.9-8.9,19.9-19.9v-.2c0-1.1-.9-2-2-2h0Z"/>
    </g>
    <g>
      <path d="M848.9-457.8c-3.4,0-6.2-2.8-6.2-6.2s2.8-6.2,6.2-6.2,6.2,2.8,6.2,6.2-2.8,6.2-6.2,6.2Z"/>
      <path class="st18" d="M848.9-469.7c3.2,0,5.8,2.6,5.8,5.8s-2.6,5.8-5.8,5.8-5.8-2.6-5.8-5.8,2.6-5.8,5.8-5.8M848.9-470.5c-3.6,0-6.6,2.9-6.6,6.6s2.9,6.6,6.6,6.6,6.6-2.9,6.6-6.6-2.9-6.6-6.6-6.6h0Z"/>
    </g>
    <g>
      <path d="M848.9-461c-1.6,0-2.9-1.3-2.9-2.9s1.3-2.9,2.9-2.9,2.9,1.3,2.9,2.9-1.3,2.9-2.9,2.9Z"/>
      <path class="st18" d="M848.9-466.5c1.4,0,2.5,1.1,2.5,2.5s-1.1,2.5-2.5,2.5-2.5-1.1-2.5-2.5,1.1-2.5,2.5-2.5M848.9-467.2c-1.8,0-3.3,1.5-3.3,3.3s1.5,3.3,3.3,3.3,3.3-1.5,3.3-3.3-1.5-3.3-3.3-3.3h0Z"/>
    </g>
    <path class="st11" d="M1062.8-197c0,1.8-1.4,3.3-3.1,3.3h-421.7c-1.7,0-3.1-1.5-3.1-3.3v-250.1c0-1.8,1.4-3.3,3.1-3.3h421.7c1.7,0,3.1,1.5,3.1,3.3v250.1Z"/>
    <path class="st5" d="M609-149h479.8c5.6,0,10.1-2.8,13.7-6.5h-507.2c3.6,3.6,8,6.5,13.6,6.5Z"/>
    <path class="st5" d="M807.5-170.5h82c0,3.9-3.1,7-7,7h-68c-3.9,0-7-3.1-7-7h0Z"/>
  </g>
  <g>
    <path class="st5" d="M-448.7-404h10.4c.7,0,1.3.6,1.3,1.3h-13.1c0-.7.6-1.3,1.3-1.3Z"/>
    <path class="st5" d="M-531.4-367.4h0c0,0,0,0,0,0v11.9c0,0,0,0,0,0h0c-.4,0-.7-.3-.7-.7v-10.6c0-.4.3-.8.8-.8Z"/>
    <path class="st5" d="M-531.4-343.4h0c0,0,0,0,0,0v9.2c0,0,0,0,0,0h0c-.4,0-.7-.3-.7-.7v-7.8c0-.4.3-.8.8-.8Z"/>
    <path class="st5" d="M-531.4-322.5h0c0,0,0,0,0,0v9.2c0,0,0,0,0,0h0c-.4,0-.7-.3-.7-.7v-7.8c0-.4.3-.8.8-.8Z"/>
    <rect class="st5" x="-531.3" y="-402.6" width="121.3" height="253.7" rx="-144.3" ry="-144.3"/>
    <rect class="st5" x="-529.5" y="-400.6" width="117.6" height="249.9" rx="-147.2" ry="-147.2"/>
    <circle class="st5" cx="-470.4" cy="-390.1" r="2.2"/>
    <g>
      <circle cx="-470.4" cy="-390.2" r="1.2"/>
      <g class="st0">
        <circle class="st13" cx="-471.1" cy="-391" r=".4"/>
        <circle class="st5" cx="-471.2" cy="-391.1" r=".4"/>
        <polygon class="st13" points="-470.7 -391.2 -470.8 -391.5 -471.6 -390.7 -471.4 -390.6 -470.7 -391.2"/>
      </g>
      <circle class="st9" cx="-470.4" cy="-390.2" r="1.2"/>
    </g>
    <rect class="st5" x="-481.2" y="-383.3" width="22.1" height="5.1" rx="-218.5" ry="-218.5"/>
    <rect class="st5" x="-479.5" y="-382" width="18.6" height="2.7" rx="-221.1" ry="-221.1"/>
    <circle class="st13" cx="-476" cy="-381.6" r=".3"/>
    <circle class="st13" cx="-476" cy="-380.7" r=".3"/>
    <circle class="st13" cx="-476" cy="-379.7" r=".3"/>
    <circle class="st13" cx="-475.3" cy="-380.2" r=".3"/>
    <path class="st13" d="M-475-382c0,.2-.1.3-.3.3s-.3-.1-.3-.3"/>
    <circle class="st13" cx="-475.3" cy="-381.1" r=".3"/>
    <circle class="st13" cx="-475.3" cy="-381.1" r=".3"/>
    <circle class="st13" cx="-474.5" cy="-381.6" r=".3"/>
    <path class="st13" d="M-475.6-379.3c0-.2.1-.3.3-.3s.3.1.3.3"/>
    <circle class="st13" cx="-474.5" cy="-381.6" r=".3"/>
    <circle class="st13" cx="-474.5" cy="-380.7" r=".3"/>
    <circle class="st13" cx="-474.5" cy="-379.7" r=".3"/>
    <circle class="st13" cx="-476.8" cy="-380.2" r=".3"/>
    <path class="st13" d="M-476.5-382c0,.2-.1.3-.3.3s-.3-.1-.3-.3"/>
    <circle class="st13" cx="-476.8" cy="-381.1" r=".3"/>
    <path class="st13" d="M-477.1-379.3c0-.2.1-.3.3-.3s.3.1.3.3"/>
    <circle class="st13" cx="-476" cy="-381.6" r=".3"/>
    <circle class="st13" cx="-476" cy="-380.7" r=".3"/>
    <circle class="st13" cx="-476" cy="-379.7" r=".3"/>
    <circle class="st13" cx="-478.3" cy="-380.2" r=".3"/>
    <path class="st13" d="M-478-382c0,.2-.1.3-.3.3s-.3-.1-.3-.3"/>
    <circle class="st13" cx="-478.3" cy="-381.1" r=".3"/>
    <path class="st13" d="M-478.6-379.3c0-.2.1-.3.3-.3s.3.1.3.3"/>
    <circle class="st13" cx="-477.5" cy="-381.6" r=".3"/>
    <circle class="st13" cx="-477.5" cy="-380.7" r=".3"/>
    <circle class="st13" cx="-477.5" cy="-379.7" r=".3"/>
    <path class="st13" d="M-478.8-381.9c.1.1.2.3,0,.4s-.3.2-.4,0"/>
    <circle class="st13" cx="-479" cy="-380.7" r=".3"/>
    <path class="st13" d="M-479.3-379.9c0-.2.3-.2.4-.1s.2.3.1.4"/>
    <circle class="st13" cx="-473.8" cy="-380.2" r=".3"/>
    <path class="st13" d="M-473.5-382c0,.2-.1.3-.3.3s-.3-.1-.3-.3"/>
    <circle class="st13" cx="-473.8" cy="-381.1" r=".3"/>
    <path class="st13" d="M-474.1-379.3c0-.2.1-.3.3-.3s.3.1.3.3"/>
    <circle class="st13" cx="-473" cy="-381.6" r=".3"/>
    <circle class="st13" cx="-473" cy="-380.7" r=".3"/>
    <circle class="st13" cx="-473" cy="-379.7" r=".3"/>
    <circle class="st13" cx="-472.3" cy="-380.2" r=".3"/>
    <path class="st13" d="M-472-382c0,.2-.1.3-.3.3s-.3-.1-.3-.3"/>
    <circle class="st13" cx="-472.3" cy="-381.1" r=".3"/>
    <path class="st13" d="M-472.6-379.3c0-.2.1-.3.3-.3s.3.1.3.3"/>
    <circle class="st13" cx="-471.5" cy="-381.6" r=".3"/>
    <circle class="st13" cx="-471.5" cy="-380.7" r=".3"/>
    <circle class="st13" cx="-471.5" cy="-379.7" r=".3"/>
    <circle class="st13" cx="-470.8" cy="-380.2" r=".3"/>
    <path class="st13" d="M-470.5-382.1c0,.2-.1.3-.3.3s-.3-.1-.3-.3"/>
    <circle class="st13" cx="-470.8" cy="-381.1" r=".3"/>
    <path class="st13" d="M-471.1-379.3c0-.2.1-.3.3-.3s.3.1.3.3"/>
    <circle class="st13" cx="-470" cy="-381.6" r=".3"/>
    <circle class="st13" cx="-470" cy="-380.7" r=".3"/>
    <circle class="st13" cx="-470" cy="-379.8" r=".3"/>
    <circle class="st13" cx="-469.3" cy="-380.2" r=".3"/>
    <path class="st13" d="M-469-382.1c0,.2-.1.3-.3.3s-.3-.1-.3-.3"/>
    <circle class="st13" cx="-469.3" cy="-381.2" r=".3"/>
    <path class="st13" d="M-469.6-379.3c0-.2.1-.3.3-.3s.3.1.3.3"/>
    <circle class="st13" cx="-468.5" cy="-381.6" r=".3"/>
    <circle class="st13" cx="-468.5" cy="-380.7" r=".3"/>
    <circle class="st13" cx="-468.5" cy="-379.8" r=".3"/>
    <circle class="st13" cx="-467.8" cy="-380.2" r=".3"/>
    <path class="st13" d="M-467.5-382.1c0,.2-.1.3-.3.3s-.3-.1-.3-.3"/>
    <circle class="st13" cx="-467.8" cy="-381.2" r=".3"/>
    <path class="st13" d="M-468.1-379.3c0-.2.1-.3.3-.3s.3.1.3.3"/>
    <circle class="st13" cx="-467" cy="-381.6" r=".3"/>
    <circle class="st13" cx="-467" cy="-380.7" r=".3"/>
    <circle class="st13" cx="-467" cy="-379.8" r=".3"/>
    <circle class="st13" cx="-466.3" cy="-380.2" r=".3"/>
    <path class="st13" d="M-466-382.1c0,.2-.1.3-.3.3s-.3-.1-.3-.3"/>
    <circle class="st13" cx="-466.3" cy="-381.2" r=".3"/>
    <path class="st13" d="M-466.6-379.3c0-.2.1-.3.3-.3s.3.1.3.3"/>
    <circle class="st13" cx="-465.5" cy="-381.6" r=".3"/>
    <circle class="st13" cx="-465.5" cy="-380.7" r=".3"/>
    <circle class="st13" cx="-465.5" cy="-379.8" r=".3"/>
    <circle class="st13" cx="-464.8" cy="-380.2" r=".3"/>
    <path class="st13" d="M-464.5-382.1c0,.2-.1.3-.3.3s-.3-.1-.3-.3"/>
    <circle class="st13" cx="-464.8" cy="-381.2" r=".3"/>
    <path class="st13" d="M-465.1-379.3c0-.2.1-.3.3-.3s.3.1.3.3"/>
    <circle class="st13" cx="-464" cy="-381.6" r=".3"/>
    <circle class="st13" cx="-464" cy="-380.7" r=".3"/>
    <circle class="st13" cx="-464" cy="-379.8" r=".3"/>
    <circle class="st13" cx="-463.3" cy="-380.2" r=".3"/>
    <path class="st13" d="M-463-382.1c0,.2-.1.3-.3.3s-.3-.1-.3-.3"/>
    <circle class="st13" cx="-463.3" cy="-381.2" r=".3"/>
    <path class="st13" d="M-463.6-379.3c0-.2.1-.3.3-.3s.3.1.3.3"/>
    <circle class="st13" cx="-462.5" cy="-381.6" r=".3"/>
    <circle class="st13" cx="-462.5" cy="-380.7" r=".3"/>
    <circle class="st13" cx="-462.5" cy="-379.8" r=".3"/>
    <circle class="st13" cx="-461.8" cy="-380.2" r=".3"/>
    <path class="st13" d="M-461.5-382.1c0,.2-.1.3-.3.3s-.3-.1-.3-.3"/>
    <circle class="st13" cx="-461.8" cy="-381.2" r=".3"/>
    <path class="st13" d="M-462.1-379.3c0-.2.1-.3.3-.3s.3.1.3.3"/>
    <path class="st13" d="M-461-381.3c-.2,0-.3-.1-.3-.3"/>
    <circle class="st13" cx="-461" cy="-380.7" r=".3"/>
    <path class="st13" d="M-461.4-379.8c0-.2.1-.3.3-.3"/>
    <circle class="st13" cx="-470.4" cy="-390.2" r=".4"/>
    <circle class="st13" cx="-470" cy="-389.8" r=".4"/>
    <circle class="st13" cx="-470.7" cy="-390.5" r=".2"/>
    <circle class="st5" cx="-470.7" cy="-167.6" r="11.1"/>
    <path class="st11" d="M-519.5-367.4h98.6c2.2,0,4,1.8,4,4v176.2c0,1.9-1.6,3.5-3.5,3.5h-99.5c-1.9,0-3.5-1.6-3.5-3.5v-176.2c0-2.2,1.8-4,4-4Z"/>
    <path class="st5" d="M-472.4-171.5h2.9c1.1,0,2.1.9,2.1,2.1v2.9c0,1.1-.9,2.1-2.1,2.1h-2.9c-1.1,0-2.1-.9-2.1-2.1v-2.9c0-1.1.9-2.1,2.1-2.1Z"/>
  </g>
  <g>
    <path class="st5" d="M305.2-199s1.3,14.8,1.7,20.2c.3,5.4,1.3,8.8,4.7,13,3.3,4.2,7.7,6.9,10.7,9.4s5,6-5.3,7.2c-4.8.6-14.5.3-19.3.3h-80c-4.8,0-14.5.3-19.3-.3-10.3-1.3-8.3-4.8-5.3-7.2s7.3-5.1,10.7-9.4,4.3-7.5,4.7-13c.3-5.4,1.7-20.2,1.7-20.2h95.3Z"/>
    <rect class="st5" x="34.8" y="-505.7" width="445.7" height="306.7" rx="9" ry="9"/>
    <path class="st5" d="M265.3-224c-2.4-3.6-4-3.4-6.1-2.1s-1.2-1.7-5.3-.9-8,8.7-1.2,14.4c1.3,1.1,3.5-1.2,4.9-.5,6.4,3.4,8.3-3.9,8.3-3.9-7.1-3.2-.6-6.9-.6-6.9Z"/>
    <path class="st5" d="M258.3-227.2c.4,0,1,.1,2.4-1.5s.8-2.5-.2-2.5c-1.7,0-3.3,3.8-2.2,4Z"/>
    <rect class="st11" x="50.3" y="-489.2" width="413.6" height="233.3" rx="-11.3" ry="-11.3"/>
    <line class="st5" x1="35" y1="-240.5" x2="481" y2="-240.5"/>
  </g>
  <g>
    <rect class="st13" x="-285.8" y="-459" width="196.7" height="309.5" rx="22.2" ry="22.2"/>
    <path class="st4" d="M-272.8-180.5c-1.2,0-2.2-.8-2.2-1.8v-248.8c0-1,1-1.8,2.2-1.8H-102.9c1.2,0,2.2.8,2.2,1.8v248.8c0,1-1,1.8-2.2,1.8h-170Z"/>
    <ellipse class="st13" cx="-187.4" cy="-165.1" rx="11.6" ry="10.5"/>
    <circle class="st13" cx="-187.4" cy="-445.5" r="2"/>
  </g>
  <g>
    <g>
      <path class="st16" d="M2414,72.7c4.8,6.1,7.2,13,7.2,20.9s-1.7,13.3-5.2,18.7c-3.5,5.4-8.5,9.6-15.1,12.6-6.6,3-14.4,4.6-23.4,4.6h-57.2V-3.1h54.7c9,0,16.7,1.5,23.3,4.4,6.5,2.9,11.5,7,14.8,12.2,3.4,5.2,5,11.1,5,17.7s-2.1,14.2-6.2,19.4c-4.1,5.2-9.6,8.9-16.4,11,7.5,1.4,13.6,5.1,18.4,11.2ZM2347,51.6h24.3c6.3,0,11.2-1.4,14.6-4.3,3.4-2.9,5.1-6.9,5.1-12.3s-1.7-9.4-5.1-12.4c-3.4-2.9-8.3-4.4-14.6-4.4h-24.3v33.2ZM2388.8,103.3c3.6-3,5.4-7.3,5.4-12.9s-1.9-10.2-5.7-13.4c-3.8-3.2-8.9-4.8-15.4-4.8h-26.2v35.7h26.8c6.5,0,11.5-1.5,15.1-4.6Z"/>
      <path class="st16" d="M2444.3,7.2c-3.1-3-4.7-6.7-4.7-11.1s1.5-8.1,4.7-11.1c3.1-3,7-4.5,11.7-4.5s8.6,1.5,11.7,4.5c3.1,3,4.7,6.7,4.7,11.1s-1.6,8.1-4.7,11.1c-3.1,3-7,4.5-11.7,4.5s-8.6-1.5-11.7-4.5ZM2469.1,24.2v105.3h-26.6V24.2h26.6Z"/>
      <path class="st16" d="M2592.4,84.8h-77c.6,7.6,3.3,13.6,8,17.9,4.7,4.3,10.5,6.5,17.3,6.5,9.9,0,16.9-4.2,21.1-12.7h28.7c-3,10.1-8.9,18.5-17.5,25-8.6,6.5-19.2,9.8-31.7,9.8s-19.2-2.2-27.3-6.7c-8-4.5-14.3-10.9-18.8-19.1-4.5-8.2-6.7-17.7-6.7-28.5s2.2-20.5,6.6-28.7c4.4-8.2,10.6-14.6,18.6-19,8-4.4,17.2-6.6,27.5-6.6s19,2.2,26.9,6.5c7.9,4.3,14.1,10.4,18.4,18.3,4.4,7.9,6.6,17,6.6,27.3s-.3,7.2-.8,10.3ZM2565.6,67c-.1-6.8-2.6-12.3-7.4-16.4-4.8-4.1-10.7-6.2-17.7-6.2s-12.1,2-16.6,6c-4.5,4-7.3,9.5-8.3,16.6h50Z"/>
      <path class="st16" d="M2701.3,34.6c7.7,7.9,11.6,19,11.6,33.2v61.8h-26.6v-58.1c0-8.4-2.1-14.8-6.3-19.3-4.2-4.5-9.9-6.7-17.1-6.7s-13.1,2.2-17.4,6.7c-4.2,4.5-6.4,10.9-6.4,19.3v58.1h-26.6V24.2h26.6v13.1c3.5-4.6,8.1-8.1,13.6-10.7,5.5-2.6,11.6-3.9,18.1-3.9,12.5,0,22.7,4,30.4,11.9Z"/>
      <path class="st16" d="M2782,105l26.6-80.8h28.3l-39,105.3h-32.3l-38.8-105.3h28.5l26.6,80.8Z"/>
      <path class="st16" d="M2949.1,84.8h-77c.6,7.6,3.3,13.6,8,17.9,4.7,4.3,10.4,6.5,17.3,6.5,9.9,0,16.9-4.2,21.1-12.7h28.7c-3,10.1-8.9,18.5-17.5,25-8.6,6.5-19.2,9.8-31.7,9.8s-19.2-2.2-27.3-6.7c-8-4.5-14.3-10.9-18.8-19.1-4.5-8.2-6.7-17.7-6.7-28.5s2.2-20.5,6.6-28.7c4.4-8.2,10.6-14.6,18.6-19,8-4.4,17.2-6.6,27.5-6.6s19,2.2,26.9,6.5c7.9,4.3,14.1,10.4,18.4,18.3,4.4,7.9,6.6,17,6.6,27.3s-.3,7.2-.8,10.3ZM2922.3,67c-.1-6.8-2.6-12.3-7.4-16.4-4.8-4.1-10.7-6.2-17.7-6.2s-12.1,2-16.6,6c-4.5,4-7.3,9.5-8.3,16.6h50Z"/>
      <path class="st16" d="M3057.9,34.6c7.7,7.9,11.6,19,11.6,33.2v61.8h-26.6v-58.1c0-8.4-2.1-14.8-6.3-19.3-4.2-4.5-9.9-6.7-17.1-6.7s-13.1,2.2-17.4,6.7c-4.2,4.5-6.4,10.9-6.4,19.3v58.1h-26.6V24.2h26.6v13.1c3.5-4.6,8.1-8.1,13.6-10.7,5.5-2.6,11.6-3.9,18.1-3.9,12.5,0,22.7,4,30.4,11.9Z"/>
      <path class="st16" d="M3194.2,24.2v105.3h-26.8v-13.3c-3.4,4.6-7.9,8.1-13.4,10.7s-11.5,3.9-18,3.9-15.5-1.7-21.8-5.2c-6.3-3.5-11.3-8.6-14.9-15.4-3.6-6.8-5.4-14.8-5.4-24.2V24.2h26.6v58c0,8.4,2.1,14.8,6.3,19.3,4.2,4.5,9.9,6.7,17.1,6.7s13.1-2.2,17.3-6.7c4.2-4.5,6.3-10.9,6.3-19.3V24.2h26.8Z"/>
      <path class="st16" d="M3317.5,84.8h-77c.6,7.6,3.3,13.6,8,17.9,4.7,4.3,10.4,6.5,17.3,6.5,9.9,0,16.9-4.2,21.1-12.7h28.7c-3,10.1-8.9,18.5-17.5,25-8.6,6.5-19.2,9.8-31.7,9.8s-19.2-2.2-27.3-6.7c-8-4.5-14.3-10.9-18.8-19.1-4.5-8.2-6.7-17.7-6.7-28.5s2.2-20.5,6.7-28.7c4.4-8.2,10.6-14.6,18.6-19,8-4.4,17.2-6.6,27.5-6.6s19,2.2,26.9,6.5c7.9,4.3,14.1,10.4,18.4,18.3,4.4,7.9,6.6,17,6.6,27.3s-.3,7.2-.8,10.3ZM3290.7,67c-.1-6.8-2.6-12.3-7.4-16.4-4.8-4.1-10.7-6.2-17.7-6.2s-12.1,2-16.6,6c-4.5,4-7.3,9.5-8.3,16.6h50Z"/>
    </g>
    <image width="1072" height="224" transform="translate(2283 -56)" xlink:href="Apprareils-1.png"/>
    <image width="1072" height="224" transform="translate(2283 -56)" xlink:href="Apprareils-2.png"/>
    <image width="1072" height="224" transform="translate(2283 -56)" xlink:href="Apprareils-3.png"/>
    <image width="1072" height="224" transform="translate(2283 -56)" xlink:href="Apprareils-4.png"/>
  </g>
</svg>