<?xml version="1.0" encoding="UTF-8"?>
<svg id="Calque_1" xmlns="http://www.w3.org/2000/svg" version="1.1" xmlns:xlink="http://www.w3.org/1999/xlink" viewBox="0 0 1902 810">
  <!-- Generator: Adobe Illustrator 29.3.1, SVG Export Plug-In . SVG Version: 2.1.0 Build 151)  -->
  <defs>
    <style>
      .st0 {
        clip-path: url(#clippath-4);
      }

      .st1, .st2 {
        fill: url(#Dégradé_sans_nom_11);
      }

      .st3, .st4, .st5, .st2, .st6, .st7, .st8, .st9, .st10, .st11, .st12, .st13, .st14, .st15 {
        stroke-miterlimit: 10;
      }

      .st3, .st4, .st16, .st6, .st11, .st14 {
        stroke: #000;
      }

      .st3, .st5, .st2, .st7, .st8, .st9, .st10, .st11, .st12, .st14, .st15 {
        stroke-width: .8px;
      }

      .st3, .st16, .st9, .st12, .st15 {
        fill: none;
      }

      .st4, .st11 {
        fill: #474242;
      }

      .st5, .st9, .st13 {
        stroke: #fff;
      }

      .st16 {
        stroke-width: 3px;
      }

      .st2, .st12 {
        stroke: #4e3062;
      }

      .st17 {
        fill: #1c1b1a;
      }

      .st18, .st6, .st14 {
        fill: #fff;
      }

      .st7 {
        fill: #908686;
      }

      .st7, .st10 {
        stroke: #1c1b1a;
      }

      .st19 {
        fill: #e1a08e;
      }

      .st20, .st8 {
        fill: #fff7bb;
      }

      .st8 {
        stroke: #fff7bb;
      }

      .st21 {
        clip-path: url(#clippath-1);
      }

      .st10 {
        fill: #333131;
      }

      .st22 {
        clip-path: url(#clippath-3);
      }

      .st23 {
        fill: url(#Dégradé_sans_nom_16);
      }

      .st24 {
        fill: url(#Dégradé_sans_nom_161);
      }

      .st15 {
        stroke: #20221d;
      }

      .st25 {
        clip-path: url(#clippath-2);
      }

      .st26 {
        fill: #2e2c2c;
      }

      .st27 {
        clip-path: url(#clippath);
      }

      .st28 {
        fill: #fff6bb;
      }
    </style>
    <clipPath id="clippath">
      <circle class="st5" cx="5547" cy="91.5" r="1.9"/>
    </clipPath>
    <radialGradient id="Dégradé_sans_nom_11" data-name="Dégradé sans nom 11" cx="2591.6" cy="-74.2" fx="2591.6" fy="-74.2" r="1.2" gradientUnits="userSpaceOnUse">
      <stop offset="0" stop-color="#eae7e4"/>
      <stop offset="0" stop-color="#f5f4f2"/>
      <stop offset="0" stop-color="#fff"/>
      <stop offset="0" stop-color="#f3f0f6"/>
      <stop offset=".2" stop-color="#d6c9df"/>
      <stop offset=".4" stop-color="#a68abb"/>
      <stop offset=".5" stop-color="#784d97"/>
      <stop offset=".6" stop-color="#714d8d"/>
      <stop offset=".8" stop-color="#5e4d73"/>
      <stop offset="1" stop-color="#464e50"/>
    </radialGradient>
    <clipPath id="clippath-1">
      <circle class="st2" cx="2591.6" cy="-74.2" r="1.2"/>
    </clipPath>
    <linearGradient id="Dégradé_sans_nom_16" data-name="Dégradé sans nom 16" x1="2591.8" y1="-74" x2="2592.4" y2="-73.5" gradientUnits="userSpaceOnUse">
      <stop offset=".2" stop-color="#fff"/>
      <stop offset="1" stop-color="#1c1b1a"/>
    </linearGradient>
    <linearGradient id="Dégradé_sans_nom_161" data-name="Dégradé sans nom 16" x1="2591.1" y1="-74.5" x2="2591.4" y2="-74.5" xlink:href="#Dégradé_sans_nom_16"/>
    <clipPath id="clippath-2">
      <circle class="st5" cx="2591.6" cy="391.8" r="1.2"/>
    </clipPath>
    <clipPath id="clippath-3">
      <circle class="st14" cx="2583.6" cy="1365.8" r="1.2"/>
    </clipPath>
    <clipPath id="clippath-4">
      <circle class="st5" cx="192.6" cy="527.8" r="1.2"/>
    </clipPath>
  </defs>
  <path class="st3" d="M3962.2,163s1.3,14.8,1.7,20.2c.3,5.4,1.3,8.8,4.7,13,3.3,4.2,7.7,6.9,10.7,9.4s5,6-5.3,7.2c-4.8.6-14.5.3-19.3.3h-80c-4.8,0-14.5.3-19.3-.3-10.3-1.3-8.3-4.8-5.3-7.2s7.3-5.1,10.7-9.4,4.3-7.5,4.7-13c.3-5.4,1.7-20.2,1.7-20.2h95.3Z"/>
  <rect class="st3" x="3691.8" y="-143.7" width="445.7" height="306.7" rx="9" ry="9"/>
  <path class="st3" d="M3922.3,138c-2.4-3.6-4-3.4-6.1-2.1s-1.2-1.7-5.3-.9-8,8.7-1.2,14.4,3.5-1.2,4.9-.5c6.4,3.4,8.3-3.9,8.3-3.9-7.1-3.2-.6-6.9-.6-6.9Z"/>
  <path class="st3" d="M3915.3,134.8c.4,0,1,.1,2.4-1.5s.8-2.5-.2-2.5c-1.7,0-3.3,3.8-2.2,4Z"/>
  <rect class="st3" x="3707.3" y="-127.2" width="413.6" height="233.3" rx="3" ry="3"/>
  <path d="M3333.4-142.3c1.1,0,2.2.8,2.5,1.9.2.6.7,1,1.4,1h183.7c9.8,0,17.8,8,17.8,17.8V167.2c0,.9-.8,1.7-1.7,1.7h-448.7V-131.1c0-4.6,3.7-8.3,8.3-8.3h193.9c.6,0,1.2-.4,1.4-1,.3-1.1,1.4-1.9,2.5-1.9h39M3333.4-143h-39c-1.5,0-2.8,1-3.2,2.4,0,.3-.4.5-.6.5h-193.9c-5,0-9.1,4.1-9.1,9.1V169.7h449.4c1.4,0,2.5-1.1,2.5-2.5V-121.6c0-10.2-8.3-18.5-18.5-18.5h-183.7c-.3,0-.6-.2-.6-.5-.4-1.4-1.7-2.4-3.2-2.4h0Z"/>
  <path d="M3571.7,169.6c.7,0,1.3.6,1.3,1.3v.2c0,10.6-8.6,19.1-19.1,19.1h-479.8c-10.6,0-19.3-8.6-19.3-19.3s.6-1.4,1.4-1.4h515.6M3571.7,168.9h-515.6c-1.2,0-2.1,1-2.1,2.1,0,11,9,20,20,20h479.8c11,0,19.9-8.9,19.9-19.9v-.2c0-1.1-.9-2-2-2h0Z"/>
  <path d="M3313.9-135.7c3.2,0,5.8,2.6,5.8,5.8s-2.6,5.8-5.8,5.8-5.8-2.6-5.8-5.8,2.6-5.8,5.8-5.8M3313.9-136.5c-3.6,0-6.6,2.9-6.6,6.6s2.9,6.6,6.6,6.6,6.6-2.9,6.6-6.6-2.9-6.6-6.6-6.6h0Z"/>
  <path d="M3313.9-132.5c1.4,0,2.5,1.1,2.5,2.5s-1.1,2.5-2.5,2.5-2.5-1.1-2.5-2.5,1.1-2.5,2.5-2.5M3313.9-133.2c-1.8,0-3.3,1.5-3.3,3.3s1.5,3.3,3.3,3.3,3.3-1.5,3.3-3.3-1.5-3.3-3.3-3.3h0Z"/>
  <path class="st3" d="M3527.8,137c0,1.8-1.4,3.3-3.1,3.3h-421.7c-1.7,0-3.1-1.5-3.1-3.3V-113.1c0-1.8,1.4-3.3,3.1-3.3h421.7c1.7,0,3.1,1.5,3.1,3.3v250.1Z"/>
  <g>
    <path d="M6056.9,126.1c-3.3,0-6.1-2.7-6.1-6.1s2.7-6.1,6.1-6.1,6.1,2.7,6.1,6.1-2.7,6.1-6.1,6.1Z"/>
    <path class="st18" d="M6056.9,114.5c3.1,0,5.6,2.5,5.6,5.6s-2.5,5.6-5.6,5.6-5.6-2.5-5.6-5.6,2.5-5.6,5.6-5.6M6056.9,113.5c-3.6,0-6.6,2.9-6.6,6.6s2.9,6.6,6.6,6.6,6.6-2.9,6.6-6.6-2.9-6.6-6.6-6.6h0Z"/>
  </g>
  <g>
    <path d="M6056.9,122.8c-1.5,0-2.8-1.2-2.8-2.8s1.2-2.8,2.8-2.8,2.8,1.2,2.8,2.8-1.2,2.8-2.8,2.8Z"/>
    <path class="st18" d="M6056.9,117.8c1.3,0,2.3,1,2.3,2.3s-1,2.3-2.3,2.3-2.3-1-2.3-2.3,1-2.3,2.3-2.3M6056.9,116.8c-1.8,0-3.3,1.5-3.3,3.3s1.5,3.3,3.3,3.3,3.3-1.5,3.3-3.3-1.5-3.3-3.3-3.3h0Z"/>
  </g>
  <path class="st13" d="M5579.7,70.6h15.7c1.1,0,2,.9,2,2h-19.8c0-1.1.9-2,2-2Z"/>
  <circle class="st13" cx="5546.9" cy="91.5" r="3.4"/>
  <g>
    <circle cx="5547" cy="91.5" r="1.9"/>
    <g class="st27">
      <circle class="st13" cx="5545.9" cy="90.3" r=".5"/>
      <circle class="st13" cx="5545.7" cy="90" r=".6"/>
      <polygon class="st13" points="5546.5 89.8 5546.4 89.5 5545.1 90.7 5545.4 90.8 5546.5 89.8"/>
    </g>
    <circle class="st9" cx="5547" cy="91.5" r="1.9"/>
  </g>
  <circle class="st13" cx="5538.4" cy="104.4" r=".5"/>
  <circle class="st13" cx="5538.4" cy="105.8" r=".5"/>
  <circle class="st13" cx="5538.4" cy="107.2" r=".5"/>
  <circle class="st13" cx="5539.6" cy="106.5" r=".5"/>
  <path class="st13" d="M5540.1,103.7c0,.3-.2.5-.5.5s-.5-.2-.5-.5"/>
  <circle class="st13" cx="5539.6" cy="105.1" r=".5"/>
  <circle class="st13" cx="5539.6" cy="105.1" r=".5"/>
  <circle class="st13" cx="5540.7" cy="104.4" r=".5"/>
  <path class="st13" d="M5539.1,107.9c0-.3.2-.5.5-.5s.5.2.5.5"/>
  <circle class="st13" cx="5540.7" cy="104.4" r=".5"/>
  <circle class="st13" cx="5540.7" cy="105.8" r=".5"/>
  <circle class="st13" cx="5540.7" cy="107.2" r=".5"/>
  <circle class="st13" cx="5537.3" cy="106.5" r=".5"/>
  <path class="st13" d="M5537.8,103.7c0,.3-.2.5-.5.5s-.5-.2-.5-.5"/>
  <circle class="st13" cx="5537.3" cy="105.1" r=".5"/>
  <path class="st13" d="M5536.8,107.9c0-.3.2-.5.5-.5s.5.2.5.5"/>
  <circle class="st13" cx="5538.4" cy="104.4" r=".5"/>
  <circle class="st13" cx="5538.4" cy="105.8" r=".5"/>
  <circle class="st13" cx="5538.4" cy="107.2" r=".5"/>
  <circle class="st13" cx="5536.2" cy="104.4" r=".5"/>
  <circle class="st13" cx="5536.2" cy="105.8" r=".5"/>
  <circle class="st13" cx="5536.2" cy="107.2" r=".5"/>
  <circle class="st13" cx="5541.8" cy="106.5" r=".5"/>
  <path class="st13" d="M5542.3,103.7c0,.3-.2.5-.5.5s-.5-.2-.5-.5"/>
  <circle class="st13" cx="5541.8" cy="105.1" r=".5"/>
  <path class="st13" d="M5541.4,107.9c0-.3.2-.5.5-.5s.5.2.5.5"/>
  <circle class="st13" cx="5543" cy="104.4" r=".5"/>
  <circle class="st13" cx="5543" cy="105.8" r=".5"/>
  <circle class="st13" cx="5543" cy="107.2" r=".5"/>
  <circle class="st13" cx="5544.1" cy="106.5" r=".5"/>
  <path class="st13" d="M5544.6,103.7c0,.3-.2.5-.5.5s-.5-.2-.5-.5"/>
  <circle class="st13" cx="5544.1" cy="105.1" r=".5"/>
  <path class="st13" d="M5543.6,107.9c0-.3.2-.5.5-.5s.5.2.5.5"/>
  <circle class="st13" cx="5545.2" cy="104.4" r=".5"/>
  <circle class="st13" cx="5545.2" cy="105.8" r=".5"/>
  <circle class="st13" cx="5545.2" cy="107.2" r=".5"/>
  <circle class="st13" cx="5546.4" cy="106.5" r=".5"/>
  <path class="st13" d="M5546.8,103.7c0,.3-.2.5-.5.5s-.5-.2-.5-.5"/>
  <circle class="st13" cx="5546.4" cy="105.1" r=".5"/>
  <path class="st13" d="M5545.9,107.9c0-.3.2-.5.5-.5s.5.2.5.5"/>
  <circle class="st13" cx="5547.5" cy="104.4" r=".5"/>
  <circle class="st13" cx="5547.5" cy="105.8" r=".5"/>
  <circle class="st13" cx="5547.5" cy="107.2" r=".5"/>
  <circle class="st13" cx="5548.6" cy="106.5" r=".5"/>
  <path class="st13" d="M5549.1,103.7c0,.3-.2.5-.5.5s-.5-.2-.5-.5"/>
  <circle class="st13" cx="5548.6" cy="105.1" r=".5"/>
  <path class="st13" d="M5548.1,107.9c0-.3.2-.5.5-.5s.5.2.5.5"/>
  <circle class="st13" cx="5549.7" cy="104.4" r=".5"/>
  <circle class="st13" cx="5549.7" cy="105.8" r=".5"/>
  <circle class="st13" cx="5549.7" cy="107.2" r=".5"/>
  <circle class="st13" cx="5550.9" cy="106.5" r=".5"/>
  <path class="st13" d="M5551.3,103.7c0,.3-.2.5-.5.5s-.5-.2-.5-.5"/>
  <circle class="st13" cx="5550.9" cy="105" r=".5"/>
  <path class="st13" d="M5550.4,107.9c0-.3.2-.5.5-.5s.5.2.5.5"/>
  <circle class="st13" cx="5552" cy="104.3" r=".5"/>
  <circle class="st13" cx="5552" cy="105.7" r=".5"/>
  <circle class="st13" cx="5552" cy="107.1" r=".5"/>
  <circle class="st13" cx="5553.1" cy="106.5" r=".5"/>
  <path class="st13" d="M5553.6,103.7c0,.3-.2.5-.5.5s-.5-.2-.5-.5"/>
  <circle class="st13" cx="5553.1" cy="105" r=".5"/>
  <path class="st13" d="M5552.6,107.9c0-.3.2-.5.5-.5s.5.2.5.5"/>
  <circle class="st13" cx="5554.3" cy="104.3" r=".5"/>
  <circle class="st13" cx="5554.3" cy="105.7" r=".5"/>
  <circle class="st13" cx="5554.3" cy="107.1" r=".5"/>
  <circle class="st13" cx="5555.4" cy="106.4" r=".5"/>
  <path class="st13" d="M5555.9,103.6c0,.3-.2.5-.5.5s-.5-.2-.5-.5"/>
  <circle class="st13" cx="5555.4" cy="105" r=".5"/>
  <path class="st13" d="M5554.9,107.8c0-.3.2-.5.5-.5s.5.2.5.5"/>
  <circle class="st13" cx="5556.5" cy="104.3" r=".5"/>
  <circle class="st13" cx="5556.5" cy="105.7" r=".5"/>
  <circle class="st13" cx="5556.5" cy="107.1" r=".5"/>
  <circle class="st13" cx="5557.6" cy="106.4" r=".5"/>
  <path class="st13" d="M5558.1,103.6c0,.3-.2.5-.5.5s-.5-.2-.5-.5"/>
  <circle class="st13" cx="5557.6" cy="105" r=".5"/>
  <path class="st13" d="M5557.2,107.8c0-.3.2-.5.5-.5s.5.2.5.5"/>
  <circle class="st13" cx="5558.8" cy="104.3" r=".5"/>
  <circle class="st13" cx="5558.8" cy="105.7" r=".5"/>
  <circle class="st13" cx="5558.8" cy="107.1" r=".5"/>
  <circle class="st13" cx="5559.9" cy="106.4" r=".5"/>
  <path class="st13" d="M5560.3,103.7c0,.3-.2.5-.5.5s-.5-.2-.5-.5"/>
  <circle class="st13" cx="5559.9" cy="105" r=".5"/>
  <path class="st13" d="M5559.4,107.8c0-.2.2-.4.5-.4s.5.2.5.4"/>
  <path class="st13" d="M5561,104.8c-.3,0-.5-.2-.5-.5"/>
  <circle class="st13" cx="5561" cy="105.7" r=".5"/>
  <path class="st13" d="M5560.6,107.1c0-.3.2-.5.5-.5"/>
  <circle class="st13" cx="5546.9" cy="91.5" r=".5"/>
  <circle class="st13" cx="5547.6" cy="92" r=".6"/>
  <circle class="st13" cx="5546.4" cy="90.9" r=".3"/>
  <path class="st3" d="M2613.3-88h10.4c.7,0,1.3.6,1.3,1.3h-13.1c0-.7.6-1.3,1.3-1.3Z"/>
  <path class="st3" d="M2530.6-51.4h0c0,0,0,0,0,0v11.9c0,0,0,0,0,0h0c-.4,0-.7-.3-.7-.7v-10.6c0-.4.3-.8.8-.8Z"/>
  <path class="st3" d="M2530.6-27.4h0c0,0,0,0,0,0v9.2c0,0,0,0,0,0h0c-.4,0-.7-.3-.7-.7v-7.8c0-.4.3-.8.8-.8Z"/>
  <path class="st3" d="M2530.6-6.5h0c0,0,0,0,0,0V2.8c0,0,0,0,0,0h0c-.4,0-.7-.3-.7-.7v-7.8c0-.4.3-.8.8-.8Z"/>
  <rect class="st3" x="2530.7" y="-86.6" width="121.3" height="253.7" rx="21.8" ry="21.8"/>
  <rect class="st3" x="2532.5" y="-84.6" width="117.6" height="249.9" rx="21.4" ry="21.4"/>
  <circle class="st10" cx="2591.6" cy="-74.1" r="2.2"/>
  <g>
    <circle class="st1" cx="2591.6" cy="-74.2" r="1.2"/>
    <g class="st21">
      <circle class="st20" cx="2590.9" cy="-75" r=".4"/>
      <circle class="st8" cx="2590.8" cy="-75.1" r=".4"/>
      <polygon class="st28" points="2591.3 -75.2 2591.2 -75.5 2590.4 -74.7 2590.6 -74.6 2591.3 -75.2"/>
    </g>
    <circle class="st12" cx="2591.6" cy="-74.2" r="1.2"/>
  </g>
  <rect class="st10" x="2580.8" y="-67.3" width="22.1" height="5.1" rx="-28.5" ry="-28.5"/>
  <rect class="st7" x="2582.5" y="-66" width="18.6" height="2.7" rx="-30.3" ry="-30.3"/>
  <circle class="st17" cx="2586" cy="-65.6" r=".3"/>
  <circle class="st17" cx="2586" cy="-64.7" r=".3"/>
  <circle class="st17" cx="2586" cy="-63.7" r=".3"/>
  <circle class="st17" cx="2586.7" cy="-64.2" r=".3"/>
  <path class="st17" d="M2587-66c0,.2-.1.3-.3.3s-.3-.1-.3-.3"/>
  <circle class="st17" cx="2586.7" cy="-65.1" r=".3"/>
  <circle class="st17" cx="2586.7" cy="-65.1" r=".3"/>
  <circle class="st17" cx="2587.5" cy="-65.6" r=".3"/>
  <path class="st17" d="M2586.4-63.3c0-.2.1-.3.3-.3s.3.1.3.3"/>
  <circle class="st17" cx="2587.5" cy="-65.6" r=".3"/>
  <circle class="st17" cx="2587.5" cy="-64.7" r=".3"/>
  <circle class="st17" cx="2587.5" cy="-63.7" r=".3"/>
  <circle class="st17" cx="2585.2" cy="-64.2" r=".3"/>
  <path class="st17" d="M2585.5-66c0,.2-.1.3-.3.3s-.3-.1-.3-.3"/>
  <circle class="st17" cx="2585.2" cy="-65.1" r=".3"/>
  <path class="st17" d="M2584.9-63.3c0-.2.1-.3.3-.3s.3.1.3.3"/>
  <circle class="st17" cx="2586" cy="-65.6" r=".3"/>
  <circle class="st17" cx="2586" cy="-64.7" r=".3"/>
  <circle class="st17" cx="2586" cy="-63.7" r=".3"/>
  <circle class="st17" cx="2583.7" cy="-64.2" r=".3"/>
  <path class="st17" d="M2584-66c0,.2-.1.3-.3.3s-.3-.1-.3-.3"/>
  <circle class="st17" cx="2583.7" cy="-65.1" r=".3"/>
  <path class="st17" d="M2583.4-63.3c0-.2.1-.3.3-.3s.3.1.3.3"/>
  <circle class="st17" cx="2584.5" cy="-65.6" r=".3"/>
  <circle class="st17" cx="2584.5" cy="-64.7" r=".3"/>
  <circle class="st17" cx="2584.5" cy="-63.7" r=".3"/>
  <path class="st17" d="M2583.2-65.9c.1.1.2.3,0,.4s-.3.2-.4,0"/>
  <circle class="st17" cx="2583" cy="-64.7" r=".3"/>
  <path class="st17" d="M2582.7-63.9c0-.2.3-.2.4-.1s.2.3.1.4"/>
  <circle class="st17" cx="2588.2" cy="-64.2" r=".3"/>
  <path class="st17" d="M2588.5-66c0,.2-.1.3-.3.3s-.3-.1-.3-.3"/>
  <circle class="st17" cx="2588.2" cy="-65.1" r=".3"/>
  <path class="st17" d="M2587.9-63.3c0-.2.1-.3.3-.3s.3.1.3.3"/>
  <circle class="st17" cx="2589" cy="-65.6" r=".3"/>
  <circle class="st17" cx="2589" cy="-64.7" r=".3"/>
  <circle class="st17" cx="2589" cy="-63.7" r=".3"/>
  <circle class="st17" cx="2589.7" cy="-64.2" r=".3"/>
  <path class="st17" d="M2590-66c0,.2-.1.3-.3.3s-.3-.1-.3-.3"/>
  <circle class="st17" cx="2589.7" cy="-65.1" r=".3"/>
  <path class="st17" d="M2589.4-63.3c0-.2.1-.3.3-.3s.3.1.3.3"/>
  <circle class="st17" cx="2590.5" cy="-65.6" r=".3"/>
  <circle class="st17" cx="2590.5" cy="-64.7" r=".3"/>
  <circle class="st17" cx="2590.5" cy="-63.7" r=".3"/>
  <circle class="st17" cx="2591.2" cy="-64.2" r=".3"/>
  <path class="st17" d="M2591.5-66.1c0,.2-.1.3-.3.3s-.3-.1-.3-.3"/>
  <circle class="st17" cx="2591.2" cy="-65.1" r=".3"/>
  <path class="st17" d="M2590.9-63.3c0-.2.1-.3.3-.3s.3.1.3.3"/>
  <circle class="st17" cx="2592" cy="-65.6" r=".3"/>
  <circle class="st17" cx="2592" cy="-64.7" r=".3"/>
  <circle class="st17" cx="2592" cy="-63.8" r=".3"/>
  <circle class="st17" cx="2592.7" cy="-64.2" r=".3"/>
  <path class="st17" d="M2593-66.1c0,.2-.1.3-.3.3s-.3-.1-.3-.3"/>
  <circle class="st17" cx="2592.7" cy="-65.2" r=".3"/>
  <path class="st17" d="M2592.4-63.3c0-.2.1-.3.3-.3s.3.1.3.3"/>
  <circle class="st17" cx="2593.5" cy="-65.6" r=".3"/>
  <circle class="st17" cx="2593.5" cy="-64.7" r=".3"/>
  <circle class="st17" cx="2593.5" cy="-63.8" r=".3"/>
  <circle class="st17" cx="2594.2" cy="-64.2" r=".3"/>
  <path class="st17" d="M2594.5-66.1c0,.2-.1.3-.3.3s-.3-.1-.3-.3"/>
  <circle class="st17" cx="2594.2" cy="-65.2" r=".3"/>
  <path class="st17" d="M2593.9-63.3c0-.2.1-.3.3-.3s.3.1.3.3"/>
  <circle class="st17" cx="2595" cy="-65.6" r=".3"/>
  <circle class="st17" cx="2595" cy="-64.7" r=".3"/>
  <circle class="st17" cx="2595" cy="-63.8" r=".3"/>
  <circle class="st17" cx="2595.7" cy="-64.2" r=".3"/>
  <path class="st17" d="M2596-66.1c0,.2-.1.3-.3.3s-.3-.1-.3-.3"/>
  <circle class="st17" cx="2595.7" cy="-65.2" r=".3"/>
  <path class="st17" d="M2595.4-63.3c0-.2.1-.3.3-.3s.3.1.3.3"/>
  <circle class="st17" cx="2596.5" cy="-65.6" r=".3"/>
  <circle class="st17" cx="2596.5" cy="-64.7" r=".3"/>
  <circle class="st17" cx="2596.5" cy="-63.8" r=".3"/>
  <circle class="st17" cx="2597.2" cy="-64.2" r=".3"/>
  <path class="st17" d="M2597.5-66.1c0,.2-.1.3-.3.3s-.3-.1-.3-.3"/>
  <circle class="st17" cx="2597.2" cy="-65.2" r=".3"/>
  <path class="st17" d="M2596.9-63.3c0-.2.1-.3.3-.3s.3.1.3.3"/>
  <circle class="st17" cx="2598" cy="-65.6" r=".3"/>
  <circle class="st17" cx="2598" cy="-64.7" r=".3"/>
  <circle class="st17" cx="2598" cy="-63.8" r=".3"/>
  <circle class="st17" cx="2598.7" cy="-64.2" r=".3"/>
  <path class="st17" d="M2599-66.1c0,.2-.1.3-.3.3s-.3-.1-.3-.3"/>
  <circle class="st17" cx="2598.7" cy="-65.2" r=".3"/>
  <path class="st17" d="M2598.4-63.3c0-.2.1-.3.3-.3s.3.1.3.3"/>
  <circle class="st17" cx="2599.5" cy="-65.6" r=".3"/>
  <circle class="st17" cx="2599.5" cy="-64.7" r=".3"/>
  <circle class="st17" cx="2599.5" cy="-63.8" r=".3"/>
  <circle class="st17" cx="2600.2" cy="-64.2" r=".3"/>
  <path class="st17" d="M2600.5-66.1c0,.2-.1.3-.3.3s-.3-.1-.3-.3"/>
  <circle class="st17" cx="2600.2" cy="-65.2" r=".3"/>
  <path class="st17" d="M2599.9-63.3c0-.2.1-.3.3-.3s.3.1.3.3"/>
  <path class="st17" d="M2601-65.3c-.2,0-.3-.1-.3-.3"/>
  <circle class="st17" cx="2601" cy="-64.7" r=".3"/>
  <path class="st17" d="M2600.6-63.8c0-.2.1-.3.3-.3"/>
  <circle class="st26" cx="2591.6" cy="-74.2" r=".4"/>
  <circle class="st23" cx="2592" cy="-73.8" r=".4"/>
  <circle class="st24" cx="2591.3" cy="-74.5" r=".2"/>
  <circle class="st3" cx="2591.3" cy="148.4" r="11.1"/>
  <path class="st3" d="M2542.5-51.4h98.6c2.2,0,4,1.8,4,4v176.2c0,1.9-1.6,3.5-3.5,3.5h-99.5c-1.9,0-3.5-1.6-3.5-3.5V-47.4c0-2.2,1.8-4,4-4Z"/>
  <path class="st3" d="M3074,191h479.8c5.6,0,10.1-2.8,13.7-6.5h-507.2c3.6,3.6,8,6.5,13.6,6.5Z"/>
  <path class="st3" d="M3272.5,169.5h82c0,3.9-3.1,7-7,7h-68c-3.9,0-7-3.1-7-7h0Z"/>
  <g>
    <path class="st3" d="M2775.2,148.5c-1.2,0-2.2-.8-2.2-1.8V-102.1c0-1,1-1.8,2.2-1.8h170c1.2,0,2.2.8,2.2,1.8v248.8c0,1-1,1.8-2.2,1.8h-170Z"/>
    <ellipse class="st3" cx="2860.6" cy="163.9" rx="11.6" ry="10.5"/>
    <circle class="st3" cx="2860.6" cy="-116.5" r="2"/>
    <rect class="st3" x="2762.2" y="-130" width="196.7" height="309.5" rx="22.2" ry="22.2"/>
  </g>
  <path class="st3" d="M2589.6,144.5h2.9c1.1,0,2.1.9,2.1,2.1v2.9c0,1.1-.9,2.1-2.1,2.1h-2.9c-1.1,0-2.1-.9-2.1-2.1v-2.9c0-1.1.9-2.1,2.1-2.1Z"/>
  <line class="st3" x1="3692" y1="121.5" x2="4138" y2="121.5"/>
  <g>
    <g>
      <path d="M3087.9,635.3v-300.4c0-4.8,3.9-8.7,8.7-8.7h193.9c.5,0,.9-.3,1-.7.4-1.2,1.5-2.1,2.8-2.1h39c1.3,0,2.5.9,2.8,2.1.1.4.5.7,1,.7h183.7c10,0,18.1,8.1,18.1,18.1v288.9c0,1.1-.9,2.1-2.1,2.1h-449.1Z"/>
      <path class="st18" d="M3333.4,323.8c1.1,0,2.2.8,2.5,1.9.2.6.7,1,1.4,1h183.7c9.8,0,17.8,8,17.8,17.8v288.9c0,.9-.8,1.7-1.7,1.7h-448.7v-300c0-4.6,3.7-8.3,8.3-8.3h193.9c.6,0,1.2-.4,1.4-1,.3-1.1,1.4-1.9,2.5-1.9h39M3333.4,323h-39c-1.5,0-2.8,1-3.2,2.4,0,.3-.4.5-.6.5h-193.9c-5,0-9.1,4.1-9.1,9.1v300.8h449.4c1.4,0,2.5-1.1,2.5-2.5v-288.9c0-10.2-8.3-18.5-18.5-18.5h-183.7c-.3,0-.6-.2-.6-.5-.4-1.4-1.7-2.4-3.2-2.4h0Z"/>
    </g>
    <g>
      <path d="M3074,650.6c-10.8,0-19.6-8.8-19.6-19.6s.8-1.8,1.8-1.8h515.6c.9,0,1.6.7,1.6,1.6v.2c0,10.8-8.8,19.5-19.5,19.5h-479.8Z"/>
      <path class="st18" d="M3571.7,629.6c.7,0,1.3.6,1.3,1.3v.2c0,10.6-8.6,19.1-19.1,19.1h-479.8c-10.6,0-19.3-8.6-19.3-19.3s.6-1.4,1.4-1.4h515.6M3571.7,628.9h-515.6c-1.2,0-2.1,1-2.1,2.1,0,11,9,20,20,20h479.8c11,0,19.9-8.9,19.9-19.9v-.2c0-1.1-.9-2-2-2h0Z"/>
    </g>
    <g>
      <path d="M3313.9,342.2c-3.4,0-6.2-2.8-6.2-6.2s2.8-6.2,6.2-6.2,6.2,2.8,6.2,6.2-2.8,6.2-6.2,6.2Z"/>
      <path class="st18" d="M3313.9,330.3c3.2,0,5.8,2.6,5.8,5.8s-2.6,5.8-5.8,5.8-5.8-2.6-5.8-5.8,2.6-5.8,5.8-5.8M3313.9,329.5c-3.6,0-6.6,2.9-6.6,6.6s2.9,6.6,6.6,6.6,6.6-2.9,6.6-6.6-2.9-6.6-6.6-6.6h0Z"/>
    </g>
    <g>
      <path d="M3313.9,339c-1.6,0-2.9-1.3-2.9-2.9s1.3-2.9,2.9-2.9,2.9,1.3,2.9,2.9-1.3,2.9-2.9,2.9Z"/>
      <path class="st18" d="M3313.9,333.5c1.4,0,2.5,1.1,2.5,2.5s-1.1,2.5-2.5,2.5-2.5-1.1-2.5-2.5,1.1-2.5,2.5-2.5M3313.9,332.8c-1.8,0-3.3,1.5-3.3,3.3s1.5,3.3,3.3,3.3,3.3-1.5,3.3-3.3-1.5-3.3-3.3-3.3h0Z"/>
    </g>
    <path class="st11" d="M3527.8,603c0,1.8-1.4,3.3-3.1,3.3h-421.7c-1.7,0-3.1-1.5-3.1-3.3v-250.1c0-1.8,1.4-3.3,3.1-3.3h421.7c1.7,0,3.1,1.5,3.1,3.3v250.1Z"/>
    <path class="st5" d="M3074,651h479.8c5.6,0,10.1-2.8,13.7-6.5h-507.2c3.6,3.6,8,6.5,13.6,6.5Z"/>
    <path class="st5" d="M3272.5,629.5h82c0,3.9-3.1,7-7,7h-68c-3.9,0-7-3.1-7-7h0Z"/>
  </g>
  <g>
    <path class="st5" d="M2613.3,378h10.4c.7,0,1.3.6,1.3,1.3h-13.1c0-.7.6-1.3,1.3-1.3Z"/>
    <path class="st5" d="M2530.6,414.6h0c0,0,0,0,0,0v11.9c0,0,0,0,0,0h0c-.4,0-.7-.3-.7-.7v-10.6c0-.4.3-.8.8-.8Z"/>
    <path class="st5" d="M2530.6,438.6h0c0,0,0,0,0,0v9.2c0,0,0,0,0,0h0c-.4,0-.7-.3-.7-.7v-7.8c0-.4.3-.8.8-.8Z"/>
    <path class="st5" d="M2530.6,459.5h0c0,0,0,0,0,0v9.2c0,0,0,0,0,0h0c-.4,0-.7-.3-.7-.7v-7.8c0-.4.3-.8.8-.8Z"/>
    <rect class="st5" x="2530.7" y="379.4" width="121.3" height="253.7" rx="21.8" ry="21.8"/>
    <rect class="st5" x="2532.5" y="381.4" width="117.6" height="249.9" rx="21.4" ry="21.4"/>
    <circle class="st5" cx="2591.6" cy="391.9" r="2.2"/>
    <g>
      <circle cx="2591.6" cy="391.8" r="1.2"/>
      <g class="st25">
        <circle class="st13" cx="2590.9" cy="391" r=".4"/>
        <circle class="st5" cx="2590.8" cy="390.9" r=".4"/>
        <polygon class="st13" points="2591.3 390.8 2591.2 390.5 2590.4 391.3 2590.6 391.4 2591.3 390.8"/>
      </g>
      <circle class="st9" cx="2591.6" cy="391.8" r="1.2"/>
    </g>
    <rect class="st5" x="2580.8" y="398.7" width="22.1" height="5.1" rx="2.6" ry="2.6"/>
    <rect class="st5" x="2582.5" y="400" width="18.6" height="2.7" rx="1.3" ry="1.3"/>
    <circle class="st13" cx="2586" cy="400.4" r=".3"/>
    <circle class="st13" cx="2586" cy="401.3" r=".3"/>
    <circle class="st13" cx="2586" cy="402.3" r=".3"/>
    <circle class="st13" cx="2586.7" cy="401.8" r=".3"/>
    <path class="st13" d="M2587,400c0,.2-.1.3-.3.3s-.3-.1-.3-.3"/>
    <circle class="st13" cx="2586.7" cy="400.9" r=".3"/>
    <circle class="st13" cx="2586.7" cy="400.9" r=".3"/>
    <circle class="st13" cx="2587.5" cy="400.4" r=".3"/>
    <path class="st13" d="M2586.4,402.7c0-.2.1-.3.3-.3s.3.1.3.3"/>
    <circle class="st13" cx="2587.5" cy="400.4" r=".3"/>
    <circle class="st13" cx="2587.5" cy="401.3" r=".3"/>
    <circle class="st13" cx="2587.5" cy="402.3" r=".3"/>
    <circle class="st13" cx="2585.2" cy="401.8" r=".3"/>
    <path class="st13" d="M2585.5,400c0,.2-.1.3-.3.3s-.3-.1-.3-.3"/>
    <circle class="st13" cx="2585.2" cy="400.9" r=".3"/>
    <path class="st13" d="M2584.9,402.7c0-.2.1-.3.3-.3s.3.1.3.3"/>
    <circle class="st13" cx="2586" cy="400.4" r=".3"/>
    <circle class="st13" cx="2586" cy="401.3" r=".3"/>
    <circle class="st13" cx="2586" cy="402.3" r=".3"/>
    <circle class="st13" cx="2583.7" cy="401.8" r=".3"/>
    <path class="st13" d="M2584,400c0,.2-.1.3-.3.3s-.3-.1-.3-.3"/>
    <circle class="st13" cx="2583.7" cy="400.9" r=".3"/>
    <path class="st13" d="M2583.4,402.7c0-.2.1-.3.3-.3s.3.1.3.3"/>
    <circle class="st13" cx="2584.5" cy="400.4" r=".3"/>
    <circle class="st13" cx="2584.5" cy="401.3" r=".3"/>
    <circle class="st13" cx="2584.5" cy="402.3" r=".3"/>
    <path class="st13" d="M2583.2,400.1c.1.1.2.3,0,.4s-.3.2-.4,0"/>
    <circle class="st13" cx="2583" cy="401.3" r=".3"/>
    <path class="st13" d="M2582.7,402.1c0-.2.3-.2.4-.1s.2.3.1.4"/>
    <circle class="st13" cx="2588.2" cy="401.8" r=".3"/>
    <path class="st13" d="M2588.5,400c0,.2-.1.3-.3.3s-.3-.1-.3-.3"/>
    <circle class="st13" cx="2588.2" cy="400.9" r=".3"/>
    <path class="st13" d="M2587.9,402.7c0-.2.1-.3.3-.3s.3.1.3.3"/>
    <circle class="st13" cx="2589" cy="400.4" r=".3"/>
    <circle class="st13" cx="2589" cy="401.3" r=".3"/>
    <circle class="st13" cx="2589" cy="402.3" r=".3"/>
    <circle class="st13" cx="2589.7" cy="401.8" r=".3"/>
    <path class="st13" d="M2590,400c0,.2-.1.3-.3.3s-.3-.1-.3-.3"/>
    <circle class="st13" cx="2589.7" cy="400.9" r=".3"/>
    <path class="st13" d="M2589.4,402.7c0-.2.1-.3.3-.3s.3.1.3.3"/>
    <circle class="st13" cx="2590.5" cy="400.4" r=".3"/>
    <circle class="st13" cx="2590.5" cy="401.3" r=".3"/>
    <circle class="st13" cx="2590.5" cy="402.3" r=".3"/>
    <circle class="st13" cx="2591.2" cy="401.8" r=".3"/>
    <path class="st13" d="M2591.5,399.9c0,.2-.1.3-.3.3s-.3-.1-.3-.3"/>
    <circle class="st13" cx="2591.2" cy="400.9" r=".3"/>
    <path class="st13" d="M2590.9,402.7c0-.2.1-.3.3-.3s.3.1.3.3"/>
    <circle class="st13" cx="2592" cy="400.4" r=".3"/>
    <circle class="st13" cx="2592" cy="401.3" r=".3"/>
    <circle class="st13" cx="2592" cy="402.2" r=".3"/>
    <circle class="st13" cx="2592.7" cy="401.8" r=".3"/>
    <path class="st13" d="M2593,399.9c0,.2-.1.3-.3.3s-.3-.1-.3-.3"/>
    <circle class="st13" cx="2592.7" cy="400.8" r=".3"/>
    <path class="st13" d="M2592.4,402.7c0-.2.1-.3.3-.3s.3.1.3.3"/>
    <circle class="st13" cx="2593.5" cy="400.4" r=".3"/>
    <circle class="st13" cx="2593.5" cy="401.3" r=".3"/>
    <circle class="st13" cx="2593.5" cy="402.2" r=".3"/>
    <circle class="st13" cx="2594.2" cy="401.8" r=".3"/>
    <path class="st13" d="M2594.5,399.9c0,.2-.1.3-.3.3s-.3-.1-.3-.3"/>
    <circle class="st13" cx="2594.2" cy="400.8" r=".3"/>
    <path class="st13" d="M2593.9,402.7c0-.2.1-.3.3-.3s.3.1.3.3"/>
    <circle class="st13" cx="2595" cy="400.4" r=".3"/>
    <circle class="st13" cx="2595" cy="401.3" r=".3"/>
    <circle class="st13" cx="2595" cy="402.2" r=".3"/>
    <circle class="st13" cx="2595.7" cy="401.8" r=".3"/>
    <path class="st13" d="M2596,399.9c0,.2-.1.3-.3.3s-.3-.1-.3-.3"/>
    <circle class="st13" cx="2595.7" cy="400.8" r=".3"/>
    <path class="st13" d="M2595.4,402.7c0-.2.1-.3.3-.3s.3.1.3.3"/>
    <circle class="st13" cx="2596.5" cy="400.4" r=".3"/>
    <circle class="st13" cx="2596.5" cy="401.3" r=".3"/>
    <circle class="st13" cx="2596.5" cy="402.2" r=".3"/>
    <circle class="st13" cx="2597.2" cy="401.8" r=".3"/>
    <path class="st13" d="M2597.5,399.9c0,.2-.1.3-.3.3s-.3-.1-.3-.3"/>
    <circle class="st13" cx="2597.2" cy="400.8" r=".3"/>
    <path class="st13" d="M2596.9,402.7c0-.2.1-.3.3-.3s.3.1.3.3"/>
    <circle class="st13" cx="2598" cy="400.4" r=".3"/>
    <circle class="st13" cx="2598" cy="401.3" r=".3"/>
    <circle class="st13" cx="2598" cy="402.2" r=".3"/>
    <circle class="st13" cx="2598.7" cy="401.8" r=".3"/>
    <path class="st13" d="M2599,399.9c0,.2-.1.3-.3.3s-.3-.1-.3-.3"/>
    <circle class="st13" cx="2598.7" cy="400.8" r=".3"/>
    <path class="st13" d="M2598.4,402.7c0-.2.1-.3.3-.3s.3.1.3.3"/>
    <circle class="st13" cx="2599.5" cy="400.4" r=".3"/>
    <circle class="st13" cx="2599.5" cy="401.3" r=".3"/>
    <circle class="st13" cx="2599.5" cy="402.2" r=".3"/>
    <circle class="st13" cx="2600.2" cy="401.8" r=".3"/>
    <path class="st13" d="M2600.5,399.9c0,.2-.1.3-.3.3s-.3-.1-.3-.3"/>
    <circle class="st13" cx="2600.2" cy="400.8" r=".3"/>
    <path class="st13" d="M2599.9,402.7c0-.2.1-.3.3-.3s.3.1.3.3"/>
    <path class="st13" d="M2601,400.7c-.2,0-.3-.1-.3-.3"/>
    <circle class="st13" cx="2601" cy="401.3" r=".3"/>
    <path class="st13" d="M2600.6,402.2c0-.2.1-.3.3-.3"/>
    <circle class="st13" cx="2591.6" cy="391.8" r=".4"/>
    <circle class="st13" cx="2592" cy="392.2" r=".4"/>
    <circle class="st13" cx="2591.3" cy="391.5" r=".2"/>
    <circle class="st5" cx="2591.3" cy="614.4" r="11.1"/>
    <path class="st11" d="M2542.5,414.6h98.6c2.2,0,4,1.8,4,4v176.2c0,1.9-1.6,3.5-3.5,3.5h-99.5c-1.9,0-3.5-1.6-3.5-3.5v-176.2c0-2.2,1.8-4,4-4Z"/>
    <path class="st5" d="M2589.6,610.5h2.9c1.1,0,2.1.9,2.1,2.1v2.9c0,1.1-.9,2.1-2.1,2.1h-2.9c-1.1,0-2.1-.9-2.1-2.1v-2.9c0-1.1.9-2.1,2.1-2.1Z"/>
  </g>
  <g>
    <path class="st5" d="M3962.2,629s1.3,14.8,1.7,20.2c.3,5.4,1.3,8.8,4.7,13,3.3,4.2,7.7,6.9,10.7,9.4s5,6-5.3,7.2c-4.8.6-14.5.3-19.3.3h-80c-4.8,0-14.5.3-19.3-.3-10.3-1.3-8.3-4.8-5.3-7.2s7.3-5.1,10.7-9.4,4.3-7.5,4.7-13c.3-5.4,1.7-20.2,1.7-20.2h95.3Z"/>
    <rect class="st5" x="3691.8" y="322.3" width="445.7" height="306.7" rx="9" ry="9"/>
    <path class="st5" d="M3922.3,604c-2.4-3.6-4-3.4-6.1-2.1s-1.2-1.7-5.3-.9-8,8.7-1.2,14.4,3.5-1.2,4.9-.5c6.4,3.4,8.3-3.9,8.3-3.9-7.1-3.2-.6-6.9-.6-6.9Z"/>
    <path class="st5" d="M3915.3,600.8c.4,0,1,.1,2.4-1.5s.8-2.5-.2-2.5c-1.7,0-3.3,3.8-2.2,4Z"/>
    <rect class="st11" x="3707.3" y="338.8" width="413.6" height="233.3" rx="3" ry="3"/>
    <line class="st5" x1="3692" y1="587.5" x2="4138" y2="587.5"/>
  </g>
  <g>
    <rect class="st13" x="2762.2" y="336" width="196.7" height="309.5" rx="22.2" ry="22.2"/>
    <path class="st4" d="M2775.2,614.5c-1.2,0-2.2-.8-2.2-1.8v-248.8c0-1,1-1.8,2.2-1.8h170c1.2,0,2.2.8,2.2,1.8v248.8c0,1-1,1.8-2.2,1.8h-170Z"/>
    <ellipse class="st13" cx="2860.6" cy="629.9" rx="11.6" ry="10.5"/>
    <circle class="st13" cx="2860.6" cy="349.5" r="2"/>
  </g>
  <g>
    <path class="st18" d="M3079.9,1609.3v-300.4c0-4.8,3.9-8.7,8.7-8.7h193.9c.5,0,.9-.3,1-.7.4-1.2,1.5-2.1,2.8-2.1h39c1.3,0,2.5.9,2.8,2.1.1.4.5.7,1,.7h183.7c10,0,18.1,8.1,18.1,18.1v288.9c0,1.1-.9,2.1-2.1,2.1h-449.1Z"/>
    <path d="M3325.4,1297.8c1.1,0,2.2.8,2.5,1.9.2.6.7,1,1.4,1h183.7c9.8,0,17.8,8,17.8,17.8v288.9c0,.9-.8,1.7-1.7,1.7h-448.7v-300c0-4.6,3.7-8.3,8.3-8.3h193.9c.6,0,1.2-.4,1.4-1,.3-1.1,1.4-1.9,2.5-1.9h39M3325.4,1297h-39c-1.5,0-2.8,1-3.2,2.4,0,.3-.4.5-.6.5h-193.9c-5,0-9.1,4.1-9.1,9.1v300.8h449.4c1.4,0,2.5-1.1,2.5-2.5v-288.9c0-10.2-8.3-18.5-18.5-18.5h-183.7c-.3,0-.6-.2-.6-.5-.4-1.4-1.7-2.4-3.2-2.4h0Z"/>
  </g>
  <g>
    <path class="st18" d="M3066,1624.6c-10.8,0-19.6-8.8-19.6-19.6s.8-1.8,1.8-1.8h515.6c.9,0,1.6.7,1.6,1.6v.2c0,10.8-8.8,19.5-19.5,19.5h-479.8Z"/>
    <path d="M3563.7,1603.6c.7,0,1.3.6,1.3,1.3v.2c0,10.6-8.6,19.1-19.1,19.1h-479.8c-10.6,0-19.3-8.6-19.3-19.3s.6-1.4,1.4-1.4h515.6M3563.7,1602.9h-515.6c-1.2,0-2.1,1-2.1,2.1,0,11,9,20,20,20h479.8c11,0,19.9-8.9,19.9-19.9v-.2c0-1.1-.9-2-2-2h0Z"/>
  </g>
  <g>
    <path class="st18" d="M3305.9,1316.2c-3.4,0-6.2-2.8-6.2-6.2s2.8-6.2,6.2-6.2,6.2,2.8,6.2,6.2-2.8,6.2-6.2,6.2Z"/>
    <path d="M3305.9,1304.3c3.2,0,5.8,2.6,5.8,5.8s-2.6,5.8-5.8,5.8-5.8-2.6-5.8-5.8,2.6-5.8,5.8-5.8M3305.9,1303.5c-3.6,0-6.6,2.9-6.6,6.6s2.9,6.6,6.6,6.6,6.6-2.9,6.6-6.6-2.9-6.6-6.6-6.6h0Z"/>
  </g>
  <g>
    <path class="st18" d="M3305.9,1313c-1.6,0-2.9-1.3-2.9-2.9s1.3-2.9,2.9-2.9,2.9,1.3,2.9,2.9-1.3,2.9-2.9,2.9Z"/>
    <path d="M3305.9,1307.5c1.4,0,2.5,1.1,2.5,2.5s-1.1,2.5-2.5,2.5-2.5-1.1-2.5-2.5,1.1-2.5,2.5-2.5M3305.9,1306.8c-1.8,0-3.3,1.5-3.3,3.3s1.5,3.3,3.3,3.3,3.3-1.5,3.3-3.3-1.5-3.3-3.3-3.3h0Z"/>
  </g>
  <path class="st11" d="M3519.8,1577c0,1.8-1.4,3.3-3.1,3.3h-421.7c-1.7,0-3.1-1.5-3.1-3.3v-250.1c0-1.8,1.4-3.3,3.1-3.3h421.7c1.7,0,3.1,1.5,3.1,3.3v250.1Z"/>
  <path class="st14" d="M3066,1625h479.8c5.6,0,10.1-2.8,13.7-6.5h-507.2c3.6,3.6,8,6.5,13.6,6.5Z"/>
  <path class="st14" d="M3264.5,1603.5h82c0,3.9-3.1,7-7,7h-68c-3.9,0-7-3.1-7-7h0Z"/>
  <path class="st14" d="M2605.3,1352h10.4c.7,0,1.3.6,1.3,1.3h-13.1c0-.7.6-1.3,1.3-1.3Z"/>
  <path class="st14" d="M2522.6,1388.6h0c0,0,0,0,0,0v11.9c0,0,0,0,0,0h0c-.4,0-.7-.3-.7-.7v-10.6c0-.4.3-.8.8-.8Z"/>
  <path class="st14" d="M2522.6,1412.6h0c0,0,0,0,0,0v9.2c0,0,0,0,0,0h0c-.4,0-.7-.3-.7-.7v-7.8c0-.4.3-.8.8-.8Z"/>
  <path class="st14" d="M2522.6,1433.5h0c0,0,0,0,0,0v9.2c0,0,0,0,0,0h0c-.4,0-.7-.3-.7-.7v-7.8c0-.4.3-.8.8-.8Z"/>
  <rect class="st14" x="2522.7" y="1353.4" width="121.3" height="253.7" rx="21.8" ry="21.8"/>
  <rect class="st14" x="2524.5" y="1355.4" width="117.6" height="249.9" rx="21.4" ry="21.4"/>
  <circle class="st14" cx="2583.6" cy="1365.9" r="2.2"/>
  <g>
    <circle class="st18" cx="2583.6" cy="1365.8" r="1.2"/>
    <g class="st22">
      <circle class="st6" cx="2582.9" cy="1365" r=".4"/>
      <circle class="st14" cx="2582.8" cy="1364.9" r=".4"/>
      <polygon class="st6" points="2583.3 1364.8 2583.2 1364.5 2582.4 1365.3 2582.6 1365.4 2583.3 1364.8"/>
    </g>
    <circle class="st3" cx="2583.6" cy="1365.8" r="1.2"/>
  </g>
  <rect class="st14" x="2572.8" y="1372.7" width="22.1" height="5.1" rx="2.6" ry="2.6"/>
  <rect class="st14" x="2574.5" y="1374" width="18.6" height="2.7" rx="1.3" ry="1.3"/>
  <circle class="st6" cx="2578" cy="1374.4" r=".3"/>
  <circle class="st6" cx="2578" cy="1375.3" r=".3"/>
  <circle class="st6" cx="2578" cy="1376.3" r=".3"/>
  <circle class="st6" cx="2578.7" cy="1375.8" r=".3"/>
  <path class="st6" d="M2579,1374c0,.2-.1.3-.3.3s-.3-.1-.3-.3"/>
  <circle class="st6" cx="2578.7" cy="1374.9" r=".3"/>
  <circle class="st6" cx="2578.7" cy="1374.9" r=".3"/>
  <circle class="st6" cx="2579.5" cy="1374.4" r=".3"/>
  <path class="st6" d="M2578.4,1376.7c0-.2.1-.3.3-.3s.3.1.3.3"/>
  <circle class="st6" cx="2579.5" cy="1374.4" r=".3"/>
  <circle class="st6" cx="2579.5" cy="1375.3" r=".3"/>
  <circle class="st6" cx="2579.5" cy="1376.3" r=".3"/>
  <circle class="st6" cx="2577.2" cy="1375.8" r=".3"/>
  <path class="st6" d="M2577.5,1374c0,.2-.1.3-.3.3s-.3-.1-.3-.3"/>
  <circle class="st6" cx="2577.2" cy="1374.9" r=".3"/>
  <path class="st6" d="M2576.9,1376.7c0-.2.1-.3.3-.3s.3.1.3.3"/>
  <circle class="st6" cx="2578" cy="1374.4" r=".3"/>
  <circle class="st6" cx="2578" cy="1375.3" r=".3"/>
  <circle class="st6" cx="2578" cy="1376.3" r=".3"/>
  <circle class="st6" cx="2575.7" cy="1375.8" r=".3"/>
  <path class="st6" d="M2576,1374c0,.2-.1.3-.3.3s-.3-.1-.3-.3"/>
  <circle class="st6" cx="2575.7" cy="1374.9" r=".3"/>
  <path class="st6" d="M2575.4,1376.7c0-.2.1-.3.3-.3s.3.1.3.3"/>
  <circle class="st6" cx="2576.5" cy="1374.4" r=".3"/>
  <circle class="st6" cx="2576.5" cy="1375.3" r=".3"/>
  <circle class="st6" cx="2576.5" cy="1376.3" r=".3"/>
  <path class="st6" d="M2575.2,1374.1c.1.1.2.3,0,.4s-.3.2-.4,0"/>
  <circle class="st6" cx="2575" cy="1375.3" r=".3"/>
  <path class="st6" d="M2574.7,1376.1c0-.2.3-.2.4-.1s.2.3.1.4"/>
  <circle class="st6" cx="2580.2" cy="1375.8" r=".3"/>
  <path class="st6" d="M2580.5,1374c0,.2-.1.3-.3.3s-.3-.1-.3-.3"/>
  <circle class="st6" cx="2580.2" cy="1374.9" r=".3"/>
  <path class="st6" d="M2579.9,1376.7c0-.2.1-.3.3-.3s.3.1.3.3"/>
  <circle class="st6" cx="2581" cy="1374.4" r=".3"/>
  <circle class="st6" cx="2581" cy="1375.3" r=".3"/>
  <circle class="st6" cx="2581" cy="1376.3" r=".3"/>
  <circle class="st6" cx="2581.7" cy="1375.8" r=".3"/>
  <path class="st6" d="M2582,1374c0,.2-.1.3-.3.3s-.3-.1-.3-.3"/>
  <circle class="st6" cx="2581.7" cy="1374.9" r=".3"/>
  <path class="st6" d="M2581.4,1376.7c0-.2.1-.3.3-.3s.3.1.3.3"/>
  <circle class="st6" cx="2582.5" cy="1374.4" r=".3"/>
  <circle class="st6" cx="2582.5" cy="1375.3" r=".3"/>
  <circle class="st6" cx="2582.5" cy="1376.3" r=".3"/>
  <circle class="st6" cx="2583.2" cy="1375.8" r=".3"/>
  <path class="st6" d="M2583.5,1373.9c0,.2-.1.3-.3.3s-.3-.1-.3-.3"/>
  <circle class="st6" cx="2583.2" cy="1374.9" r=".3"/>
  <path class="st6" d="M2582.9,1376.7c0-.2.1-.3.3-.3s.3.1.3.3"/>
  <circle class="st6" cx="2584" cy="1374.4" r=".3"/>
  <circle class="st6" cx="2584" cy="1375.3" r=".3"/>
  <circle class="st6" cx="2584" cy="1376.2" r=".3"/>
  <circle class="st6" cx="2584.7" cy="1375.8" r=".3"/>
  <path class="st6" d="M2585,1373.9c0,.2-.1.3-.3.3s-.3-.1-.3-.3"/>
  <circle class="st6" cx="2584.7" cy="1374.8" r=".3"/>
  <path class="st6" d="M2584.4,1376.7c0-.2.1-.3.3-.3s.3.1.3.3"/>
  <circle class="st6" cx="2585.5" cy="1374.4" r=".3"/>
  <circle class="st6" cx="2585.5" cy="1375.3" r=".3"/>
  <circle class="st6" cx="2585.5" cy="1376.2" r=".3"/>
  <circle class="st6" cx="2586.2" cy="1375.8" r=".3"/>
  <path class="st6" d="M2586.5,1373.9c0,.2-.1.3-.3.3s-.3-.1-.3-.3"/>
  <circle class="st6" cx="2586.2" cy="1374.8" r=".3"/>
  <path class="st6" d="M2585.9,1376.7c0-.2.1-.3.3-.3s.3.1.3.3"/>
  <circle class="st6" cx="2587" cy="1374.4" r=".3"/>
  <circle class="st6" cx="2587" cy="1375.3" r=".3"/>
  <circle class="st6" cx="2587" cy="1376.2" r=".3"/>
  <circle class="st6" cx="2587.7" cy="1375.8" r=".3"/>
  <path class="st6" d="M2588,1373.9c0,.2-.1.3-.3.3s-.3-.1-.3-.3"/>
  <circle class="st6" cx="2587.7" cy="1374.8" r=".3"/>
  <path class="st6" d="M2587.4,1376.7c0-.2.1-.3.3-.3s.3.1.3.3"/>
  <circle class="st6" cx="2588.5" cy="1374.4" r=".3"/>
  <circle class="st6" cx="2588.5" cy="1375.3" r=".3"/>
  <circle class="st6" cx="2588.5" cy="1376.2" r=".3"/>
  <circle class="st6" cx="2589.2" cy="1375.8" r=".3"/>
  <path class="st6" d="M2589.5,1373.9c0,.2-.1.3-.3.3s-.3-.1-.3-.3"/>
  <circle class="st6" cx="2589.2" cy="1374.8" r=".3"/>
  <path class="st6" d="M2588.9,1376.7c0-.2.1-.3.3-.3s.3.1.3.3"/>
  <circle class="st6" cx="2590" cy="1374.4" r=".3"/>
  <circle class="st6" cx="2590" cy="1375.3" r=".3"/>
  <circle class="st6" cx="2590" cy="1376.2" r=".3"/>
  <circle class="st6" cx="2590.7" cy="1375.8" r=".3"/>
  <path class="st6" d="M2591,1373.9c0,.2-.1.3-.3.3s-.3-.1-.3-.3"/>
  <circle class="st6" cx="2590.7" cy="1374.8" r=".3"/>
  <path class="st6" d="M2590.4,1376.7c0-.2.1-.3.3-.3s.3.1.3.3"/>
  <circle class="st6" cx="2591.5" cy="1374.4" r=".3"/>
  <circle class="st6" cx="2591.5" cy="1375.3" r=".3"/>
  <circle class="st6" cx="2591.5" cy="1376.2" r=".3"/>
  <circle class="st6" cx="2592.2" cy="1375.8" r=".3"/>
  <path class="st6" d="M2592.5,1373.9c0,.2-.1.3-.3.3s-.3-.1-.3-.3"/>
  <circle class="st6" cx="2592.2" cy="1374.8" r=".3"/>
  <path class="st6" d="M2591.9,1376.7c0-.2.1-.3.3-.3s.3.1.3.3"/>
  <path class="st6" d="M2593,1374.7c-.2,0-.3-.1-.3-.3"/>
  <circle class="st6" cx="2593" cy="1375.3" r=".3"/>
  <path class="st6" d="M2592.6,1376.2c0-.2.1-.3.3-.3"/>
  <circle class="st6" cx="2583.6" cy="1365.8" r=".4"/>
  <circle class="st6" cx="2584" cy="1366.2" r=".4"/>
  <circle class="st6" cx="2583.3" cy="1365.5" r=".2"/>
  <circle class="st14" cx="2583.3" cy="1588.4" r="11.1"/>
  <path class="st11" d="M2534.5,1388.6h98.6c2.2,0,4,1.8,4,4v176.2c0,1.9-1.6,3.5-3.5,3.5h-99.5c-1.9,0-3.5-1.6-3.5-3.5v-176.2c0-2.2,1.8-4,4-4Z"/>
  <rect class="st14" x="2579.5" y="1584.5" width="7" height="7" rx="2.1" ry="2.1"/>
  <path class="st14" d="M3954.2,1603s1.3,14.8,1.7,20.2c.3,5.4,1.3,8.8,4.7,13,3.3,4.2,7.7,6.9,10.7,9.4s5,6-5.3,7.2c-4.8.6-14.5.3-19.3.3h-80c-4.8,0-14.5.3-19.3-.3-10.3-1.3-8.3-4.8-5.3-7.2s7.3-5.1,10.7-9.4c3.3-4.2,4.3-7.5,4.7-13,.3-5.4,1.7-20.2,1.7-20.2h95.3Z"/>
  <rect class="st14" x="3683.8" y="1296.3" width="445.7" height="306.7" rx="9" ry="9"/>
  <path class="st14" d="M3914.3,1578c-2.4-3.6-4-3.4-6.1-2.1s-1.2-1.7-5.3-.9c-5.4,1.1-8,8.7-1.2,14.4,1.3,1.1,3.5-1.2,4.9-.5,6.4,3.4,8.3-3.9,8.3-3.9-7.1-3.2-.6-6.9-.6-6.9Z"/>
  <path class="st14" d="M3907.3,1574.8c.4,0,1,.1,2.4-1.5.9-1.1.8-2.5-.2-2.5-1.7,0-3.3,3.8-2.2,4Z"/>
  <rect class="st11" x="3699.3" y="1312.8" width="413.6" height="233.3" rx="3" ry="3"/>
  <line class="st14" x1="3684" y1="1561.5" x2="4130" y2="1561.5"/>
  <rect class="st6" x="2754.2" y="1310" width="196.7" height="309.5" rx="22.2" ry="22.2"/>
  <path class="st11" d="M2767.2,1588.5c-1.2,0-2.2-.8-2.2-1.8v-248.8c0-1,1-1.8,2.2-1.8h170c1.2,0,2.2.8,2.2,1.8v248.8c0,1-1,1.8-2.2,1.8h-170Z"/>
  <ellipse class="st6" cx="2852.6" cy="1603.9" rx="11.6" ry="10.5"/>
  <circle class="st6" cx="2852.6" cy="1323.5" r="2"/>
  <polygon class="st15" points="187.4 537.4 124.9 537.4 93.7 591.5 124.9 645.6 187.4 645.6 218.6 591.5 187.4 537.4"/>
  <polygon class="st15" points="187.4 429.4 124.9 429.4 93.7 483.5 124.9 537.6 187.4 537.6 218.6 483.5 187.4 429.4"/>
  <polygon class="st15" points="93.7 483.1 31.2 483.1 0 537.2 31.2 591.3 93.7 591.3 124.9 537.2 93.7 483.1"/>
  <polygon class="st15" points="374.4 537.4 311.9 537.4 280.7 591.5 311.9 645.6 374.4 645.6 405.6 591.5 374.4 537.4"/>
  <polygon class="st15" points="280.7 591.1 218.2 591.1 187 645.2 218.2 699.3 280.7 699.3 311.9 645.2 280.7 591.1"/>
  <polygon class="st15" points="374.4 429.4 311.9 429.4 280.7 483.5 311.9 537.6 374.4 537.6 405.6 483.5 374.4 429.4"/>
  <polygon class="st15" points="280.7 483.1 218.2 483.1 187 537.2 218.2 591.3 280.7 591.3 311.9 537.2 280.7 483.1"/>
  <polygon class="st15" points="561.4 537.4 498.9 537.4 467.7 591.5 498.9 645.6 561.4 645.6 592.6 591.5 561.4 537.4"/>
  <polygon class="st15" points="467.7 591.1 405.2 591.1 374 645.2 405.2 699.3 467.7 699.3 498.9 645.2 467.7 591.1"/>
  <polygon class="st15" points="561.4 429.4 498.9 429.4 467.7 483.5 498.9 537.6 561.4 537.6 592.6 483.5 561.4 429.4"/>
  <polygon class="st15" points="467.7 483.1 405.2 483.1 374 537.2 405.2 591.3 467.7 591.3 498.9 537.2 467.7 483.1"/>
  <polygon class="st15" points="748.4 537.4 685.9 537.4 654.7 591.5 685.9 645.6 748.4 645.6 779.6 591.5 748.4 537.4"/>
  <polygon class="st15" points="654.7 591.1 592.2 591.1 561 645.2 592.2 699.3 654.7 699.3 685.9 645.2 654.7 591.1"/>
  <polygon class="st15" points="748.4 429.4 685.9 429.4 654.7 483.5 685.9 537.6 748.4 537.6 779.6 483.5 748.4 429.4"/>
  <polygon class="st15" points="654.7 483.1 592.2 483.1 561 537.2 592.2 591.3 654.7 591.3 685.9 537.2 654.7 483.1"/>
  <polygon class="st15" points="935.4 537.4 872.9 537.4 841.7 591.5 872.9 645.6 935.4 645.6 966.6 591.5 935.4 537.4"/>
  <polygon class="st15" points="841.7 591.1 779.2 591.1 748 645.2 779.2 699.3 841.7 699.3 872.9 645.2 841.7 591.1"/>
  <polygon class="st15" points="935.4 429.4 872.9 429.4 841.7 483.5 872.9 537.6 935.4 537.6 966.6 483.5 935.4 429.4"/>
  <polygon class="st15" points="841.7 483.1 779.2 483.1 748 537.2 779.2 591.3 841.7 591.3 872.9 537.2 841.7 483.1"/>
  <polygon class="st15" points="1122.4 537.4 1059.9 537.4 1028.7 591.5 1059.9 645.6 1122.4 645.6 1153.6 591.5 1122.4 537.4"/>
  <polygon class="st15" points="1028.7 591.1 966.2 591.1 935 645.2 966.2 699.3 1028.7 699.3 1059.9 645.2 1028.7 591.1"/>
  <polygon class="st15" points="1122.4 429.4 1059.9 429.4 1028.7 483.5 1059.9 537.6 1122.4 537.6 1153.6 483.5 1122.4 429.4"/>
  <polygon class="st15" points="1028.7 483.1 966.2 483.1 935 537.2 966.2 591.3 1028.7 591.3 1059.9 537.2 1028.7 483.1"/>
  <polygon class="st15" points="1309.4 537.4 1246.9 537.4 1215.7 591.5 1246.9 645.6 1309.4 645.6 1340.6 591.5 1309.4 537.4"/>
  <polygon class="st15" points="1215.7 591.1 1153.2 591.1 1122 645.2 1153.2 699.3 1215.7 699.3 1246.9 645.2 1215.7 591.1"/>
  <polygon class="st15" points="1309.4 429.4 1246.9 429.4 1215.7 483.5 1246.9 537.6 1309.4 537.6 1340.6 483.5 1309.4 429.4"/>
  <polygon class="st15" points="1215.7 483.1 1153.2 483.1 1122 537.2 1153.2 591.3 1215.7 591.3 1246.9 537.2 1215.7 483.1"/>
  <polygon class="st15" points="1496.4 537.4 1433.9 537.4 1402.7 591.5 1433.9 645.6 1496.4 645.6 1527.6 591.5 1496.4 537.4"/>
  <polygon class="st15" points="1402.7 591.1 1340.2 591.1 1309 645.2 1340.2 699.3 1402.7 699.3 1433.9 645.2 1402.7 591.1"/>
  <polygon class="st15" points="1496.4 429.4 1433.9 429.4 1402.7 483.5 1433.9 537.6 1496.4 537.6 1527.6 483.5 1496.4 429.4"/>
  <polygon class="st15" points="1402.7 483.1 1340.2 483.1 1309 537.2 1340.2 591.3 1402.7 591.3 1433.9 537.2 1402.7 483.1"/>
  <polygon class="st15" points="1683.4 537.4 1620.9 537.4 1589.7 591.5 1620.9 645.6 1683.4 645.6 1714.6 591.5 1683.4 537.4"/>
  <polygon class="st15" points="1589.7 591.1 1527.2 591.1 1496 645.2 1527.2 699.3 1589.7 699.3 1620.9 645.2 1589.7 591.1"/>
  <polygon class="st15" points="1683.4 429.4 1620.9 429.4 1589.7 483.5 1620.9 537.6 1683.4 537.6 1714.6 483.5 1683.4 429.4"/>
  <polygon class="st15" points="1589.7 483.1 1527.2 483.1 1496 537.2 1527.2 591.3 1589.7 591.3 1620.9 537.2 1589.7 483.1"/>
  <polygon class="st15" points="1871.4 537.4 1808.9 537.4 1777.7 591.5 1808.9 645.6 1871.4 645.6 1902.6 591.5 1871.4 537.4"/>
  <polygon class="st15" points="1777.7 591.1 1715.2 591.1 1684 645.2 1715.2 699.3 1777.7 699.3 1808.9 645.2 1777.7 591.1"/>
  <polygon class="st15" points="1871.4 429.4 1808.9 429.4 1777.7 483.5 1808.9 537.6 1871.4 537.6 1902.6 483.5 1871.4 429.4"/>
  <polygon class="st15" points="1777.7 483.1 1715.2 483.1 1684 537.2 1715.2 591.3 1777.7 591.3 1808.9 537.2 1777.7 483.1"/>
  <polygon class="st15" points="187.4 321.4 124.9 321.4 93.7 375.5 124.9 429.6 187.4 429.6 218.6 375.5 187.4 321.4"/>
  <polygon class="st15" points="93.7 375.1 31.2 375.1 0 429.2 31.2 483.3 93.7 483.3 124.9 429.2 93.7 375.1"/>
  <polygon class="st15" points="187.4 213.4 124.9 213.4 93.7 267.5 124.9 321.6 187.4 321.6 218.6 267.5 187.4 213.4"/>
  <polygon class="st15" points="93.7 267.1 31.2 267.1 0 321.2 31.2 375.3 93.7 375.3 124.9 321.2 93.7 267.1"/>
  <polygon class="st15" points="374.4 321.4 311.9 321.4 280.7 375.5 311.9 429.6 374.4 429.6 405.6 375.5 374.4 321.4"/>
  <polygon class="st15" points="280.7 375.1 218.2 375.1 187 429.2 218.2 483.3 280.7 483.3 311.9 429.2 280.7 375.1"/>
  <polygon class="st15" points="374.4 213.4 311.9 213.4 280.7 267.5 311.9 321.6 374.4 321.6 405.6 267.5 374.4 213.4"/>
  <polygon class="st15" points="280.7 267.1 218.2 267.1 187 321.2 218.2 375.3 280.7 375.3 311.9 321.2 280.7 267.1"/>
  <polygon class="st15" points="561.4 321.4 498.9 321.4 467.7 375.5 498.9 429.6 561.4 429.6 592.6 375.5 561.4 321.4"/>
  <polygon class="st15" points="467.7 375.1 405.2 375.1 374 429.2 405.2 483.3 467.7 483.3 498.9 429.2 467.7 375.1"/>
  <polygon class="st15" points="561.4 213.4 498.9 213.4 467.7 267.5 498.9 321.6 561.4 321.6 592.6 267.5 561.4 213.4"/>
  <polygon class="st15" points="467.7 267.1 405.2 267.1 374 321.2 405.2 375.3 467.7 375.3 498.9 321.2 467.7 267.1"/>
  <polygon class="st15" points="748.4 321.4 685.9 321.4 654.7 375.5 685.9 429.6 748.4 429.6 779.6 375.5 748.4 321.4"/>
  <polygon class="st15" points="654.7 375.1 592.2 375.1 561 429.2 592.2 483.3 654.7 483.3 685.9 429.2 654.7 375.1"/>
  <polygon class="st15" points="748.4 213.4 685.9 213.4 654.7 267.5 685.9 321.6 748.4 321.6 779.6 267.5 748.4 213.4"/>
  <polygon class="st15" points="654.7 267.1 592.2 267.1 561 321.2 592.2 375.3 654.7 375.3 685.9 321.2 654.7 267.1"/>
  <polygon class="st15" points="935.4 321.4 872.9 321.4 841.7 375.5 872.9 429.6 935.4 429.6 966.6 375.5 935.4 321.4"/>
  <polygon class="st15" points="841.7 375.1 779.2 375.1 748 429.2 779.2 483.3 841.7 483.3 872.9 429.2 841.7 375.1"/>
  <polygon class="st15" points="935.4 213.4 872.9 213.4 841.7 267.5 872.9 321.6 935.4 321.6 966.6 267.5 935.4 213.4"/>
  <polygon class="st15" points="841.7 267.1 779.2 267.1 748 321.2 779.2 375.3 841.7 375.3 872.9 321.2 841.7 267.1"/>
  <polygon class="st15" points="1122.4 321.4 1059.9 321.4 1028.7 375.5 1059.9 429.6 1122.4 429.6 1153.6 375.5 1122.4 321.4"/>
  <polygon class="st15" points="1028.7 375.1 966.2 375.1 935 429.2 966.2 483.3 1028.7 483.3 1059.9 429.2 1028.7 375.1"/>
  <polygon class="st15" points="1122.4 213.4 1059.9 213.4 1028.7 267.5 1059.9 321.6 1122.4 321.6 1153.6 267.5 1122.4 213.4"/>
  <polygon class="st15" points="1028.7 267.1 966.2 267.1 935 321.2 966.2 375.3 1028.7 375.3 1059.9 321.2 1028.7 267.1"/>
  <polygon class="st15" points="1309.4 321.4 1246.9 321.4 1215.7 375.5 1246.9 429.6 1309.4 429.6 1340.6 375.5 1309.4 321.4"/>
  <polygon class="st15" points="1215.7 375.1 1153.2 375.1 1122 429.2 1153.2 483.3 1215.7 483.3 1246.9 429.2 1215.7 375.1"/>
  <polygon class="st15" points="1309.4 213.4 1246.9 213.4 1215.7 267.5 1246.9 321.6 1309.4 321.6 1340.6 267.5 1309.4 213.4"/>
  <polygon class="st15" points="1215.7 267.1 1153.2 267.1 1122 321.2 1153.2 375.3 1215.7 375.3 1246.9 321.2 1215.7 267.1"/>
  <polygon class="st15" points="1496.4 321.4 1433.9 321.4 1402.7 375.5 1433.9 429.6 1496.4 429.6 1527.6 375.5 1496.4 321.4"/>
  <polygon class="st15" points="1402.7 375.1 1340.2 375.1 1309 429.2 1340.2 483.3 1402.7 483.3 1433.9 429.2 1402.7 375.1"/>
  <polygon class="st15" points="1496.4 213.4 1433.9 213.4 1402.7 267.5 1433.9 321.6 1496.4 321.6 1527.6 267.5 1496.4 213.4"/>
  <polygon class="st15" points="1402.7 267.1 1340.2 267.1 1309 321.2 1340.2 375.3 1402.7 375.3 1433.9 321.2 1402.7 267.1"/>
  <polygon class="st15" points="1683.4 321.4 1620.9 321.4 1589.7 375.5 1620.9 429.6 1683.4 429.6 1714.6 375.5 1683.4 321.4"/>
  <polygon class="st15" points="1589.7 375.1 1527.2 375.1 1496 429.2 1527.2 483.3 1589.7 483.3 1620.9 429.2 1589.7 375.1"/>
  <polygon class="st15" points="1683.4 213.4 1620.9 213.4 1589.7 267.5 1620.9 321.6 1683.4 321.6 1714.6 267.5 1683.4 213.4"/>
  <polygon class="st15" points="1589.7 267.1 1527.2 267.1 1496 321.2 1527.2 375.3 1589.7 375.3 1620.9 321.2 1589.7 267.1"/>
  <polygon class="st15" points="1871.4 321.4 1808.9 321.4 1777.7 375.5 1808.9 429.6 1871.4 429.6 1902.6 375.5 1871.4 321.4"/>
  <polygon class="st15" points="1777.7 375.1 1715.2 375.1 1684 429.2 1715.2 483.3 1777.7 483.3 1808.9 429.2 1777.7 375.1"/>
  <polygon class="st15" points="1871.4 213.4 1808.9 213.4 1777.7 267.5 1808.9 321.6 1871.4 321.6 1902.6 267.5 1871.4 213.4"/>
  <polygon class="st15" points="1777.7 267.1 1715.2 267.1 1684 321.2 1715.2 375.3 1777.7 375.3 1808.9 321.2 1777.7 267.1"/>
  <polygon class="st15" points="187.4 105.4 124.9 105.4 93.7 159.5 124.9 213.6 187.4 213.6 218.6 159.5 187.4 105.4"/>
  <polygon class="st15" points="93.7 159.1 31.2 159.1 0 213.2 31.2 267.3 93.7 267.3 124.9 213.2 93.7 159.1"/>
  <polygon class="st15" points="187.4 -2.6 124.9 -2.6 93.7 51.5 124.9 105.6 187.4 105.6 218.6 51.5 187.4 -2.6"/>
  <polygon class="st15" points="93.7 51.1 31.2 51.1 0 105.2 31.2 159.3 93.7 159.3 124.9 105.2 93.7 51.1"/>
  <polyline class="st15" points="-.3 105.3 30.9 51.2 -.3 -2.9"/>
  <path class="st15" d="M-94,51.2"/>
  <polygon class="st15" points="374.4 105.4 311.9 105.4 280.7 159.5 311.9 213.6 374.4 213.6 405.6 159.5 374.4 105.4"/>
  <polygon class="st15" points="280.7 159.1 218.2 159.1 187 213.2 218.2 267.3 280.7 267.3 311.9 213.2 280.7 159.1"/>
  <polygon class="st15" points="374.4 -2.6 311.9 -2.6 280.7 51.5 311.9 105.6 374.4 105.6 405.6 51.5 374.4 -2.6"/>
  <polygon class="st15" points="280.7 51.1 218.2 51.1 187 105.2 218.2 159.3 280.7 159.3 311.9 105.2 280.7 51.1"/>
  <polygon class="st15" points="561.4 105.4 498.9 105.4 467.7 159.5 498.9 213.6 561.4 213.6 592.6 159.5 561.4 105.4"/>
  <polygon class="st15" points="467.7 159.1 405.2 159.1 374 213.2 405.2 267.3 467.7 267.3 498.9 213.2 467.7 159.1"/>
  <polygon class="st15" points="561.4 -2.6 498.9 -2.6 467.7 51.5 498.9 105.6 561.4 105.6 592.6 51.5 561.4 -2.6"/>
  <polygon class="st15" points="467.7 51.1 405.2 51.1 374 105.2 405.2 159.3 467.7 159.3 498.9 105.2 467.7 51.1"/>
  <polygon class="st15" points="748.4 105.4 685.9 105.4 654.7 159.5 685.9 213.6 748.4 213.6 779.6 159.5 748.4 105.4"/>
  <polygon class="st15" points="654.7 159.1 592.2 159.1 561 213.2 592.2 267.3 654.7 267.3 685.9 213.2 654.7 159.1"/>
  <polygon class="st15" points="748.4 -2.6 685.9 -2.6 654.7 51.5 685.9 105.6 748.4 105.6 779.6 51.5 748.4 -2.6"/>
  <polygon class="st15" points="654.7 51.1 592.2 51.1 561 105.2 592.2 159.3 654.7 159.3 685.9 105.2 654.7 51.1"/>
  <polygon class="st15" points="935.4 105.4 872.9 105.4 841.7 159.5 872.9 213.6 935.4 213.6 966.6 159.5 935.4 105.4"/>
  <polygon class="st15" points="841.7 159.1 779.2 159.1 748 213.2 779.2 267.3 841.7 267.3 872.9 213.2 841.7 159.1"/>
  <polygon class="st15" points="935.4 -2.6 872.9 -2.6 841.7 51.5 872.9 105.6 935.4 105.6 966.6 51.5 935.4 -2.6"/>
  <polygon class="st15" points="841.7 51.1 779.2 51.1 748 105.2 779.2 159.3 841.7 159.3 872.9 105.2 841.7 51.1"/>
  <polygon class="st15" points="1122.4 105.4 1059.9 105.4 1028.7 159.5 1059.9 213.6 1122.4 213.6 1153.6 159.5 1122.4 105.4"/>
  <polygon class="st15" points="1028.7 159.1 966.2 159.1 935 213.2 966.2 267.3 1028.7 267.3 1059.9 213.2 1028.7 159.1"/>
  <polygon class="st15" points="1122.4 -2.6 1059.9 -2.6 1028.7 51.5 1059.9 105.6 1122.4 105.6 1153.6 51.5 1122.4 -2.6"/>
  <polygon class="st15" points="1028.7 51.1 966.2 51.1 935 105.2 966.2 159.3 1028.7 159.3 1059.9 105.2 1028.7 51.1"/>
  <polygon class="st15" points="1309.4 105.4 1246.9 105.4 1215.7 159.5 1246.9 213.6 1309.4 213.6 1340.6 159.5 1309.4 105.4"/>
  <polygon class="st15" points="1215.7 159.1 1153.2 159.1 1122 213.2 1153.2 267.3 1215.7 267.3 1246.9 213.2 1215.7 159.1"/>
  <polygon class="st15" points="1309.4 -2.6 1246.9 -2.6 1215.7 51.5 1246.9 105.6 1309.4 105.6 1340.6 51.5 1309.4 -2.6"/>
  <polygon class="st15" points="1215.7 51.1 1153.2 51.1 1122 105.2 1153.2 159.3 1215.7 159.3 1246.9 105.2 1215.7 51.1"/>
  <polygon class="st15" points="1496.4 105.4 1433.9 105.4 1402.7 159.5 1433.9 213.6 1496.4 213.6 1527.6 159.5 1496.4 105.4"/>
  <polygon class="st15" points="1402.7 159.1 1340.2 159.1 1309 213.2 1340.2 267.3 1402.7 267.3 1433.9 213.2 1402.7 159.1"/>
  <polygon class="st15" points="1496.4 -2.6 1433.9 -2.6 1402.7 51.5 1433.9 105.6 1496.4 105.6 1527.6 51.5 1496.4 -2.6"/>
  <polygon class="st15" points="1402.7 51.1 1340.2 51.1 1309 105.2 1340.2 159.3 1402.7 159.3 1433.9 105.2 1402.7 51.1"/>
  <polygon class="st15" points="1683.4 105.4 1620.9 105.4 1589.7 159.5 1620.9 213.6 1683.4 213.6 1714.6 159.5 1683.4 105.4"/>
  <polygon class="st15" points="1589.7 159.1 1527.2 159.1 1496 213.2 1527.2 267.3 1589.7 267.3 1620.9 213.2 1589.7 159.1"/>
  <polygon class="st15" points="1683.4 -2.6 1620.9 -2.6 1589.7 51.5 1620.9 105.6 1683.4 105.6 1714.6 51.5 1683.4 -2.6"/>
  <polygon class="st15" points="1589.7 51.1 1527.2 51.1 1496 105.2 1527.2 159.3 1589.7 159.3 1620.9 105.2 1589.7 51.1"/>
  <polygon class="st15" points="1871.4 105.4 1808.9 105.4 1777.7 159.5 1808.9 213.6 1871.4 213.6 1902.6 159.5 1871.4 105.4"/>
  <polygon class="st15" points="1777.7 159.1 1715.2 159.1 1684 213.2 1715.2 267.3 1777.7 267.3 1808.9 213.2 1777.7 159.1"/>
  <polygon class="st15" points="1871.4 -2.6 1808.9 -2.6 1777.7 51.5 1808.9 105.6 1871.4 105.6 1902.6 51.5 1871.4 -2.6"/>
  <polygon class="st15" points="1777.7 51.1 1715.2 51.1 1684 105.2 1715.2 159.3 1777.7 159.3 1808.9 105.2 1777.7 51.1"/>
  <rect class="st19" y="585.5" width="1902" height="164"/>
  <g>
    <g>
      <path d="M1285.9,753.3v-300.4c0-4.8,3.9-8.7,8.7-8.7h193.9c.5,0,.9-.3,1-.7.4-1.2,1.5-2.1,2.8-2.1h39c1.3,0,2.5.9,2.8,2.1.1.4.5.7,1,.7h183.7c10,0,18.1,8.1,18.1,18.1v288.9c0,1.1-.9,2.1-2.1,2.1h-449.1Z"/>
      <path class="st18" d="M1531.4,441.8c1.1,0,2.2.8,2.5,1.9.2.6.7,1,1.4,1h183.7c9.8,0,17.8,8,17.8,17.8v288.9c0,.9-.8,1.7-1.7,1.7h-448.7v-300c0-4.6,3.7-8.3,8.3-8.3h193.9c.6,0,1.2-.4,1.4-1,.3-1.1,1.4-1.9,2.5-1.9h39M1531.4,441h-39c-1.5,0-2.8,1-3.2,2.4,0,.3-.4.5-.6.5h-193.9c-5,0-9.1,4.1-9.1,9.1v300.8h449.4c1.4,0,2.5-1.1,2.5-2.5v-288.9c0-10.2-8.3-18.5-18.5-18.5h-183.7c-.3,0-.6-.2-.6-.5-.4-1.4-1.7-2.4-3.2-2.4h0Z"/>
    </g>
    <g>
      <path d="M1272,768.6c-10.8,0-19.6-8.8-19.6-19.6s.8-1.8,1.8-1.8h515.6c.9,0,1.6.7,1.6,1.6v.2c0,10.8-8.8,19.5-19.5,19.5h-479.8Z"/>
      <path class="st18" d="M1769.7,747.6c.7,0,1.3.6,1.3,1.3v.2c0,10.6-8.6,19.1-19.1,19.1h-479.8c-10.6,0-19.3-8.6-19.3-19.3s.6-1.4,1.4-1.4h515.6M1769.7,746.9h-515.6c-1.2,0-2.1,1-2.1,2.1,0,11,9,20,20,20h479.8c11,0,19.9-8.9,19.9-19.9v-.2c0-1.1-.9-2-2-2h0Z"/>
    </g>
    <g>
      <path d="M1511.9,460.2c-3.4,0-6.2-2.8-6.2-6.2s2.8-6.2,6.2-6.2,6.2,2.8,6.2,6.2-2.8,6.2-6.2,6.2Z"/>
      <path class="st18" d="M1511.9,448.3c3.2,0,5.8,2.6,5.8,5.8s-2.6,5.8-5.8,5.8-5.8-2.6-5.8-5.8,2.6-5.8,5.8-5.8M1511.9,447.5c-3.6,0-6.6,2.9-6.6,6.6s2.9,6.6,6.6,6.6,6.6-2.9,6.6-6.6-2.9-6.6-6.6-6.6h0Z"/>
    </g>
    <g>
      <path d="M1511.9,457c-1.6,0-2.9-1.3-2.9-2.9s1.3-2.9,2.9-2.9,2.9,1.3,2.9,2.9-1.3,2.9-2.9,2.9Z"/>
      <path class="st18" d="M1511.9,451.5c1.4,0,2.5,1.1,2.5,2.5s-1.1,2.5-2.5,2.5-2.5-1.1-2.5-2.5,1.1-2.5,2.5-2.5M1511.9,450.8c-1.8,0-3.3,1.5-3.3,3.3s1.5,3.3,3.3,3.3,3.3-1.5,3.3-3.3-1.5-3.3-3.3-3.3h0Z"/>
    </g>
    <path class="st11" d="M1725.8,721c0,1.8-1.4,3.3-3.1,3.3h-421.7c-1.7,0-3.1-1.5-3.1-3.3v-250.1c0-1.8,1.4-3.3,3.1-3.3h421.7c1.7,0,3.1,1.5,3.1,3.3v250.1Z"/>
    <path class="st5" d="M1272,769h479.8c5.6,0,10.1-2.8,13.7-6.5h-507.2c3.6,3.6,8,6.5,13.6,6.5Z"/>
    <path class="st5" d="M1470.5,747.5h82c0,3.9-3.1,7-7,7h-68c-3.9,0-7-3.1-7-7h0Z"/>
  </g>
  <g>
    <path class="st5" d="M214.3,514h10.4c.7,0,1.3.6,1.3,1.3h-13.1c0-.7.6-1.3,1.3-1.3Z"/>
    <path class="st5" d="M131.6,550.6h0c0,0,0,0,0,0v11.9c0,0,0,0,0,0h0c-.4,0-.7-.3-.7-.7v-10.6c0-.4.3-.8.8-.8Z"/>
    <path class="st5" d="M131.6,574.6h0c0,0,0,0,0,0v9.2c0,0,0,0,0,0h0c-.4,0-.7-.3-.7-.7v-7.8c0-.4.3-.8.8-.8Z"/>
    <path class="st5" d="M131.6,595.5h0c0,0,0,0,0,0v9.2c0,0,0,0,0,0h0c-.4,0-.7-.3-.7-.7v-7.8c0-.4.3-.8.8-.8Z"/>
    <rect class="st5" x="131.7" y="515.4" width="121.3" height="253.7" rx="21.8" ry="21.8"/>
    <rect class="st5" x="133.5" y="517.4" width="117.6" height="249.9" rx="21.4" ry="21.4"/>
    <circle class="st5" cx="192.6" cy="527.9" r="2.2"/>
    <g>
      <circle cx="192.6" cy="527.8" r="1.2"/>
      <g class="st0">
        <circle class="st13" cx="191.9" cy="527" r=".4"/>
        <circle class="st5" cx="191.8" cy="526.9" r=".4"/>
        <polygon class="st13" points="192.3 526.8 192.2 526.5 191.4 527.3 191.6 527.4 192.3 526.8"/>
      </g>
      <circle class="st9" cx="192.6" cy="527.8" r="1.2"/>
    </g>
    <rect class="st5" x="181.8" y="534.7" width="22.1" height="5.1" rx="2.6" ry="2.6"/>
    <rect class="st5" x="183.5" y="536" width="18.6" height="2.7" rx="1.3" ry="1.3"/>
    <circle class="st13" cx="187" cy="536.4" r=".3"/>
    <circle class="st13" cx="187" cy="537.3" r=".3"/>
    <circle class="st13" cx="187" cy="538.3" r=".3"/>
    <circle class="st13" cx="187.7" cy="537.8" r=".3"/>
    <path class="st13" d="M188,536c0,.2-.1.3-.3.3s-.3-.1-.3-.3"/>
    <circle class="st13" cx="187.7" cy="536.9" r=".3"/>
    <circle class="st13" cx="187.7" cy="536.9" r=".3"/>
    <circle class="st13" cx="188.5" cy="536.4" r=".3"/>
    <path class="st13" d="M187.4,538.7c0-.2.1-.3.3-.3s.3.1.3.3"/>
    <circle class="st13" cx="188.5" cy="536.4" r=".3"/>
    <circle class="st13" cx="188.5" cy="537.3" r=".3"/>
    <circle class="st13" cx="188.5" cy="538.3" r=".3"/>
    <circle class="st13" cx="186.2" cy="537.8" r=".3"/>
    <path class="st13" d="M186.5,536c0,.2-.1.3-.3.3s-.3-.1-.3-.3"/>
    <circle class="st13" cx="186.2" cy="536.9" r=".3"/>
    <path class="st13" d="M185.9,538.7c0-.2.1-.3.3-.3s.3.1.3.3"/>
    <circle class="st13" cx="187" cy="536.4" r=".3"/>
    <circle class="st13" cx="187" cy="537.3" r=".3"/>
    <circle class="st13" cx="187" cy="538.3" r=".3"/>
    <circle class="st13" cx="184.7" cy="537.8" r=".3"/>
    <path class="st13" d="M185,536c0,.2-.1.3-.3.3s-.3-.1-.3-.3"/>
    <circle class="st13" cx="184.7" cy="536.9" r=".3"/>
    <path class="st13" d="M184.4,538.7c0-.2.1-.3.3-.3s.3.1.3.3"/>
    <circle class="st13" cx="185.5" cy="536.4" r=".3"/>
    <circle class="st13" cx="185.5" cy="537.3" r=".3"/>
    <circle class="st13" cx="185.5" cy="538.3" r=".3"/>
    <path class="st13" d="M184.2,536.1c.1.1.2.3,0,.4s-.3.2-.4,0"/>
    <circle class="st13" cx="184" cy="537.3" r=".3"/>
    <path class="st13" d="M183.7,538.1c0-.2.3-.2.4-.1s.2.3.1.4"/>
    <circle class="st13" cx="189.2" cy="537.8" r=".3"/>
    <path class="st13" d="M189.5,536c0,.2-.1.3-.3.3s-.3-.1-.3-.3"/>
    <circle class="st13" cx="189.2" cy="536.9" r=".3"/>
    <path class="st13" d="M188.9,538.7c0-.2.1-.3.3-.3s.3.1.3.3"/>
    <circle class="st13" cx="190" cy="536.4" r=".3"/>
    <circle class="st13" cx="190" cy="537.3" r=".3"/>
    <circle class="st13" cx="190" cy="538.3" r=".3"/>
    <circle class="st13" cx="190.7" cy="537.8" r=".3"/>
    <path class="st13" d="M191,536c0,.2-.1.3-.3.3s-.3-.1-.3-.3"/>
    <circle class="st13" cx="190.7" cy="536.9" r=".3"/>
    <path class="st13" d="M190.4,538.7c0-.2.1-.3.3-.3s.3.1.3.3"/>
    <circle class="st13" cx="191.5" cy="536.4" r=".3"/>
    <circle class="st13" cx="191.5" cy="537.3" r=".3"/>
    <circle class="st13" cx="191.5" cy="538.3" r=".3"/>
    <circle class="st13" cx="192.2" cy="537.8" r=".3"/>
    <path class="st13" d="M192.5,535.9c0,.2-.1.3-.3.3s-.3-.1-.3-.3"/>
    <circle class="st13" cx="192.2" cy="536.9" r=".3"/>
    <path class="st13" d="M191.9,538.7c0-.2.1-.3.3-.3s.3.1.3.3"/>
    <circle class="st13" cx="193" cy="536.4" r=".3"/>
    <circle class="st13" cx="193" cy="537.3" r=".3"/>
    <circle class="st13" cx="193" cy="538.2" r=".3"/>
    <circle class="st13" cx="193.7" cy="537.8" r=".3"/>
    <path class="st13" d="M194,535.9c0,.2-.1.3-.3.3s-.3-.1-.3-.3"/>
    <circle class="st13" cx="193.7" cy="536.8" r=".3"/>
    <path class="st13" d="M193.4,538.7c0-.2.1-.3.3-.3s.3.1.3.3"/>
    <circle class="st13" cx="194.5" cy="536.4" r=".3"/>
    <circle class="st13" cx="194.5" cy="537.3" r=".3"/>
    <circle class="st13" cx="194.5" cy="538.2" r=".3"/>
    <circle class="st13" cx="195.2" cy="537.8" r=".3"/>
    <path class="st13" d="M195.5,535.9c0,.2-.1.3-.3.3s-.3-.1-.3-.3"/>
    <circle class="st13" cx="195.2" cy="536.8" r=".3"/>
    <path class="st13" d="M194.9,538.7c0-.2.1-.3.3-.3s.3.1.3.3"/>
    <circle class="st13" cx="196" cy="536.4" r=".3"/>
    <circle class="st13" cx="196" cy="537.3" r=".3"/>
    <circle class="st13" cx="196" cy="538.2" r=".3"/>
    <circle class="st13" cx="196.7" cy="537.8" r=".3"/>
    <path class="st13" d="M197,535.9c0,.2-.1.3-.3.3s-.3-.1-.3-.3"/>
    <circle class="st13" cx="196.7" cy="536.8" r=".3"/>
    <path class="st13" d="M196.4,538.7c0-.2.1-.3.3-.3s.3.1.3.3"/>
    <circle class="st13" cx="197.5" cy="536.4" r=".3"/>
    <circle class="st13" cx="197.5" cy="537.3" r=".3"/>
    <circle class="st13" cx="197.5" cy="538.2" r=".3"/>
    <circle class="st13" cx="198.2" cy="537.8" r=".3"/>
    <path class="st13" d="M198.5,535.9c0,.2-.1.3-.3.3s-.3-.1-.3-.3"/>
    <circle class="st13" cx="198.2" cy="536.8" r=".3"/>
    <path class="st13" d="M197.9,538.7c0-.2.1-.3.3-.3s.3.1.3.3"/>
    <circle class="st13" cx="199" cy="536.4" r=".3"/>
    <circle class="st13" cx="199" cy="537.3" r=".3"/>
    <circle class="st13" cx="199" cy="538.2" r=".3"/>
    <circle class="st13" cx="199.7" cy="537.8" r=".3"/>
    <path class="st13" d="M200,535.9c0,.2-.1.3-.3.3s-.3-.1-.3-.3"/>
    <circle class="st13" cx="199.7" cy="536.8" r=".3"/>
    <path class="st13" d="M199.4,538.7c0-.2.1-.3.3-.3s.3.1.3.3"/>
    <circle class="st13" cx="200.5" cy="536.4" r=".3"/>
    <circle class="st13" cx="200.5" cy="537.3" r=".3"/>
    <circle class="st13" cx="200.5" cy="538.2" r=".3"/>
    <circle class="st13" cx="201.2" cy="537.8" r=".3"/>
    <path class="st13" d="M201.5,535.9c0,.2-.1.3-.3.3s-.3-.1-.3-.3"/>
    <circle class="st13" cx="201.2" cy="536.8" r=".3"/>
    <path class="st13" d="M200.9,538.7c0-.2.1-.3.3-.3s.3.1.3.3"/>
    <path class="st13" d="M202,536.7c-.2,0-.3-.1-.3-.3"/>
    <circle class="st13" cx="202" cy="537.3" r=".3"/>
    <path class="st13" d="M201.6,538.2c0-.2.1-.3.3-.3"/>
    <circle class="st13" cx="192.6" cy="527.8" r=".4"/>
    <circle class="st13" cx="193" cy="528.2" r=".4"/>
    <circle class="st13" cx="192.3" cy="527.5" r=".2"/>
    <circle class="st5" cx="192.3" cy="750.4" r="11.1"/>
    <path class="st11" d="M143.5,550.6h98.6c2.2,0,4,1.8,4,4v176.2c0,1.9-1.6,3.5-3.5,3.5h-99.5c-1.9,0-3.5-1.6-3.5-3.5v-176.2c0-2.2,1.8-4,4-4Z"/>
    <path class="st5" d="M190.6,746.5h2.9c1.1,0,2.1.9,2.1,2.1v2.9c0,1.1-.9,2.1-2.1,2.1h-2.9c-1.1,0-2.1-.9-2.1-2.1v-2.9c0-1.1.9-2.1,2.1-2.1Z"/>
  </g>
  <g>
    <path class="st5" d="M968.2,719s1.3,14.8,1.7,20.2c.3,5.4,1.3,8.8,4.7,13,3.3,4.2,7.7,6.9,10.7,9.4s5,6-5.3,7.2c-4.8.6-14.5.3-19.3.3h-80c-4.8,0-14.5.3-19.3-.3-10.3-1.3-8.3-4.8-5.3-7.2s7.3-5.1,10.7-9.4,4.3-7.5,4.7-13c.3-5.4,1.7-20.2,1.7-20.2h95.3Z"/>
    <rect class="st5" x="697.8" y="412.3" width="445.7" height="306.7" rx="9" ry="9"/>
    <path class="st5" d="M928.3,694c-2.4-3.6-4-3.4-6.1-2.1s-1.2-1.7-5.3-.9-8,8.7-1.2,14.4c1.3,1.1,3.5-1.2,4.9-.5,6.4,3.4,8.3-3.9,8.3-3.9-7.1-3.2-.6-6.9-.6-6.9Z"/>
    <path class="st5" d="M921.3,690.8c.4,0,1,.1,2.4-1.5s.8-2.5-.2-2.5c-1.7,0-3.3,3.8-2.2,4Z"/>
    <rect class="st11" x="713.3" y="428.8" width="413.6" height="233.3" rx="3" ry="3"/>
    <line class="st5" x1="698" y1="677.5" x2="1144" y2="677.5"/>
  </g>
  <g>
    <rect class="st13" x="377.2" y="459" width="196.7" height="309.5" rx="22.2" ry="22.2"/>
    <path class="st4" d="M390.2,737.5c-1.2,0-2.2-.8-2.2-1.8v-248.8c0-1,1-1.8,2.2-1.8h170c1.2,0,2.2.8,2.2,1.8v248.8c0,1-1,1.8-2.2,1.8h-170Z"/>
    <ellipse class="st13" cx="475.6" cy="752.9" rx="11.6" ry="10.5"/>
    <circle class="st13" cx="475.6" cy="472.5" r="2"/>
  </g>
  <g>
    <g>
      <path class="st16" d="M3077,990.7c4.8,6.1,7.2,13,7.2,20.9s-1.7,13.3-5.2,18.7c-3.5,5.4-8.5,9.6-15.1,12.6-6.6,3-14.4,4.6-23.4,4.6h-57.2v-132.6h54.7c9,0,16.7,1.5,23.3,4.4,6.5,2.9,11.5,7,14.8,12.2,3.4,5.2,5,11.1,5,17.7s-2.1,14.2-6.2,19.4c-4.1,5.2-9.6,8.9-16.4,11,7.5,1.4,13.6,5.1,18.4,11.2ZM3010,969.6h24.3c6.3,0,11.2-1.4,14.6-4.3,3.4-2.9,5.1-6.9,5.1-12.3s-1.7-9.4-5.1-12.4c-3.4-2.9-8.3-4.4-14.6-4.4h-24.3v33.2ZM3051.8,1021.3c3.6-3,5.4-7.3,5.4-12.9s-1.9-10.2-5.7-13.4c-3.8-3.2-8.9-4.8-15.4-4.8h-26.2v35.7h26.8c6.5,0,11.5-1.5,15.1-4.6Z"/>
      <path class="st16" d="M3107.3,925.2c-3.1-3-4.7-6.7-4.7-11.1s1.5-8.1,4.7-11.1c3.1-3,7-4.5,11.7-4.5s8.6,1.5,11.7,4.5c3.1,3,4.7,6.7,4.7,11.1s-1.6,8.1-4.7,11.1c-3.1,3-7,4.5-11.7,4.5s-8.6-1.5-11.7-4.5ZM3132.1,942.2v105.3h-26.6v-105.3h26.6Z"/>
      <path class="st16" d="M3255.4,1002.8h-77c.6,7.6,3.3,13.6,8,17.9,4.7,4.3,10.5,6.5,17.3,6.5,9.9,0,16.9-4.2,21.1-12.7h28.7c-3,10.1-8.9,18.5-17.5,25-8.6,6.5-19.2,9.8-31.7,9.8s-19.2-2.2-27.3-6.7c-8-4.5-14.3-10.9-18.8-19.1-4.5-8.2-6.7-17.7-6.7-28.5s2.2-20.5,6.6-28.7c4.4-8.2,10.6-14.6,18.6-19,8-4.4,17.2-6.6,27.5-6.6s19,2.2,26.9,6.5c7.9,4.3,14.1,10.4,18.4,18.3,4.4,7.9,6.6,17,6.6,27.3s-.3,7.2-.8,10.3ZM3228.6,985c-.1-6.8-2.6-12.3-7.4-16.4-4.8-4.1-10.7-6.2-17.7-6.2s-12.1,2-16.6,6c-4.5,4-7.3,9.5-8.3,16.6h50Z"/>
      <path class="st16" d="M3364.3,952.6c7.7,7.9,11.6,19,11.6,33.2v61.8h-26.6v-58.1c0-8.4-2.1-14.8-6.3-19.3-4.2-4.5-9.9-6.7-17.1-6.7s-13.1,2.2-17.4,6.7c-4.2,4.5-6.4,10.9-6.4,19.3v58.1h-26.6v-105.3h26.6v13.1c3.5-4.6,8.1-8.1,13.6-10.7,5.5-2.6,11.6-3.9,18.1-3.9,12.5,0,22.7,4,30.4,11.9Z"/>
      <path class="st16" d="M3445,1023l26.6-80.8h28.3l-39,105.3h-32.3l-38.8-105.3h28.5l26.6,80.8Z"/>
      <path class="st16" d="M3612.1,1002.8h-77c.6,7.6,3.3,13.6,8,17.9,4.7,4.3,10.4,6.5,17.3,6.5,9.9,0,16.9-4.2,21.1-12.7h28.7c-3,10.1-8.9,18.5-17.5,25-8.6,6.5-19.2,9.8-31.7,9.8s-19.2-2.2-27.3-6.7c-8-4.5-14.3-10.9-18.8-19.1-4.5-8.2-6.7-17.7-6.7-28.5s2.2-20.5,6.6-28.7c4.4-8.2,10.6-14.6,18.6-19,8-4.4,17.2-6.6,27.5-6.6s19,2.2,26.9,6.5c7.9,4.3,14.1,10.4,18.4,18.3,4.4,7.9,6.6,17,6.6,27.3s-.3,7.2-.8,10.3ZM3585.3,985c-.1-6.8-2.6-12.3-7.4-16.4-4.8-4.1-10.7-6.2-17.7-6.2s-12.1,2-16.6,6c-4.5,4-7.3,9.5-8.3,16.6h50Z"/>
      <path class="st16" d="M3720.9,952.6c7.7,7.9,11.6,19,11.6,33.2v61.8h-26.6v-58.1c0-8.4-2.1-14.8-6.3-19.3-4.2-4.5-9.9-6.7-17.1-6.7s-13.1,2.2-17.4,6.7c-4.2,4.5-6.4,10.9-6.4,19.3v58.1h-26.6v-105.3h26.6v13.1c3.5-4.6,8.1-8.1,13.6-10.7,5.5-2.6,11.6-3.9,18.1-3.9,12.5,0,22.7,4,30.4,11.9Z"/>
      <path class="st16" d="M3857.2,942.2v105.3h-26.8v-13.3c-3.4,4.6-7.9,8.1-13.4,10.7s-11.5,3.9-18,3.9-15.5-1.7-21.8-5.2c-6.3-3.5-11.3-8.6-14.9-15.4-3.6-6.8-5.4-14.8-5.4-24.2v-61.8h26.6v58c0,8.4,2.1,14.8,6.3,19.3,4.2,4.5,9.9,6.7,17.1,6.7s13.1-2.2,17.3-6.7c4.2-4.5,6.3-10.9,6.3-19.3v-58h26.8Z"/>
      <path class="st16" d="M3980.5,1002.8h-77c.6,7.6,3.3,13.6,8,17.9,4.7,4.3,10.4,6.5,17.3,6.5,9.9,0,16.9-4.2,21.1-12.7h28.7c-3,10.1-8.9,18.5-17.5,25-8.6,6.5-19.2,9.8-31.7,9.8s-19.2-2.2-27.3-6.7c-8-4.5-14.3-10.9-18.8-19.1-4.5-8.2-6.7-17.7-6.7-28.5s2.2-20.5,6.7-28.7c4.4-8.2,10.6-14.6,18.6-19,8-4.4,17.2-6.6,27.5-6.6s19,2.2,26.9,6.5c7.9,4.3,14.1,10.4,18.4,18.3,4.4,7.9,6.6,17,6.6,27.3s-.3,7.2-.8,10.3ZM3953.7,985c-.1-6.8-2.6-12.3-7.4-16.4-4.8-4.1-10.7-6.2-17.7-6.2s-12.1,2-16.6,6c-4.5,4-7.3,9.5-8.3,16.6h50Z"/>
    </g>
    <image width="1072" height="224" transform="translate(2946 862)" xlink:href="imageducontenu-1.png"/>
    <image width="1072" height="224" transform="translate(2946 862)" xlink:href="imageducontenu-2.png"/>
    <image width="1072" height="224" transform="translate(2946 862)" xlink:href="imageducontenu-3.png"/>
    <image width="1072" height="224" transform="translate(2946 862)" xlink:href="imageducontenu-4.png"/>
  </g>
</svg>